G75*
%MOIN*%
%OFA0B0*%
%FSLAX25Y25*%
%IPPOS*%
%LPD*%
%AMOC8*
5,1,8,0,0,1.08239X$1,22.5*
%
%ADD10C,0.00000*%
D10*
X0021800Y0016800D02*
X0021800Y0355501D01*
X0411721Y0355501D01*
X0411721Y0016800D01*
X0021800Y0016800D01*
X0035300Y0390800D02*
X0035302Y0390961D01*
X0035308Y0391121D01*
X0035318Y0391282D01*
X0035332Y0391442D01*
X0035350Y0391602D01*
X0035371Y0391761D01*
X0035397Y0391920D01*
X0035427Y0392078D01*
X0035460Y0392235D01*
X0035498Y0392392D01*
X0035539Y0392547D01*
X0035584Y0392701D01*
X0035633Y0392854D01*
X0035686Y0393006D01*
X0035742Y0393157D01*
X0035803Y0393306D01*
X0035866Y0393454D01*
X0035934Y0393600D01*
X0036005Y0393744D01*
X0036079Y0393886D01*
X0036157Y0394027D01*
X0036239Y0394165D01*
X0036324Y0394302D01*
X0036412Y0394436D01*
X0036504Y0394568D01*
X0036599Y0394698D01*
X0036697Y0394826D01*
X0036798Y0394951D01*
X0036902Y0395073D01*
X0037009Y0395193D01*
X0037119Y0395310D01*
X0037232Y0395425D01*
X0037348Y0395536D01*
X0037467Y0395645D01*
X0037588Y0395750D01*
X0037712Y0395853D01*
X0037838Y0395953D01*
X0037966Y0396049D01*
X0038097Y0396142D01*
X0038231Y0396232D01*
X0038366Y0396319D01*
X0038504Y0396402D01*
X0038643Y0396482D01*
X0038785Y0396558D01*
X0038928Y0396631D01*
X0039073Y0396700D01*
X0039220Y0396766D01*
X0039368Y0396828D01*
X0039518Y0396886D01*
X0039669Y0396941D01*
X0039822Y0396992D01*
X0039976Y0397039D01*
X0040131Y0397082D01*
X0040287Y0397121D01*
X0040443Y0397157D01*
X0040601Y0397188D01*
X0040759Y0397216D01*
X0040918Y0397240D01*
X0041078Y0397260D01*
X0041238Y0397276D01*
X0041398Y0397288D01*
X0041559Y0397296D01*
X0041720Y0397300D01*
X0041880Y0397300D01*
X0042041Y0397296D01*
X0042202Y0397288D01*
X0042362Y0397276D01*
X0042522Y0397260D01*
X0042682Y0397240D01*
X0042841Y0397216D01*
X0042999Y0397188D01*
X0043157Y0397157D01*
X0043313Y0397121D01*
X0043469Y0397082D01*
X0043624Y0397039D01*
X0043778Y0396992D01*
X0043931Y0396941D01*
X0044082Y0396886D01*
X0044232Y0396828D01*
X0044380Y0396766D01*
X0044527Y0396700D01*
X0044672Y0396631D01*
X0044815Y0396558D01*
X0044957Y0396482D01*
X0045096Y0396402D01*
X0045234Y0396319D01*
X0045369Y0396232D01*
X0045503Y0396142D01*
X0045634Y0396049D01*
X0045762Y0395953D01*
X0045888Y0395853D01*
X0046012Y0395750D01*
X0046133Y0395645D01*
X0046252Y0395536D01*
X0046368Y0395425D01*
X0046481Y0395310D01*
X0046591Y0395193D01*
X0046698Y0395073D01*
X0046802Y0394951D01*
X0046903Y0394826D01*
X0047001Y0394698D01*
X0047096Y0394568D01*
X0047188Y0394436D01*
X0047276Y0394302D01*
X0047361Y0394165D01*
X0047443Y0394027D01*
X0047521Y0393886D01*
X0047595Y0393744D01*
X0047666Y0393600D01*
X0047734Y0393454D01*
X0047797Y0393306D01*
X0047858Y0393157D01*
X0047914Y0393006D01*
X0047967Y0392854D01*
X0048016Y0392701D01*
X0048061Y0392547D01*
X0048102Y0392392D01*
X0048140Y0392235D01*
X0048173Y0392078D01*
X0048203Y0391920D01*
X0048229Y0391761D01*
X0048250Y0391602D01*
X0048268Y0391442D01*
X0048282Y0391282D01*
X0048292Y0391121D01*
X0048298Y0390961D01*
X0048300Y0390800D01*
X0048298Y0390639D01*
X0048292Y0390479D01*
X0048282Y0390318D01*
X0048268Y0390158D01*
X0048250Y0389998D01*
X0048229Y0389839D01*
X0048203Y0389680D01*
X0048173Y0389522D01*
X0048140Y0389365D01*
X0048102Y0389208D01*
X0048061Y0389053D01*
X0048016Y0388899D01*
X0047967Y0388746D01*
X0047914Y0388594D01*
X0047858Y0388443D01*
X0047797Y0388294D01*
X0047734Y0388146D01*
X0047666Y0388000D01*
X0047595Y0387856D01*
X0047521Y0387714D01*
X0047443Y0387573D01*
X0047361Y0387435D01*
X0047276Y0387298D01*
X0047188Y0387164D01*
X0047096Y0387032D01*
X0047001Y0386902D01*
X0046903Y0386774D01*
X0046802Y0386649D01*
X0046698Y0386527D01*
X0046591Y0386407D01*
X0046481Y0386290D01*
X0046368Y0386175D01*
X0046252Y0386064D01*
X0046133Y0385955D01*
X0046012Y0385850D01*
X0045888Y0385747D01*
X0045762Y0385647D01*
X0045634Y0385551D01*
X0045503Y0385458D01*
X0045369Y0385368D01*
X0045234Y0385281D01*
X0045096Y0385198D01*
X0044957Y0385118D01*
X0044815Y0385042D01*
X0044672Y0384969D01*
X0044527Y0384900D01*
X0044380Y0384834D01*
X0044232Y0384772D01*
X0044082Y0384714D01*
X0043931Y0384659D01*
X0043778Y0384608D01*
X0043624Y0384561D01*
X0043469Y0384518D01*
X0043313Y0384479D01*
X0043157Y0384443D01*
X0042999Y0384412D01*
X0042841Y0384384D01*
X0042682Y0384360D01*
X0042522Y0384340D01*
X0042362Y0384324D01*
X0042202Y0384312D01*
X0042041Y0384304D01*
X0041880Y0384300D01*
X0041720Y0384300D01*
X0041559Y0384304D01*
X0041398Y0384312D01*
X0041238Y0384324D01*
X0041078Y0384340D01*
X0040918Y0384360D01*
X0040759Y0384384D01*
X0040601Y0384412D01*
X0040443Y0384443D01*
X0040287Y0384479D01*
X0040131Y0384518D01*
X0039976Y0384561D01*
X0039822Y0384608D01*
X0039669Y0384659D01*
X0039518Y0384714D01*
X0039368Y0384772D01*
X0039220Y0384834D01*
X0039073Y0384900D01*
X0038928Y0384969D01*
X0038785Y0385042D01*
X0038643Y0385118D01*
X0038504Y0385198D01*
X0038366Y0385281D01*
X0038231Y0385368D01*
X0038097Y0385458D01*
X0037966Y0385551D01*
X0037838Y0385647D01*
X0037712Y0385747D01*
X0037588Y0385850D01*
X0037467Y0385955D01*
X0037348Y0386064D01*
X0037232Y0386175D01*
X0037119Y0386290D01*
X0037009Y0386407D01*
X0036902Y0386527D01*
X0036798Y0386649D01*
X0036697Y0386774D01*
X0036599Y0386902D01*
X0036504Y0387032D01*
X0036412Y0387164D01*
X0036324Y0387298D01*
X0036239Y0387435D01*
X0036157Y0387573D01*
X0036079Y0387714D01*
X0036005Y0387856D01*
X0035934Y0388000D01*
X0035866Y0388146D01*
X0035803Y0388294D01*
X0035742Y0388443D01*
X0035686Y0388594D01*
X0035633Y0388746D01*
X0035584Y0388899D01*
X0035539Y0389053D01*
X0035498Y0389208D01*
X0035460Y0389365D01*
X0035427Y0389522D01*
X0035397Y0389680D01*
X0035371Y0389839D01*
X0035350Y0389998D01*
X0035332Y0390158D01*
X0035318Y0390318D01*
X0035308Y0390479D01*
X0035302Y0390639D01*
X0035300Y0390800D01*
M02*
