G75*
%MOIN*%
%OFA0B0*%
%FSLAX25Y25*%
%IPPOS*%
%LPD*%
%AMOC8*
5,1,8,0,0,1.08239X$1,22.5*
%
%ADD10C,0.08200*%
%ADD11OC8,0.05600*%
%ADD12OC8,0.06700*%
%ADD13C,0.06700*%
%ADD14C,0.05600*%
%ADD15C,0.09250*%
%ADD16C,0.05600*%
%ADD17R,0.06300X0.06300*%
%ADD18C,0.06300*%
%ADD19C,0.07000*%
%ADD20C,0.13400*%
%ADD21C,0.06000*%
%ADD22C,0.06400*%
%ADD23C,0.07400*%
D10*
X0047900Y0127000D02*
X0055700Y0127000D01*
X0055700Y0146700D02*
X0047900Y0146700D01*
X0092000Y0312900D02*
X0092000Y0320700D01*
X0111700Y0320700D02*
X0111700Y0312900D01*
X0377900Y0321600D02*
X0385700Y0321600D01*
X0385700Y0301900D02*
X0377900Y0301900D01*
X0377900Y0271600D02*
X0385700Y0271600D01*
X0385700Y0251900D02*
X0377900Y0251900D01*
X0377900Y0221600D02*
X0385700Y0221600D01*
X0385700Y0201900D02*
X0377900Y0201900D01*
X0377900Y0171600D02*
X0385700Y0171600D01*
X0385700Y0151900D02*
X0377900Y0151900D01*
X0377900Y0121600D02*
X0385700Y0121600D01*
X0385700Y0101900D02*
X0377900Y0101900D01*
X0377900Y0071600D02*
X0385700Y0071600D01*
X0385700Y0051900D02*
X0377900Y0051900D01*
D11*
X0036800Y0021800D03*
X0036800Y0061800D03*
X0051800Y0081800D03*
X0051800Y0096800D03*
X0091800Y0096800D03*
X0101800Y0101800D03*
X0116800Y0086800D03*
X0109300Y0081800D03*
X0116800Y0076800D03*
X0131800Y0061800D03*
X0151800Y0081800D03*
X0151800Y0096800D03*
X0141800Y0101800D03*
X0141800Y0116800D03*
X0156800Y0111800D03*
X0156800Y0121800D03*
X0156800Y0136800D03*
X0156800Y0146800D03*
X0191800Y0096800D03*
X0191800Y0081800D03*
X0204300Y0081800D03*
X0211800Y0076800D03*
X0211800Y0086800D03*
X0236800Y0096800D03*
X0244300Y0101800D03*
X0236800Y0106800D03*
X0236800Y0116800D03*
X0236800Y0126800D03*
X0236800Y0146800D03*
X0244300Y0151800D03*
X0236800Y0156800D03*
X0236800Y0166800D03*
X0236800Y0176800D03*
X0236800Y0196800D03*
X0244300Y0201800D03*
X0236800Y0206800D03*
X0236800Y0216800D03*
X0236800Y0226800D03*
X0236800Y0246800D03*
X0244300Y0251800D03*
X0236800Y0256800D03*
X0236800Y0266800D03*
X0236800Y0276800D03*
X0256800Y0271800D03*
X0256800Y0286800D03*
X0256800Y0306800D03*
X0244300Y0306800D03*
X0236800Y0301800D03*
X0236800Y0311800D03*
X0236800Y0321800D03*
X0236800Y0331800D03*
X0256800Y0326800D03*
X0256800Y0341800D03*
X0296800Y0341800D03*
X0296800Y0326800D03*
X0296800Y0306800D03*
X0296800Y0286800D03*
X0296800Y0271800D03*
X0296800Y0251800D03*
X0296800Y0231800D03*
X0296800Y0216800D03*
X0296800Y0196800D03*
X0296800Y0176800D03*
X0296800Y0161800D03*
X0296800Y0141800D03*
X0296800Y0121800D03*
X0296800Y0106800D03*
X0296800Y0086800D03*
X0296800Y0066800D03*
X0296800Y0051800D03*
X0296800Y0031800D03*
X0256800Y0031800D03*
X0244300Y0046800D03*
X0236800Y0051800D03*
X0236800Y0061800D03*
X0236800Y0071800D03*
X0256800Y0066800D03*
X0256800Y0051800D03*
X0236800Y0041800D03*
X0201800Y0036800D03*
X0201800Y0026800D03*
X0256800Y0086800D03*
X0256800Y0106800D03*
X0256800Y0121800D03*
X0256800Y0141800D03*
X0256800Y0161800D03*
X0256800Y0176800D03*
X0256800Y0196800D03*
X0256800Y0216800D03*
X0256800Y0231800D03*
X0256800Y0251800D03*
X0211800Y0221800D03*
X0211800Y0206800D03*
X0171800Y0206800D03*
X0171800Y0221800D03*
X0161800Y0246800D03*
X0151800Y0246800D03*
X0146800Y0261800D03*
X0166800Y0261800D03*
X0141800Y0231800D03*
X0131800Y0231800D03*
X0131800Y0216800D03*
X0141800Y0216800D03*
X0117800Y0246800D03*
X0096800Y0221800D03*
X0096800Y0206800D03*
X0096800Y0186800D03*
X0076800Y0186800D03*
X0076800Y0206800D03*
X0076800Y0221800D03*
X0091800Y0161800D03*
X0091800Y0121800D03*
X0101800Y0116800D03*
X0091800Y0081800D03*
X0101800Y0036800D03*
X0101800Y0026800D03*
X0131800Y0021800D03*
X0051800Y0296800D03*
X0051800Y0311800D03*
X0031800Y0311800D03*
X0031800Y0296800D03*
X0070800Y0301800D03*
D12*
X0086800Y0246800D03*
X0111800Y0216800D03*
X0111800Y0176800D03*
X0066800Y0171800D03*
X0041800Y0171800D03*
X0161800Y0328800D03*
D13*
X0161800Y0314800D03*
X0096800Y0246800D03*
X0056800Y0171800D03*
X0031800Y0171800D03*
D14*
X0125800Y0246800D03*
X0156800Y0191300D03*
X0156800Y0172300D03*
X0062800Y0301800D03*
D15*
X0066225Y0276800D02*
X0057375Y0276800D01*
X0117375Y0276800D02*
X0126225Y0276800D01*
X0142375Y0281800D02*
X0151225Y0281800D01*
X0202375Y0281800D02*
X0211225Y0281800D01*
D16*
X0131800Y0304200D02*
X0131800Y0309400D01*
X0131800Y0334200D02*
X0131800Y0339400D01*
X0309200Y0326800D02*
X0314400Y0326800D01*
X0314400Y0316800D02*
X0309200Y0316800D01*
X0309200Y0306800D02*
X0314400Y0306800D01*
X0339200Y0306800D02*
X0344400Y0306800D01*
X0344400Y0316800D02*
X0339200Y0316800D01*
X0339200Y0326800D02*
X0344400Y0326800D01*
X0344400Y0276800D02*
X0339200Y0276800D01*
X0339200Y0266800D02*
X0344400Y0266800D01*
X0344400Y0256800D02*
X0339200Y0256800D01*
X0314400Y0256800D02*
X0309200Y0256800D01*
X0309200Y0266800D02*
X0314400Y0266800D01*
X0314400Y0276800D02*
X0309200Y0276800D01*
X0309200Y0221800D02*
X0314400Y0221800D01*
X0314400Y0211800D02*
X0309200Y0211800D01*
X0309200Y0201800D02*
X0314400Y0201800D01*
X0339200Y0201800D02*
X0344400Y0201800D01*
X0344400Y0211800D02*
X0339200Y0211800D01*
X0339200Y0221800D02*
X0344400Y0221800D01*
X0344400Y0171800D02*
X0339200Y0171800D01*
X0339200Y0161800D02*
X0344400Y0161800D01*
X0344400Y0151800D02*
X0339200Y0151800D01*
X0314400Y0151800D02*
X0309200Y0151800D01*
X0309200Y0161800D02*
X0314400Y0161800D01*
X0314400Y0171800D02*
X0309200Y0171800D01*
X0309200Y0121800D02*
X0314400Y0121800D01*
X0314400Y0111800D02*
X0309200Y0111800D01*
X0309200Y0101800D02*
X0314400Y0101800D01*
X0339200Y0101800D02*
X0344400Y0101800D01*
X0344400Y0111800D02*
X0339200Y0111800D01*
X0339200Y0121800D02*
X0344400Y0121800D01*
X0344400Y0071800D02*
X0339200Y0071800D01*
X0339200Y0061800D02*
X0344400Y0061800D01*
X0344400Y0051800D02*
X0339200Y0051800D01*
X0314400Y0051800D02*
X0309200Y0051800D01*
X0309200Y0061800D02*
X0314400Y0061800D01*
X0314400Y0071800D02*
X0309200Y0071800D01*
X0192000Y0066800D02*
X0186800Y0066800D01*
X0186800Y0056800D02*
X0192000Y0056800D01*
X0156800Y0056800D02*
X0151600Y0056800D01*
X0151600Y0066800D02*
X0156800Y0066800D01*
X0092000Y0066800D02*
X0086800Y0066800D01*
X0086800Y0056800D02*
X0092000Y0056800D01*
X0056800Y0056800D02*
X0051600Y0056800D01*
X0051600Y0066800D02*
X0056800Y0066800D01*
D17*
X0136800Y0131800D03*
X0206800Y0126800D03*
D18*
X0206800Y0136800D03*
X0206800Y0146800D03*
X0206800Y0156800D03*
X0206800Y0166800D03*
X0206800Y0176800D03*
X0206800Y0186800D03*
X0176800Y0186800D03*
X0176800Y0176800D03*
X0176800Y0166800D03*
X0176800Y0156800D03*
X0176800Y0146800D03*
X0176800Y0136800D03*
X0176800Y0126800D03*
X0136800Y0141800D03*
X0136800Y0151800D03*
X0136800Y0161800D03*
X0106800Y0161800D03*
X0106800Y0151800D03*
X0106800Y0141800D03*
X0106800Y0131800D03*
D19*
X0051800Y0328500D02*
X0051800Y0335100D01*
X0041800Y0335100D02*
X0041800Y0328500D01*
X0031800Y0328500D02*
X0031800Y0335100D01*
D20*
X0041800Y0390800D03*
D21*
X0036957Y0246800D03*
X0056643Y0246800D03*
X0056643Y0201800D03*
X0036957Y0201800D03*
D22*
X0051000Y0040700D02*
X0057000Y0040700D01*
X0057000Y0022900D02*
X0051000Y0022900D01*
X0076600Y0022900D02*
X0082600Y0022900D01*
X0082600Y0040700D02*
X0076600Y0040700D01*
X0151000Y0040700D02*
X0157000Y0040700D01*
X0157000Y0022900D02*
X0151000Y0022900D01*
X0176600Y0022900D02*
X0182600Y0022900D01*
X0182600Y0040700D02*
X0176600Y0040700D01*
D23*
X0196800Y0318300D02*
X0196800Y0325300D01*
X0216800Y0325300D02*
X0216800Y0318300D01*
M02*
