G75*
%MOIN*%
%OFA0B0*%
%FSLAX25Y25*%
%IPPOS*%
%LPD*%
%AMOC8*
5,1,8,0,0,1.08239X$1,22.5*
%
%ADD10C,0.07800*%
%ADD11OC8,0.05200*%
%ADD12OC8,0.06300*%
%ADD13C,0.06300*%
%ADD14C,0.05200*%
%ADD15C,0.08850*%
%ADD16C,0.05200*%
%ADD17R,0.05900X0.05900*%
%ADD18C,0.05900*%
%ADD19C,0.06600*%
%ADD20C,0.05600*%
%ADD21C,0.06000*%
%ADD22C,0.07000*%
%ADD23C,0.01600*%
%ADD24C,0.02400*%
%ADD25C,0.03200*%
%ADD26R,0.03562X0.03562*%
D10*
X0047900Y0127000D02*
X0055700Y0127000D01*
X0055700Y0146700D02*
X0047900Y0146700D01*
X0092000Y0312900D02*
X0092000Y0320700D01*
X0111700Y0320700D02*
X0111700Y0312900D01*
X0377900Y0321600D02*
X0385700Y0321600D01*
X0385700Y0301900D02*
X0377900Y0301900D01*
X0377900Y0271600D02*
X0385700Y0271600D01*
X0385700Y0251900D02*
X0377900Y0251900D01*
X0377900Y0221600D02*
X0385700Y0221600D01*
X0385700Y0201900D02*
X0377900Y0201900D01*
X0377900Y0171600D02*
X0385700Y0171600D01*
X0385700Y0151900D02*
X0377900Y0151900D01*
X0377900Y0121600D02*
X0385700Y0121600D01*
X0385700Y0101900D02*
X0377900Y0101900D01*
X0377900Y0071600D02*
X0385700Y0071600D01*
X0385700Y0051900D02*
X0377900Y0051900D01*
D11*
X0296800Y0051800D03*
X0296800Y0066800D03*
X0296800Y0086800D03*
X0296800Y0106800D03*
X0296800Y0121800D03*
X0296800Y0141800D03*
X0296800Y0161800D03*
X0296800Y0176800D03*
X0296800Y0196800D03*
X0296800Y0216800D03*
X0296800Y0231800D03*
X0296800Y0251800D03*
X0296800Y0271800D03*
X0296800Y0286800D03*
X0296800Y0306800D03*
X0296800Y0326800D03*
X0296800Y0341800D03*
X0256800Y0341800D03*
X0256800Y0326800D03*
X0256800Y0306800D03*
X0244300Y0306800D03*
X0236800Y0301800D03*
X0236800Y0311800D03*
X0236800Y0321800D03*
X0236800Y0331800D03*
X0256800Y0286800D03*
X0256800Y0271800D03*
X0256800Y0251800D03*
X0244300Y0251800D03*
X0236800Y0246800D03*
X0236800Y0256800D03*
X0236800Y0266800D03*
X0236800Y0276800D03*
X0256800Y0231800D03*
X0256800Y0216800D03*
X0244300Y0201800D03*
X0236800Y0196800D03*
X0236800Y0206800D03*
X0236800Y0216800D03*
X0236800Y0226800D03*
X0211800Y0221800D03*
X0211800Y0206800D03*
X0236800Y0176800D03*
X0236800Y0166800D03*
X0236800Y0156800D03*
X0244300Y0151800D03*
X0236800Y0146800D03*
X0236800Y0126800D03*
X0236800Y0116800D03*
X0236800Y0106800D03*
X0244300Y0101800D03*
X0236800Y0096800D03*
X0256800Y0086800D03*
X0256800Y0106800D03*
X0256800Y0121800D03*
X0256800Y0141800D03*
X0256800Y0161800D03*
X0256800Y0176800D03*
X0256800Y0196800D03*
X0171800Y0206800D03*
X0171800Y0221800D03*
X0161800Y0246800D03*
X0151800Y0246800D03*
X0146800Y0261800D03*
X0166800Y0261800D03*
X0141800Y0231800D03*
X0131800Y0231800D03*
X0131800Y0216800D03*
X0141800Y0216800D03*
X0117800Y0246800D03*
X0096800Y0221800D03*
X0096800Y0206800D03*
X0096800Y0186800D03*
X0076800Y0186800D03*
X0076800Y0206800D03*
X0076800Y0221800D03*
X0091800Y0161800D03*
X0091800Y0121800D03*
X0101800Y0116800D03*
X0101800Y0101800D03*
X0091800Y0096800D03*
X0091800Y0081800D03*
X0109300Y0081800D03*
X0116800Y0076800D03*
X0116800Y0086800D03*
X0131800Y0061800D03*
X0151800Y0081800D03*
X0151800Y0096800D03*
X0141800Y0101800D03*
X0141800Y0116800D03*
X0156800Y0111800D03*
X0156800Y0121800D03*
X0156800Y0136800D03*
X0156800Y0146800D03*
X0191800Y0096800D03*
X0191800Y0081800D03*
X0204300Y0081800D03*
X0211800Y0076800D03*
X0211800Y0086800D03*
X0236800Y0071800D03*
X0236800Y0061800D03*
X0236800Y0051800D03*
X0244300Y0046800D03*
X0236800Y0041800D03*
X0256800Y0031800D03*
X0256800Y0051800D03*
X0256800Y0066800D03*
X0296800Y0031800D03*
X0201800Y0026800D03*
X0201800Y0036800D03*
X0131800Y0021800D03*
X0101800Y0026800D03*
X0101800Y0036800D03*
X0051800Y0081800D03*
X0051800Y0096800D03*
X0036800Y0061800D03*
X0036800Y0021800D03*
X0031800Y0296800D03*
X0031800Y0311800D03*
X0051800Y0311800D03*
X0051800Y0296800D03*
X0070800Y0301800D03*
D12*
X0086800Y0246800D03*
X0111800Y0216800D03*
X0111800Y0176800D03*
X0066800Y0171800D03*
X0041800Y0171800D03*
X0161800Y0328800D03*
D13*
X0161800Y0314800D03*
X0096800Y0246800D03*
X0056800Y0171800D03*
X0031800Y0171800D03*
D14*
X0125800Y0246800D03*
X0156800Y0191300D03*
X0156800Y0172300D03*
X0062800Y0301800D03*
D15*
X0066225Y0276800D02*
X0057375Y0276800D01*
X0117375Y0276800D02*
X0126225Y0276800D01*
X0142375Y0281800D02*
X0151225Y0281800D01*
X0202375Y0281800D02*
X0211225Y0281800D01*
D16*
X0131800Y0304200D02*
X0131800Y0309400D01*
X0131800Y0334200D02*
X0131800Y0339400D01*
X0309200Y0326800D02*
X0314400Y0326800D01*
X0314400Y0316800D02*
X0309200Y0316800D01*
X0309200Y0306800D02*
X0314400Y0306800D01*
X0339200Y0306800D02*
X0344400Y0306800D01*
X0344400Y0316800D02*
X0339200Y0316800D01*
X0339200Y0326800D02*
X0344400Y0326800D01*
X0344400Y0276800D02*
X0339200Y0276800D01*
X0339200Y0266800D02*
X0344400Y0266800D01*
X0344400Y0256800D02*
X0339200Y0256800D01*
X0314400Y0256800D02*
X0309200Y0256800D01*
X0309200Y0266800D02*
X0314400Y0266800D01*
X0314400Y0276800D02*
X0309200Y0276800D01*
X0309200Y0221800D02*
X0314400Y0221800D01*
X0314400Y0211800D02*
X0309200Y0211800D01*
X0309200Y0201800D02*
X0314400Y0201800D01*
X0339200Y0201800D02*
X0344400Y0201800D01*
X0344400Y0211800D02*
X0339200Y0211800D01*
X0339200Y0221800D02*
X0344400Y0221800D01*
X0344400Y0171800D02*
X0339200Y0171800D01*
X0339200Y0161800D02*
X0344400Y0161800D01*
X0344400Y0151800D02*
X0339200Y0151800D01*
X0314400Y0151800D02*
X0309200Y0151800D01*
X0309200Y0161800D02*
X0314400Y0161800D01*
X0314400Y0171800D02*
X0309200Y0171800D01*
X0309200Y0121800D02*
X0314400Y0121800D01*
X0314400Y0111800D02*
X0309200Y0111800D01*
X0309200Y0101800D02*
X0314400Y0101800D01*
X0339200Y0101800D02*
X0344400Y0101800D01*
X0344400Y0111800D02*
X0339200Y0111800D01*
X0339200Y0121800D02*
X0344400Y0121800D01*
X0344400Y0071800D02*
X0339200Y0071800D01*
X0339200Y0061800D02*
X0344400Y0061800D01*
X0344400Y0051800D02*
X0339200Y0051800D01*
X0314400Y0051800D02*
X0309200Y0051800D01*
X0309200Y0061800D02*
X0314400Y0061800D01*
X0314400Y0071800D02*
X0309200Y0071800D01*
X0192000Y0066800D02*
X0186800Y0066800D01*
X0186800Y0056800D02*
X0192000Y0056800D01*
X0156800Y0056800D02*
X0151600Y0056800D01*
X0151600Y0066800D02*
X0156800Y0066800D01*
X0092000Y0066800D02*
X0086800Y0066800D01*
X0086800Y0056800D02*
X0092000Y0056800D01*
X0056800Y0056800D02*
X0051600Y0056800D01*
X0051600Y0066800D02*
X0056800Y0066800D01*
D17*
X0136800Y0131800D03*
X0206800Y0126800D03*
D18*
X0206800Y0136800D03*
X0206800Y0146800D03*
X0206800Y0156800D03*
X0206800Y0166800D03*
X0206800Y0176800D03*
X0206800Y0186800D03*
X0176800Y0186800D03*
X0176800Y0176800D03*
X0176800Y0166800D03*
X0176800Y0156800D03*
X0176800Y0146800D03*
X0176800Y0136800D03*
X0176800Y0126800D03*
X0136800Y0141800D03*
X0136800Y0151800D03*
X0136800Y0161800D03*
X0106800Y0161800D03*
X0106800Y0151800D03*
X0106800Y0141800D03*
X0106800Y0131800D03*
D19*
X0051800Y0328500D02*
X0051800Y0335100D01*
X0041800Y0335100D02*
X0041800Y0328500D01*
X0031800Y0328500D02*
X0031800Y0335100D01*
D20*
X0036957Y0246800D03*
X0056643Y0246800D03*
X0056643Y0201800D03*
X0036957Y0201800D03*
D21*
X0051000Y0040700D02*
X0057000Y0040700D01*
X0057000Y0022900D02*
X0051000Y0022900D01*
X0076600Y0022900D02*
X0082600Y0022900D01*
X0082600Y0040700D02*
X0076600Y0040700D01*
X0151000Y0040700D02*
X0157000Y0040700D01*
X0157000Y0022900D02*
X0151000Y0022900D01*
X0176600Y0022900D02*
X0182600Y0022900D01*
X0182600Y0040700D02*
X0176600Y0040700D01*
D22*
X0196800Y0318300D02*
X0196800Y0325300D01*
X0216800Y0325300D02*
X0216800Y0318300D01*
D23*
X0024000Y0353301D02*
X0024000Y0019000D01*
X0032812Y0019000D01*
X0032000Y0019812D01*
X0032000Y0023788D01*
X0034812Y0026600D01*
X0038788Y0026600D01*
X0039688Y0025700D01*
X0046531Y0025700D01*
X0046592Y0025846D01*
X0048054Y0027308D01*
X0049966Y0028100D01*
X0058034Y0028100D01*
X0059946Y0027308D01*
X0061408Y0025846D01*
X0061469Y0025700D01*
X0072131Y0025700D01*
X0072192Y0025846D01*
X0073654Y0027308D01*
X0075566Y0028100D01*
X0083634Y0028100D01*
X0085546Y0027308D01*
X0087008Y0025846D01*
X0087800Y0023934D01*
X0087800Y0021866D01*
X0087008Y0019954D01*
X0086054Y0019000D01*
X0127812Y0019000D01*
X0127000Y0019812D01*
X0127000Y0023788D01*
X0129812Y0026600D01*
X0133788Y0026600D01*
X0135788Y0024600D01*
X0146076Y0024600D01*
X0146592Y0025846D01*
X0148054Y0027308D01*
X0149966Y0028100D01*
X0158034Y0028100D01*
X0159946Y0027308D01*
X0161408Y0025846D01*
X0161469Y0025700D01*
X0172131Y0025700D01*
X0172192Y0025846D01*
X0173654Y0027308D01*
X0175566Y0028100D01*
X0183634Y0028100D01*
X0185546Y0027308D01*
X0187008Y0025846D01*
X0187800Y0023934D01*
X0187800Y0021866D01*
X0187008Y0019954D01*
X0186054Y0019000D01*
X0409521Y0019000D01*
X0409521Y0353301D01*
X0024000Y0353301D01*
X0024000Y0352487D02*
X0409521Y0352487D01*
X0409521Y0350889D02*
X0024000Y0350889D01*
X0024000Y0349290D02*
X0409521Y0349290D01*
X0409521Y0347692D02*
X0024000Y0347692D01*
X0024000Y0346093D02*
X0254305Y0346093D01*
X0254812Y0346600D02*
X0252000Y0343788D01*
X0252000Y0339812D01*
X0254812Y0337000D01*
X0258788Y0337000D01*
X0261600Y0339812D01*
X0261600Y0343788D01*
X0258788Y0346600D01*
X0254812Y0346600D01*
X0252707Y0344495D02*
X0024000Y0344495D01*
X0024000Y0342896D02*
X0128508Y0342896D01*
X0128673Y0343061D02*
X0128139Y0342527D01*
X0127695Y0341916D01*
X0127352Y0341243D01*
X0127118Y0340524D01*
X0127000Y0339778D01*
X0127000Y0336800D01*
X0131800Y0336800D01*
X0136600Y0336800D01*
X0136600Y0339778D01*
X0136482Y0340524D01*
X0136248Y0341243D01*
X0135905Y0341916D01*
X0135461Y0342527D01*
X0134927Y0343061D01*
X0134316Y0343505D01*
X0133643Y0343848D01*
X0132924Y0344082D01*
X0132178Y0344200D01*
X0131800Y0344200D01*
X0131800Y0336800D01*
X0131800Y0336800D01*
X0131800Y0336800D01*
X0136600Y0336800D01*
X0136600Y0333822D01*
X0136482Y0333076D01*
X0136248Y0332357D01*
X0135905Y0331684D01*
X0135461Y0331073D01*
X0134927Y0330539D01*
X0134316Y0330095D01*
X0133643Y0329752D01*
X0132924Y0329518D01*
X0132178Y0329400D01*
X0131800Y0329400D01*
X0131800Y0336800D01*
X0131800Y0336800D01*
X0131800Y0336800D01*
X0131800Y0344200D01*
X0131422Y0344200D01*
X0130676Y0344082D01*
X0129957Y0343848D01*
X0129284Y0343505D01*
X0128673Y0343061D01*
X0127380Y0341298D02*
X0024000Y0341298D01*
X0024000Y0339699D02*
X0028621Y0339699D01*
X0028684Y0339763D02*
X0027137Y0338215D01*
X0026300Y0336194D01*
X0026300Y0327406D01*
X0027137Y0325384D01*
X0028684Y0323837D01*
X0030706Y0323000D01*
X0031640Y0323000D01*
X0039000Y0315640D01*
X0039000Y0306243D01*
X0039426Y0305214D01*
X0047000Y0297640D01*
X0047000Y0295960D01*
X0034584Y0283544D01*
X0034157Y0282514D01*
X0034157Y0251052D01*
X0034125Y0251039D01*
X0032719Y0249632D01*
X0031957Y0247795D01*
X0031957Y0245805D01*
X0032719Y0243968D01*
X0034125Y0242561D01*
X0035963Y0241800D01*
X0037840Y0241800D01*
X0044426Y0235214D01*
X0045214Y0234426D01*
X0046243Y0234000D01*
X0122357Y0234000D01*
X0123386Y0234426D01*
X0124174Y0235214D01*
X0128174Y0239214D01*
X0128600Y0240243D01*
X0128600Y0242812D01*
X0129869Y0244081D01*
X0130600Y0245845D01*
X0130600Y0247755D01*
X0129869Y0249519D01*
X0128519Y0250869D01*
X0126755Y0251600D01*
X0124845Y0251600D01*
X0123081Y0250869D01*
X0121800Y0249588D01*
X0119788Y0251600D01*
X0117800Y0251600D01*
X0117800Y0246800D01*
X0117800Y0246800D01*
X0117800Y0242000D01*
X0119788Y0242000D01*
X0121800Y0244012D01*
X0123000Y0242812D01*
X0123000Y0241960D01*
X0120640Y0239600D01*
X0098560Y0239600D01*
X0099174Y0240214D01*
X0099600Y0241243D01*
X0099600Y0242169D01*
X0099831Y0242264D01*
X0101335Y0243769D01*
X0102150Y0245736D01*
X0102150Y0247864D01*
X0101335Y0249831D01*
X0099831Y0251335D01*
X0097864Y0252150D01*
X0095736Y0252150D01*
X0093769Y0251335D01*
X0092264Y0249831D01*
X0091992Y0249174D01*
X0089016Y0252150D01*
X0086800Y0252150D01*
X0086800Y0246800D01*
X0086800Y0246800D01*
X0086800Y0241450D01*
X0089016Y0241450D01*
X0091992Y0244426D01*
X0092264Y0243769D01*
X0093537Y0242497D01*
X0090640Y0239600D01*
X0047960Y0239600D01*
X0041898Y0245662D01*
X0041957Y0245805D01*
X0041957Y0247795D01*
X0041196Y0249632D01*
X0039790Y0251039D01*
X0039757Y0251052D01*
X0039757Y0280798D01*
X0050960Y0292000D01*
X0053788Y0292000D01*
X0056600Y0294812D01*
X0056600Y0298788D01*
X0053788Y0301600D01*
X0050960Y0301600D01*
X0044600Y0307960D01*
X0044600Y0317357D01*
X0044174Y0318386D01*
X0043386Y0319174D01*
X0038356Y0324204D01*
X0038917Y0323796D01*
X0039689Y0323403D01*
X0040512Y0323135D01*
X0041367Y0323000D01*
X0041500Y0323000D01*
X0041500Y0331500D01*
X0042100Y0331500D01*
X0042100Y0323000D01*
X0042233Y0323000D01*
X0043088Y0323135D01*
X0043911Y0323403D01*
X0044683Y0323796D01*
X0045383Y0324305D01*
X0045995Y0324917D01*
X0046504Y0325617D01*
X0046800Y0326199D01*
X0047137Y0325384D01*
X0048684Y0323837D01*
X0049000Y0323707D01*
X0049000Y0315788D01*
X0047000Y0313788D01*
X0047000Y0309812D01*
X0049812Y0307000D01*
X0053640Y0307000D01*
X0058000Y0302640D01*
X0058000Y0300845D01*
X0058731Y0299081D01*
X0060081Y0297731D01*
X0061845Y0297000D01*
X0063755Y0297000D01*
X0065519Y0297731D01*
X0066800Y0299012D01*
X0068812Y0297000D01*
X0070800Y0297000D01*
X0072788Y0297000D01*
X0075600Y0299812D01*
X0075600Y0301800D01*
X0075600Y0303788D01*
X0072788Y0306600D01*
X0070800Y0306600D01*
X0070800Y0301800D01*
X0070800Y0301800D01*
X0075600Y0301800D01*
X0070800Y0301800D01*
X0070800Y0301800D01*
X0070800Y0306600D01*
X0068812Y0306600D01*
X0066800Y0304588D01*
X0065519Y0305869D01*
X0063755Y0306600D01*
X0061960Y0306600D01*
X0056600Y0311960D01*
X0056600Y0313788D01*
X0054600Y0315788D01*
X0054600Y0323707D01*
X0054915Y0323837D01*
X0056463Y0325384D01*
X0057300Y0327406D01*
X0057300Y0336194D01*
X0056463Y0338215D01*
X0054915Y0339763D01*
X0052894Y0340600D01*
X0050706Y0340600D01*
X0048684Y0339763D01*
X0047137Y0338215D01*
X0046800Y0337401D01*
X0046504Y0337983D01*
X0045995Y0338683D01*
X0045383Y0339295D01*
X0044683Y0339804D01*
X0043911Y0340197D01*
X0043088Y0340465D01*
X0042233Y0340600D01*
X0042100Y0340600D01*
X0042100Y0332100D01*
X0041500Y0332100D01*
X0041500Y0340600D01*
X0041367Y0340600D01*
X0040512Y0340465D01*
X0039689Y0340197D01*
X0038917Y0339804D01*
X0038217Y0339295D01*
X0037605Y0338683D01*
X0037096Y0337983D01*
X0036800Y0337401D01*
X0036463Y0338215D01*
X0034915Y0339763D01*
X0032894Y0340600D01*
X0030706Y0340600D01*
X0028684Y0339763D01*
X0027090Y0338101D02*
X0024000Y0338101D01*
X0024000Y0336502D02*
X0026428Y0336502D01*
X0026300Y0334904D02*
X0024000Y0334904D01*
X0024000Y0333305D02*
X0026300Y0333305D01*
X0026300Y0331707D02*
X0024000Y0331707D01*
X0024000Y0330108D02*
X0026300Y0330108D01*
X0026300Y0328510D02*
X0024000Y0328510D01*
X0024000Y0326911D02*
X0026505Y0326911D01*
X0027209Y0325313D02*
X0024000Y0325313D01*
X0024000Y0323714D02*
X0028982Y0323714D01*
X0032525Y0322116D02*
X0024000Y0322116D01*
X0024000Y0320517D02*
X0034123Y0320517D01*
X0035722Y0318919D02*
X0024000Y0318919D01*
X0024000Y0317320D02*
X0037320Y0317320D01*
X0038919Y0315722D02*
X0034667Y0315722D01*
X0033788Y0316600D02*
X0031800Y0316600D01*
X0031800Y0311800D01*
X0036600Y0311800D01*
X0036600Y0313788D01*
X0033788Y0316600D01*
X0031800Y0316600D02*
X0029812Y0316600D01*
X0027000Y0313788D01*
X0027000Y0311800D01*
X0031800Y0311800D01*
X0031800Y0311800D01*
X0031800Y0311800D01*
X0036600Y0311800D01*
X0036600Y0309812D01*
X0033788Y0307000D01*
X0031800Y0307000D01*
X0031800Y0311800D01*
X0031800Y0311800D01*
X0031800Y0311800D01*
X0031800Y0316600D01*
X0031800Y0315722D02*
X0031800Y0315722D01*
X0031800Y0314123D02*
X0031800Y0314123D01*
X0031800Y0312525D02*
X0031800Y0312525D01*
X0031800Y0311800D02*
X0027000Y0311800D01*
X0027000Y0309812D01*
X0029812Y0307000D01*
X0031800Y0307000D01*
X0031800Y0311800D01*
X0031800Y0310926D02*
X0031800Y0310926D01*
X0031800Y0309328D02*
X0031800Y0309328D01*
X0031800Y0307729D02*
X0031800Y0307729D01*
X0034517Y0307729D02*
X0039000Y0307729D01*
X0039000Y0309328D02*
X0036116Y0309328D01*
X0036600Y0310926D02*
X0039000Y0310926D01*
X0039000Y0312525D02*
X0036600Y0312525D01*
X0036265Y0314123D02*
X0039000Y0314123D01*
X0044600Y0314123D02*
X0047335Y0314123D01*
X0047000Y0312525D02*
X0044600Y0312525D01*
X0044600Y0310926D02*
X0047000Y0310926D01*
X0047484Y0309328D02*
X0044600Y0309328D01*
X0044831Y0307729D02*
X0049083Y0307729D01*
X0046429Y0306131D02*
X0054510Y0306131D01*
X0056108Y0304532D02*
X0048028Y0304532D01*
X0049626Y0302934D02*
X0057707Y0302934D01*
X0058000Y0301335D02*
X0054053Y0301335D01*
X0055652Y0299737D02*
X0058459Y0299737D01*
X0059674Y0298138D02*
X0056600Y0298138D01*
X0056600Y0296539D02*
X0122535Y0296539D01*
X0124134Y0294941D02*
X0056600Y0294941D01*
X0055131Y0293342D02*
X0125732Y0293342D01*
X0127331Y0291744D02*
X0050704Y0291744D01*
X0049105Y0290145D02*
X0128929Y0290145D01*
X0130528Y0288547D02*
X0047507Y0288547D01*
X0045908Y0286948D02*
X0132126Y0286948D01*
X0133725Y0285350D02*
X0044310Y0285350D01*
X0042711Y0283751D02*
X0135323Y0283751D01*
X0135811Y0283264D02*
X0135750Y0283118D01*
X0135750Y0280482D01*
X0136759Y0278047D01*
X0138622Y0276184D01*
X0141057Y0275175D01*
X0152543Y0275175D01*
X0154978Y0276184D01*
X0156841Y0278047D01*
X0157850Y0280482D01*
X0157850Y0283118D01*
X0156841Y0285553D01*
X0154978Y0287416D01*
X0152543Y0288425D01*
X0141057Y0288425D01*
X0140098Y0288028D01*
X0117401Y0310724D01*
X0117800Y0311687D01*
X0117800Y0321913D01*
X0116871Y0324155D01*
X0115155Y0325871D01*
X0112913Y0326800D01*
X0110487Y0326800D01*
X0108245Y0325871D01*
X0106529Y0324155D01*
X0105600Y0321913D01*
X0105600Y0311687D01*
X0106529Y0309445D01*
X0108245Y0307729D01*
X0110487Y0306800D01*
X0112275Y0306800D01*
X0135811Y0283264D01*
X0135750Y0282153D02*
X0130132Y0282153D01*
X0129914Y0282320D02*
X0130603Y0281792D01*
X0131217Y0281178D01*
X0131745Y0280489D01*
X0132180Y0279736D01*
X0132512Y0278934D01*
X0132737Y0278095D01*
X0132818Y0277475D01*
X0122475Y0277475D01*
X0121125Y0277475D01*
X0121125Y0283425D01*
X0116941Y0283425D01*
X0116080Y0283312D01*
X0115241Y0283087D01*
X0114439Y0282755D01*
X0113686Y0282320D01*
X0112997Y0281792D01*
X0112383Y0281178D01*
X0111855Y0280489D01*
X0111420Y0279736D01*
X0111088Y0278934D01*
X0110863Y0278095D01*
X0110782Y0277475D01*
X0121125Y0277475D01*
X0121125Y0276125D01*
X0122475Y0276125D01*
X0122475Y0277475D01*
X0122475Y0283425D01*
X0126659Y0283425D01*
X0127520Y0283312D01*
X0128359Y0283087D01*
X0129161Y0282755D01*
X0129914Y0282320D01*
X0131695Y0280554D02*
X0135750Y0280554D01*
X0136382Y0278956D02*
X0132503Y0278956D01*
X0132818Y0276125D02*
X0122475Y0276125D01*
X0122475Y0270175D01*
X0126659Y0270175D01*
X0127520Y0270288D01*
X0128359Y0270513D01*
X0129161Y0270845D01*
X0129914Y0271280D01*
X0130603Y0271808D01*
X0131217Y0272422D01*
X0131745Y0273111D01*
X0132180Y0273864D01*
X0132512Y0274666D01*
X0132737Y0275505D01*
X0132818Y0276125D01*
X0132770Y0275759D02*
X0139648Y0275759D01*
X0137448Y0277357D02*
X0122475Y0277357D01*
X0121125Y0277357D02*
X0072850Y0277357D01*
X0072850Y0278118D02*
X0071841Y0280553D01*
X0069978Y0282416D01*
X0067543Y0283425D01*
X0056057Y0283425D01*
X0053622Y0282416D01*
X0051759Y0280553D01*
X0050750Y0278118D01*
X0050750Y0275482D01*
X0051759Y0273047D01*
X0053622Y0271184D01*
X0056057Y0270175D01*
X0067543Y0270175D01*
X0069978Y0271184D01*
X0071841Y0273047D01*
X0072850Y0275482D01*
X0072850Y0278118D01*
X0072503Y0278956D02*
X0111097Y0278956D01*
X0111905Y0280554D02*
X0071840Y0280554D01*
X0070241Y0282153D02*
X0113468Y0282153D01*
X0121125Y0282153D02*
X0122475Y0282153D01*
X0122475Y0280554D02*
X0121125Y0280554D01*
X0121125Y0278956D02*
X0122475Y0278956D01*
X0121125Y0276125D02*
X0110782Y0276125D01*
X0110863Y0275505D01*
X0111088Y0274666D01*
X0111420Y0273864D01*
X0111855Y0273111D01*
X0112383Y0272422D01*
X0112997Y0271808D01*
X0113686Y0271280D01*
X0114439Y0270845D01*
X0115241Y0270513D01*
X0116080Y0270288D01*
X0116941Y0270175D01*
X0121125Y0270175D01*
X0121125Y0276125D01*
X0121125Y0275759D02*
X0122475Y0275759D01*
X0122475Y0274160D02*
X0121125Y0274160D01*
X0121125Y0272562D02*
X0122475Y0272562D01*
X0122475Y0270963D02*
X0121125Y0270963D01*
X0114234Y0270963D02*
X0069446Y0270963D01*
X0071356Y0272562D02*
X0112276Y0272562D01*
X0111298Y0274160D02*
X0072302Y0274160D01*
X0072850Y0275759D02*
X0110830Y0275759D01*
X0129366Y0270963D02*
X0156438Y0270963D01*
X0154839Y0269365D02*
X0039757Y0269365D01*
X0039757Y0270963D02*
X0054154Y0270963D01*
X0052244Y0272562D02*
X0039757Y0272562D01*
X0039757Y0274160D02*
X0051298Y0274160D01*
X0050750Y0275759D02*
X0039757Y0275759D01*
X0039757Y0277357D02*
X0050750Y0277357D01*
X0051097Y0278956D02*
X0039757Y0278956D01*
X0039757Y0280554D02*
X0051760Y0280554D01*
X0053359Y0282153D02*
X0041113Y0282153D01*
X0036390Y0285350D02*
X0024000Y0285350D01*
X0024000Y0286948D02*
X0037989Y0286948D01*
X0039587Y0288547D02*
X0024000Y0288547D01*
X0024000Y0290145D02*
X0041186Y0290145D01*
X0042784Y0291744D02*
X0024000Y0291744D01*
X0024000Y0293342D02*
X0028469Y0293342D01*
X0029812Y0292000D02*
X0031800Y0292000D01*
X0033788Y0292000D01*
X0036600Y0294812D01*
X0036600Y0296800D01*
X0036600Y0298788D01*
X0033788Y0301600D01*
X0031800Y0301600D01*
X0031800Y0296800D01*
X0036600Y0296800D01*
X0031800Y0296800D01*
X0031800Y0296800D01*
X0031800Y0296800D01*
X0031800Y0292000D01*
X0031800Y0296800D01*
X0031800Y0296800D01*
X0031800Y0296800D01*
X0027000Y0296800D01*
X0027000Y0298788D01*
X0029812Y0301600D01*
X0031800Y0301600D01*
X0031800Y0296800D01*
X0027000Y0296800D01*
X0027000Y0294812D01*
X0029812Y0292000D01*
X0031800Y0293342D02*
X0031800Y0293342D01*
X0031800Y0294941D02*
X0031800Y0294941D01*
X0031800Y0296539D02*
X0031800Y0296539D01*
X0031800Y0298138D02*
X0031800Y0298138D01*
X0031800Y0299737D02*
X0031800Y0299737D01*
X0031800Y0301335D02*
X0031800Y0301335D01*
X0034053Y0301335D02*
X0043305Y0301335D01*
X0041707Y0302934D02*
X0024000Y0302934D01*
X0024000Y0304532D02*
X0040108Y0304532D01*
X0039047Y0306131D02*
X0024000Y0306131D01*
X0024000Y0307729D02*
X0029083Y0307729D01*
X0027484Y0309328D02*
X0024000Y0309328D01*
X0024000Y0310926D02*
X0027000Y0310926D01*
X0027000Y0312525D02*
X0024000Y0312525D01*
X0024000Y0314123D02*
X0027335Y0314123D01*
X0028933Y0315722D02*
X0024000Y0315722D01*
X0038846Y0323714D02*
X0039078Y0323714D01*
X0040444Y0322116D02*
X0049000Y0322116D01*
X0048982Y0323714D02*
X0044522Y0323714D01*
X0046283Y0325313D02*
X0047209Y0325313D01*
X0042100Y0325313D02*
X0041500Y0325313D01*
X0041500Y0326911D02*
X0042100Y0326911D01*
X0042100Y0328510D02*
X0041500Y0328510D01*
X0041500Y0330108D02*
X0042100Y0330108D01*
X0042100Y0333305D02*
X0041500Y0333305D01*
X0041500Y0334904D02*
X0042100Y0334904D01*
X0042100Y0336502D02*
X0041500Y0336502D01*
X0041500Y0338101D02*
X0042100Y0338101D01*
X0042100Y0339699D02*
X0041500Y0339699D01*
X0038773Y0339699D02*
X0034979Y0339699D01*
X0036510Y0338101D02*
X0037182Y0338101D01*
X0044827Y0339699D02*
X0048621Y0339699D01*
X0047090Y0338101D02*
X0046418Y0338101D01*
X0054979Y0339699D02*
X0127000Y0339699D01*
X0127000Y0338101D02*
X0056510Y0338101D01*
X0057172Y0336502D02*
X0127000Y0336502D01*
X0127000Y0336800D02*
X0127000Y0333822D01*
X0127118Y0333076D01*
X0127352Y0332357D01*
X0127695Y0331684D01*
X0128139Y0331073D01*
X0128673Y0330539D01*
X0129284Y0330095D01*
X0129957Y0329752D01*
X0130676Y0329518D01*
X0131422Y0329400D01*
X0131800Y0329400D01*
X0131800Y0336800D01*
X0127000Y0336800D01*
X0127000Y0334904D02*
X0057300Y0334904D01*
X0057300Y0333305D02*
X0127082Y0333305D01*
X0127683Y0331707D02*
X0057300Y0331707D01*
X0057300Y0330108D02*
X0129266Y0330108D01*
X0131800Y0330108D02*
X0131800Y0330108D01*
X0131800Y0331707D02*
X0131800Y0331707D01*
X0131800Y0333305D02*
X0131800Y0333305D01*
X0131800Y0334904D02*
X0131800Y0334904D01*
X0131800Y0336502D02*
X0131800Y0336502D01*
X0131800Y0338101D02*
X0131800Y0338101D01*
X0131800Y0339699D02*
X0131800Y0339699D01*
X0131800Y0341298D02*
X0131800Y0341298D01*
X0131800Y0342896D02*
X0131800Y0342896D01*
X0135092Y0342896D02*
X0252000Y0342896D01*
X0252000Y0341298D02*
X0136220Y0341298D01*
X0136600Y0339699D02*
X0252112Y0339699D01*
X0253711Y0338101D02*
X0136600Y0338101D01*
X0136600Y0336502D02*
X0234714Y0336502D01*
X0234812Y0336600D02*
X0232000Y0333788D01*
X0232000Y0329812D01*
X0234812Y0327000D01*
X0238788Y0327000D01*
X0241600Y0329812D01*
X0241600Y0333788D01*
X0238788Y0336600D01*
X0234812Y0336600D01*
X0233116Y0334904D02*
X0136600Y0334904D01*
X0136518Y0333305D02*
X0158739Y0333305D01*
X0159584Y0334150D02*
X0156450Y0331016D01*
X0156450Y0328800D01*
X0161800Y0328800D01*
X0161800Y0328800D01*
X0161800Y0334150D01*
X0164016Y0334150D01*
X0167150Y0331016D01*
X0167150Y0328800D01*
X0161800Y0328800D01*
X0161800Y0328800D01*
X0161800Y0328800D01*
X0161800Y0334150D01*
X0159584Y0334150D01*
X0161800Y0333305D02*
X0161800Y0333305D01*
X0161800Y0331707D02*
X0161800Y0331707D01*
X0161800Y0330108D02*
X0161800Y0330108D01*
X0161800Y0328800D02*
X0156450Y0328800D01*
X0156450Y0326584D01*
X0159584Y0323450D01*
X0161800Y0323450D01*
X0164016Y0323450D01*
X0167150Y0326584D01*
X0167150Y0328800D01*
X0161800Y0328800D01*
X0161800Y0323450D01*
X0161800Y0328800D01*
X0161800Y0328800D01*
X0161800Y0328510D02*
X0161800Y0328510D01*
X0161800Y0326911D02*
X0161800Y0326911D01*
X0161800Y0325313D02*
X0161800Y0325313D01*
X0161800Y0323714D02*
X0161800Y0323714D01*
X0164280Y0323714D02*
X0184189Y0323714D01*
X0184987Y0324513D02*
X0175475Y0315000D01*
X0167150Y0315000D01*
X0167150Y0315864D01*
X0166335Y0317831D01*
X0164831Y0319335D01*
X0162864Y0320150D01*
X0160736Y0320150D01*
X0158769Y0319335D01*
X0157264Y0317831D01*
X0156450Y0315864D01*
X0156450Y0313736D01*
X0157258Y0311784D01*
X0155475Y0310000D01*
X0136600Y0310000D01*
X0136600Y0310355D01*
X0135869Y0312119D01*
X0134519Y0313469D01*
X0132755Y0314200D01*
X0130845Y0314200D01*
X0129081Y0313469D01*
X0127731Y0312119D01*
X0127000Y0310355D01*
X0127000Y0303245D01*
X0127731Y0301481D01*
X0129081Y0300131D01*
X0130845Y0299400D01*
X0132755Y0299400D01*
X0134519Y0300131D01*
X0135869Y0301481D01*
X0136600Y0303245D01*
X0136600Y0303600D01*
X0157437Y0303600D01*
X0158600Y0304082D01*
X0158600Y0273125D01*
X0150475Y0265000D01*
X0150388Y0265000D01*
X0148788Y0266600D01*
X0144812Y0266600D01*
X0142000Y0263788D01*
X0142000Y0259812D01*
X0144812Y0257000D01*
X0148788Y0257000D01*
X0150388Y0258600D01*
X0152437Y0258600D01*
X0153613Y0259087D01*
X0163525Y0269000D01*
X0205640Y0269000D01*
X0213419Y0261221D01*
X0213419Y0259356D01*
X0214356Y0258419D01*
X0219000Y0258419D01*
X0219000Y0202960D01*
X0215214Y0199174D01*
X0214426Y0198386D01*
X0214000Y0197357D01*
X0214000Y0187960D01*
X0211859Y0185819D01*
X0211950Y0186395D01*
X0211950Y0186625D01*
X0206975Y0186625D01*
X0206975Y0186975D01*
X0206625Y0186975D01*
X0206625Y0191950D01*
X0206395Y0191950D01*
X0205594Y0191823D01*
X0204823Y0191573D01*
X0204101Y0191205D01*
X0203445Y0190728D01*
X0202872Y0190155D01*
X0202395Y0189499D01*
X0202027Y0188777D01*
X0201777Y0188006D01*
X0201650Y0187205D01*
X0201650Y0186975D01*
X0206625Y0186975D01*
X0206625Y0186625D01*
X0201650Y0186625D01*
X0201650Y0186395D01*
X0201777Y0185594D01*
X0202027Y0184823D01*
X0202395Y0184101D01*
X0202872Y0183445D01*
X0203445Y0182872D01*
X0204101Y0182395D01*
X0204823Y0182027D01*
X0205462Y0181820D01*
X0203883Y0181166D01*
X0202434Y0179717D01*
X0201650Y0177824D01*
X0201650Y0175776D01*
X0202434Y0173883D01*
X0203883Y0172434D01*
X0205413Y0171800D01*
X0203883Y0171166D01*
X0202434Y0169717D01*
X0201650Y0167824D01*
X0201650Y0165776D01*
X0202434Y0163883D01*
X0203883Y0162434D01*
X0205413Y0161800D01*
X0203883Y0161166D01*
X0202434Y0159717D01*
X0201650Y0157824D01*
X0201650Y0155776D01*
X0202434Y0153883D01*
X0203883Y0152434D01*
X0205413Y0151800D01*
X0203883Y0151166D01*
X0202434Y0149717D01*
X0201650Y0147824D01*
X0201650Y0145776D01*
X0202434Y0143883D01*
X0203883Y0142434D01*
X0205413Y0141800D01*
X0203883Y0141166D01*
X0202434Y0139717D01*
X0201650Y0137824D01*
X0201650Y0135776D01*
X0202434Y0133883D01*
X0203883Y0132434D01*
X0205051Y0131950D01*
X0202939Y0131950D01*
X0201650Y0130661D01*
X0201650Y0122939D01*
X0202939Y0121650D01*
X0210661Y0121650D01*
X0211826Y0122814D01*
X0214000Y0120640D01*
X0214000Y0091388D01*
X0213788Y0091600D01*
X0210960Y0091600D01*
X0203386Y0099174D01*
X0202357Y0099600D01*
X0195788Y0099600D01*
X0193788Y0101600D01*
X0190960Y0101600D01*
X0189600Y0102960D01*
X0189600Y0152357D01*
X0189174Y0153386D01*
X0188386Y0154174D01*
X0183386Y0159174D01*
X0182357Y0159600D01*
X0181215Y0159600D01*
X0181166Y0159717D01*
X0179717Y0161166D01*
X0178186Y0161800D01*
X0179717Y0162434D01*
X0181166Y0163883D01*
X0181950Y0165776D01*
X0181950Y0167824D01*
X0181166Y0169717D01*
X0179717Y0171166D01*
X0178186Y0171800D01*
X0179717Y0172434D01*
X0181166Y0173883D01*
X0181950Y0175776D01*
X0181950Y0177824D01*
X0181166Y0179717D01*
X0179717Y0181166D01*
X0178186Y0181800D01*
X0179717Y0182434D01*
X0181166Y0183883D01*
X0181950Y0185776D01*
X0181950Y0187824D01*
X0181166Y0189717D01*
X0179717Y0191166D01*
X0177824Y0191950D01*
X0175776Y0191950D01*
X0175658Y0191901D01*
X0173886Y0193674D01*
X0172857Y0194100D01*
X0160788Y0194100D01*
X0159600Y0195288D01*
X0159600Y0227357D01*
X0159174Y0228386D01*
X0158386Y0229174D01*
X0153386Y0234174D01*
X0152357Y0234600D01*
X0145788Y0234600D01*
X0143788Y0236600D01*
X0139812Y0236600D01*
X0137000Y0233788D01*
X0137000Y0229812D01*
X0139812Y0227000D01*
X0143788Y0227000D01*
X0145788Y0229000D01*
X0150640Y0229000D01*
X0154000Y0225640D01*
X0154000Y0195288D01*
X0152731Y0194019D01*
X0152000Y0192255D01*
X0152000Y0190345D01*
X0152731Y0188581D01*
X0154081Y0187231D01*
X0155845Y0186500D01*
X0157755Y0186500D01*
X0159519Y0187231D01*
X0160788Y0188500D01*
X0171140Y0188500D01*
X0171699Y0187942D01*
X0171650Y0187824D01*
X0171650Y0185776D01*
X0172434Y0183883D01*
X0173883Y0182434D01*
X0175413Y0181800D01*
X0173883Y0181166D01*
X0172434Y0179717D01*
X0171650Y0177824D01*
X0171650Y0175776D01*
X0171699Y0175658D01*
X0171140Y0175100D01*
X0160788Y0175100D01*
X0159519Y0176369D01*
X0157755Y0177100D01*
X0155960Y0177100D01*
X0148886Y0184174D01*
X0148033Y0184527D01*
X0134600Y0197960D01*
X0134600Y0212812D01*
X0136600Y0214812D01*
X0136600Y0218788D01*
X0133788Y0221600D01*
X0129812Y0221600D01*
X0127000Y0218788D01*
X0127000Y0214812D01*
X0129000Y0212812D01*
X0129000Y0196243D01*
X0129426Y0195214D01*
X0144426Y0180214D01*
X0145214Y0179426D01*
X0146067Y0179073D01*
X0152000Y0173140D01*
X0152000Y0171345D01*
X0152731Y0169581D01*
X0154081Y0168231D01*
X0155845Y0167500D01*
X0157755Y0167500D01*
X0159519Y0168231D01*
X0160788Y0169500D01*
X0172344Y0169500D01*
X0171650Y0167824D01*
X0171650Y0165776D01*
X0171699Y0165658D01*
X0170640Y0164600D01*
X0152960Y0164600D01*
X0143386Y0174174D01*
X0142357Y0174600D01*
X0121243Y0174600D01*
X0120214Y0174174D01*
X0114426Y0168386D01*
X0114000Y0167357D01*
X0114000Y0093560D01*
X0113386Y0094174D01*
X0112357Y0094600D01*
X0097960Y0094600D01*
X0096600Y0095960D01*
X0096600Y0098788D01*
X0093788Y0101600D01*
X0089812Y0101600D01*
X0087000Y0098788D01*
X0087000Y0094812D01*
X0089812Y0092000D01*
X0092640Y0092000D01*
X0094426Y0090214D01*
X0095214Y0089426D01*
X0096243Y0089000D01*
X0110640Y0089000D01*
X0112000Y0087640D01*
X0112000Y0085888D01*
X0111288Y0086600D01*
X0107312Y0086600D01*
X0105312Y0084600D01*
X0095788Y0084600D01*
X0093788Y0086600D01*
X0089812Y0086600D01*
X0087000Y0083788D01*
X0087000Y0080960D01*
X0084426Y0078386D01*
X0084000Y0077357D01*
X0084000Y0070788D01*
X0082731Y0069519D01*
X0082000Y0067755D01*
X0082000Y0065845D01*
X0082731Y0064081D01*
X0084081Y0062731D01*
X0085845Y0062000D01*
X0092955Y0062000D01*
X0094719Y0062731D01*
X0096069Y0064081D01*
X0096800Y0065845D01*
X0096800Y0067755D01*
X0096069Y0069519D01*
X0094719Y0070869D01*
X0092955Y0071600D01*
X0089600Y0071600D01*
X0089600Y0075640D01*
X0090960Y0077000D01*
X0093788Y0077000D01*
X0095788Y0079000D01*
X0105312Y0079000D01*
X0107312Y0077000D01*
X0111288Y0077000D01*
X0112000Y0077712D01*
X0112000Y0076800D01*
X0116800Y0076800D01*
X0116800Y0076800D01*
X0116800Y0081600D01*
X0118788Y0081600D01*
X0121600Y0078788D01*
X0121600Y0076800D01*
X0116800Y0076800D01*
X0116800Y0076800D01*
X0116800Y0081600D01*
X0114812Y0081600D01*
X0114100Y0080888D01*
X0114100Y0082712D01*
X0114812Y0082000D01*
X0118788Y0082000D01*
X0121600Y0084812D01*
X0121600Y0088788D01*
X0119600Y0090788D01*
X0119600Y0165640D01*
X0122960Y0169000D01*
X0140640Y0169000D01*
X0149426Y0160214D01*
X0150214Y0159426D01*
X0151243Y0159000D01*
X0172137Y0159000D01*
X0171650Y0157824D01*
X0171650Y0155776D01*
X0172434Y0153883D01*
X0173883Y0152434D01*
X0175413Y0151800D01*
X0173883Y0151166D01*
X0172434Y0149717D01*
X0172385Y0149600D01*
X0160788Y0149600D01*
X0158788Y0151600D01*
X0155960Y0151600D01*
X0143386Y0164174D01*
X0142357Y0164600D01*
X0141215Y0164600D01*
X0141166Y0164717D01*
X0139717Y0166166D01*
X0137824Y0166950D01*
X0135776Y0166950D01*
X0133883Y0166166D01*
X0132434Y0164717D01*
X0131650Y0162824D01*
X0131650Y0160776D01*
X0132434Y0158883D01*
X0133883Y0157434D01*
X0135413Y0156800D01*
X0133883Y0156166D01*
X0132434Y0154717D01*
X0131650Y0152824D01*
X0131650Y0150776D01*
X0132434Y0148883D01*
X0133883Y0147434D01*
X0135461Y0146780D01*
X0134823Y0146573D01*
X0134101Y0146205D01*
X0133445Y0145728D01*
X0132872Y0145155D01*
X0132395Y0144499D01*
X0132027Y0143777D01*
X0131777Y0143006D01*
X0131650Y0142205D01*
X0131650Y0141975D01*
X0136625Y0141975D01*
X0136625Y0141625D01*
X0131650Y0141625D01*
X0131650Y0141395D01*
X0131777Y0140594D01*
X0132027Y0139823D01*
X0132395Y0139101D01*
X0132872Y0138445D01*
X0133445Y0137872D01*
X0134101Y0137395D01*
X0134823Y0137027D01*
X0135061Y0136950D01*
X0132939Y0136950D01*
X0131650Y0135661D01*
X0131650Y0127939D01*
X0132939Y0126650D01*
X0140661Y0126650D01*
X0141950Y0127939D01*
X0141950Y0129000D01*
X0145640Y0129000D01*
X0152000Y0122640D01*
X0152000Y0119812D01*
X0154812Y0117000D01*
X0158788Y0117000D01*
X0160788Y0119000D01*
X0162357Y0119000D01*
X0163386Y0119426D01*
X0171650Y0127690D01*
X0171650Y0125776D01*
X0172434Y0123883D01*
X0173883Y0122434D01*
X0175776Y0121650D01*
X0177824Y0121650D01*
X0179717Y0122434D01*
X0181166Y0123883D01*
X0181950Y0125776D01*
X0181950Y0127824D01*
X0181166Y0129717D01*
X0179717Y0131166D01*
X0178186Y0131800D01*
X0179717Y0132434D01*
X0181166Y0133883D01*
X0181950Y0135776D01*
X0181950Y0137824D01*
X0181166Y0139717D01*
X0179717Y0141166D01*
X0178186Y0141800D01*
X0179717Y0142434D01*
X0181166Y0143883D01*
X0181950Y0145776D01*
X0181950Y0147824D01*
X0181166Y0149717D01*
X0179717Y0151166D01*
X0178186Y0151800D01*
X0179717Y0152434D01*
X0180962Y0153679D01*
X0184000Y0150640D01*
X0184000Y0101243D01*
X0184426Y0100214D01*
X0187000Y0097640D01*
X0187000Y0094812D01*
X0189812Y0092000D01*
X0193788Y0092000D01*
X0195788Y0094000D01*
X0200640Y0094000D01*
X0207000Y0087640D01*
X0207000Y0085888D01*
X0206288Y0086600D01*
X0202312Y0086600D01*
X0200312Y0084600D01*
X0195788Y0084600D01*
X0193788Y0086600D01*
X0189812Y0086600D01*
X0187000Y0083788D01*
X0187000Y0080960D01*
X0184426Y0078386D01*
X0184000Y0077357D01*
X0184000Y0070788D01*
X0182731Y0069519D01*
X0182000Y0067755D01*
X0182000Y0065845D01*
X0182731Y0064081D01*
X0184081Y0062731D01*
X0185845Y0062000D01*
X0192955Y0062000D01*
X0194719Y0062731D01*
X0196069Y0064081D01*
X0196800Y0065845D01*
X0196800Y0067755D01*
X0196069Y0069519D01*
X0194719Y0070869D01*
X0192955Y0071600D01*
X0189600Y0071600D01*
X0189600Y0075640D01*
X0190960Y0077000D01*
X0193788Y0077000D01*
X0195788Y0079000D01*
X0200312Y0079000D01*
X0202312Y0077000D01*
X0206288Y0077000D01*
X0207000Y0077712D01*
X0207000Y0076800D01*
X0211800Y0076800D01*
X0211800Y0076800D01*
X0211800Y0081600D01*
X0213788Y0081600D01*
X0216600Y0078788D01*
X0216600Y0076800D01*
X0211800Y0076800D01*
X0211800Y0076800D01*
X0211800Y0081600D01*
X0209812Y0081600D01*
X0209100Y0080888D01*
X0209100Y0082712D01*
X0209812Y0082000D01*
X0213788Y0082000D01*
X0216600Y0084812D01*
X0216600Y0088040D01*
X0219000Y0085640D01*
X0219000Y0041243D01*
X0219426Y0040214D01*
X0229426Y0030214D01*
X0230214Y0029426D01*
X0231243Y0029000D01*
X0252812Y0029000D01*
X0254812Y0027000D01*
X0258788Y0027000D01*
X0261600Y0029812D01*
X0261600Y0033788D01*
X0258788Y0036600D01*
X0254812Y0036600D01*
X0252812Y0034600D01*
X0232960Y0034600D01*
X0224600Y0042960D01*
X0224600Y0087357D01*
X0224174Y0088386D01*
X0219600Y0092960D01*
X0219600Y0095040D01*
X0229426Y0085214D01*
X0230214Y0084426D01*
X0231243Y0084000D01*
X0252812Y0084000D01*
X0254812Y0082000D01*
X0258788Y0082000D01*
X0261600Y0084812D01*
X0261600Y0088788D01*
X0258788Y0091600D01*
X0254812Y0091600D01*
X0252812Y0089600D01*
X0232960Y0089600D01*
X0224600Y0097960D01*
X0224600Y0132357D01*
X0224174Y0133386D01*
X0223386Y0134174D01*
X0218386Y0139174D01*
X0217357Y0139600D01*
X0211215Y0139600D01*
X0211166Y0139717D01*
X0209717Y0141166D01*
X0208187Y0141800D01*
X0209717Y0142434D01*
X0211166Y0143883D01*
X0211215Y0144000D01*
X0220640Y0144000D01*
X0229426Y0135214D01*
X0230214Y0134426D01*
X0231243Y0134000D01*
X0252357Y0134000D01*
X0253386Y0134426D01*
X0255960Y0137000D01*
X0258788Y0137000D01*
X0261600Y0139812D01*
X0261600Y0143788D01*
X0258788Y0146600D01*
X0254812Y0146600D01*
X0252000Y0143788D01*
X0252000Y0140960D01*
X0250640Y0139600D01*
X0232960Y0139600D01*
X0223386Y0149174D01*
X0222357Y0149600D01*
X0211215Y0149600D01*
X0211166Y0149717D01*
X0209717Y0151166D01*
X0208187Y0151800D01*
X0209717Y0152434D01*
X0211166Y0153883D01*
X0211950Y0155776D01*
X0211950Y0157824D01*
X0211901Y0157942D01*
X0228386Y0174426D01*
X0229174Y0175214D01*
X0229600Y0176243D01*
X0229600Y0180640D01*
X0232960Y0184000D01*
X0247357Y0184000D01*
X0248386Y0184426D01*
X0255960Y0192000D01*
X0258788Y0192000D01*
X0261600Y0194812D01*
X0261600Y0198788D01*
X0258788Y0201600D01*
X0254812Y0201600D01*
X0252000Y0198788D01*
X0252000Y0195960D01*
X0245640Y0189600D01*
X0231243Y0189600D01*
X0230214Y0189174D01*
X0229426Y0188386D01*
X0224600Y0183560D01*
X0224600Y0190640D01*
X0228386Y0194426D01*
X0229174Y0195214D01*
X0229600Y0196243D01*
X0229600Y0230640D01*
X0232960Y0234000D01*
X0247357Y0234000D01*
X0248386Y0234426D01*
X0258386Y0244426D01*
X0259174Y0245214D01*
X0259600Y0246243D01*
X0259600Y0247812D01*
X0261600Y0249812D01*
X0261600Y0253788D01*
X0258788Y0256600D01*
X0254812Y0256600D01*
X0252000Y0253788D01*
X0252000Y0249812D01*
X0253926Y0247886D01*
X0245640Y0239600D01*
X0231243Y0239600D01*
X0230214Y0239174D01*
X0229426Y0238386D01*
X0224600Y0233560D01*
X0224600Y0285640D01*
X0227960Y0289000D01*
X0252212Y0289000D01*
X0252000Y0288788D01*
X0252000Y0284812D01*
X0254812Y0282000D01*
X0258788Y0282000D01*
X0261600Y0284812D01*
X0261600Y0288788D01*
X0258788Y0291600D01*
X0255560Y0291600D01*
X0258386Y0294426D01*
X0259174Y0295214D01*
X0259600Y0296243D01*
X0259600Y0302812D01*
X0261600Y0304812D01*
X0261600Y0308788D01*
X0258788Y0311600D01*
X0254812Y0311600D01*
X0252000Y0308788D01*
X0252000Y0304812D01*
X0254000Y0302812D01*
X0254000Y0297960D01*
X0250640Y0294600D01*
X0226243Y0294600D01*
X0225214Y0294174D01*
X0220214Y0289174D01*
X0219426Y0288386D01*
X0219000Y0287357D01*
X0219000Y0265181D01*
X0217379Y0265181D01*
X0209174Y0273386D01*
X0208386Y0274174D01*
X0207357Y0274600D01*
X0165000Y0274600D01*
X0165000Y0308600D01*
X0177437Y0308600D01*
X0178613Y0309087D01*
X0179513Y0309987D01*
X0188125Y0318600D01*
X0191100Y0318600D01*
X0191100Y0317166D01*
X0191968Y0315071D01*
X0193571Y0313468D01*
X0195666Y0312600D01*
X0197934Y0312600D01*
X0200029Y0313468D01*
X0201632Y0315071D01*
X0202500Y0317166D01*
X0202500Y0326434D01*
X0201632Y0328529D01*
X0200029Y0330132D01*
X0197934Y0331000D01*
X0195666Y0331000D01*
X0193571Y0330132D01*
X0191968Y0328529D01*
X0191100Y0326434D01*
X0191100Y0325000D01*
X0186163Y0325000D01*
X0184987Y0324513D01*
X0182590Y0322116D02*
X0117716Y0322116D01*
X0117800Y0320517D02*
X0180992Y0320517D01*
X0179393Y0318919D02*
X0165247Y0318919D01*
X0166547Y0317320D02*
X0177795Y0317320D01*
X0176196Y0315722D02*
X0167150Y0315722D01*
X0165000Y0307729D02*
X0213600Y0307729D01*
X0213600Y0306131D02*
X0165000Y0306131D01*
X0165000Y0304532D02*
X0213600Y0304532D01*
X0213600Y0302934D02*
X0165000Y0302934D01*
X0165000Y0301335D02*
X0213600Y0301335D01*
X0213600Y0299737D02*
X0165000Y0299737D01*
X0165000Y0298138D02*
X0213600Y0298138D01*
X0213600Y0296539D02*
X0165000Y0296539D01*
X0165000Y0294941D02*
X0213600Y0294941D01*
X0213600Y0293342D02*
X0165000Y0293342D01*
X0165000Y0291744D02*
X0212218Y0291744D01*
X0213600Y0293125D02*
X0208900Y0288425D01*
X0201057Y0288425D01*
X0198622Y0287416D01*
X0196759Y0285553D01*
X0195750Y0283118D01*
X0195750Y0280482D01*
X0196759Y0278047D01*
X0198622Y0276184D01*
X0201057Y0275175D01*
X0212543Y0275175D01*
X0214978Y0276184D01*
X0216841Y0278047D01*
X0217850Y0280482D01*
X0217850Y0283118D01*
X0216841Y0285553D01*
X0215960Y0286434D01*
X0218613Y0289087D01*
X0219513Y0289987D01*
X0220000Y0291163D01*
X0220000Y0313456D01*
X0220029Y0313468D01*
X0221632Y0315071D01*
X0222500Y0317166D01*
X0222500Y0326434D01*
X0221632Y0328529D01*
X0220029Y0330132D01*
X0217934Y0331000D01*
X0215666Y0331000D01*
X0213571Y0330132D01*
X0211968Y0328529D01*
X0211100Y0326434D01*
X0211100Y0317166D01*
X0211968Y0315071D01*
X0213571Y0313468D01*
X0213600Y0313456D01*
X0213600Y0293125D01*
X0210620Y0290145D02*
X0165000Y0290145D01*
X0165000Y0288547D02*
X0209021Y0288547D01*
X0216474Y0286948D02*
X0219000Y0286948D01*
X0219000Y0285350D02*
X0216925Y0285350D01*
X0217588Y0283751D02*
X0219000Y0283751D01*
X0219000Y0282153D02*
X0217850Y0282153D01*
X0217850Y0280554D02*
X0219000Y0280554D01*
X0219000Y0278956D02*
X0217218Y0278956D01*
X0216152Y0277357D02*
X0219000Y0277357D01*
X0219000Y0275759D02*
X0213952Y0275759D01*
X0209998Y0272562D02*
X0219000Y0272562D01*
X0219000Y0274160D02*
X0208399Y0274160D01*
X0211596Y0270963D02*
X0219000Y0270963D01*
X0219000Y0269365D02*
X0213195Y0269365D01*
X0214794Y0267766D02*
X0219000Y0267766D01*
X0219000Y0266168D02*
X0216392Y0266168D01*
X0211669Y0262971D02*
X0171600Y0262971D01*
X0171600Y0263788D02*
X0171600Y0261800D01*
X0166800Y0261800D01*
X0166800Y0261800D01*
X0166800Y0261800D01*
X0166800Y0266600D01*
X0168788Y0266600D01*
X0171600Y0263788D01*
X0170819Y0264569D02*
X0210071Y0264569D01*
X0208472Y0266168D02*
X0169220Y0266168D01*
X0166800Y0266168D02*
X0166800Y0266168D01*
X0166800Y0266600D02*
X0164812Y0266600D01*
X0162000Y0263788D01*
X0162000Y0261800D01*
X0166800Y0261800D01*
X0171600Y0261800D01*
X0171600Y0259812D01*
X0168788Y0257000D01*
X0166800Y0257000D01*
X0166800Y0261800D01*
X0166800Y0261800D01*
X0166800Y0261800D01*
X0166800Y0266600D01*
X0166800Y0264569D02*
X0166800Y0264569D01*
X0166800Y0262971D02*
X0166800Y0262971D01*
X0166800Y0261800D02*
X0162000Y0261800D01*
X0162000Y0259812D01*
X0164812Y0257000D01*
X0166800Y0257000D01*
X0166800Y0261800D01*
X0166800Y0261372D02*
X0166800Y0261372D01*
X0166800Y0259774D02*
X0166800Y0259774D01*
X0166800Y0258175D02*
X0166800Y0258175D01*
X0169963Y0258175D02*
X0219000Y0258175D01*
X0219000Y0256577D02*
X0039757Y0256577D01*
X0039757Y0258175D02*
X0143637Y0258175D01*
X0142038Y0259774D02*
X0039757Y0259774D01*
X0039757Y0261372D02*
X0142000Y0261372D01*
X0142000Y0262971D02*
X0039757Y0262971D01*
X0039757Y0264569D02*
X0142781Y0264569D01*
X0144380Y0266168D02*
X0039757Y0266168D01*
X0039757Y0267766D02*
X0153241Y0267766D01*
X0151642Y0266168D02*
X0149220Y0266168D01*
X0154299Y0259774D02*
X0162038Y0259774D01*
X0162000Y0261372D02*
X0155898Y0261372D01*
X0157496Y0262971D02*
X0162000Y0262971D01*
X0162781Y0264569D02*
X0159095Y0264569D01*
X0160693Y0266168D02*
X0164380Y0266168D01*
X0162292Y0267766D02*
X0206874Y0267766D01*
X0199648Y0275759D02*
X0165000Y0275759D01*
X0165000Y0277357D02*
X0197448Y0277357D01*
X0196382Y0278956D02*
X0165000Y0278956D01*
X0165000Y0280554D02*
X0195750Y0280554D01*
X0195750Y0282153D02*
X0165000Y0282153D01*
X0165000Y0283751D02*
X0196012Y0283751D01*
X0196675Y0285350D02*
X0165000Y0285350D01*
X0165000Y0286948D02*
X0198154Y0286948D01*
X0218072Y0288547D02*
X0219587Y0288547D01*
X0219578Y0290145D02*
X0221186Y0290145D01*
X0220000Y0291744D02*
X0222784Y0291744D01*
X0224383Y0293342D02*
X0220000Y0293342D01*
X0220000Y0294941D02*
X0250981Y0294941D01*
X0252580Y0296539D02*
X0220000Y0296539D01*
X0220000Y0298138D02*
X0233674Y0298138D01*
X0234812Y0297000D02*
X0232000Y0299812D01*
X0232000Y0303788D01*
X0234812Y0306600D01*
X0238788Y0306600D01*
X0239500Y0305888D01*
X0239500Y0307712D01*
X0238788Y0307000D01*
X0236800Y0307000D01*
X0236800Y0311800D01*
X0236800Y0311800D01*
X0236800Y0316600D01*
X0238788Y0316600D01*
X0241600Y0313788D01*
X0241600Y0311800D01*
X0236800Y0311800D01*
X0236800Y0311800D01*
X0236800Y0311800D01*
X0236800Y0311800D01*
X0232000Y0311800D01*
X0232000Y0313788D01*
X0234812Y0316600D01*
X0236800Y0316600D01*
X0236800Y0311800D01*
X0241600Y0311800D01*
X0241600Y0310888D01*
X0242312Y0311600D01*
X0245140Y0311600D01*
X0252714Y0319174D01*
X0253743Y0319600D01*
X0292357Y0319600D01*
X0293386Y0319174D01*
X0299174Y0313386D01*
X0299600Y0312357D01*
X0299600Y0310788D01*
X0301600Y0308788D01*
X0301600Y0304812D01*
X0298788Y0302000D01*
X0294812Y0302000D01*
X0292000Y0304812D01*
X0292000Y0308788D01*
X0293926Y0310714D01*
X0290640Y0314000D01*
X0255460Y0314000D01*
X0249100Y0307640D01*
X0249100Y0304812D01*
X0246288Y0302000D01*
X0242312Y0302000D01*
X0241600Y0302712D01*
X0241600Y0299812D01*
X0238788Y0297000D01*
X0234812Y0297000D01*
X0232075Y0299737D02*
X0220000Y0299737D01*
X0220000Y0301335D02*
X0232000Y0301335D01*
X0232000Y0302934D02*
X0220000Y0302934D01*
X0220000Y0304532D02*
X0232744Y0304532D01*
X0234342Y0306131D02*
X0220000Y0306131D01*
X0220000Y0307729D02*
X0234083Y0307729D01*
X0234812Y0307000D02*
X0232000Y0309812D01*
X0232000Y0311800D01*
X0236800Y0311800D01*
X0236800Y0307000D01*
X0234812Y0307000D01*
X0236800Y0307729D02*
X0236800Y0307729D01*
X0236800Y0309328D02*
X0236800Y0309328D01*
X0236800Y0310926D02*
X0236800Y0310926D01*
X0236800Y0312525D02*
X0236800Y0312525D01*
X0236800Y0314123D02*
X0236800Y0314123D01*
X0236800Y0315722D02*
X0236800Y0315722D01*
X0234812Y0317000D02*
X0238788Y0317000D01*
X0240788Y0319000D01*
X0242357Y0319000D01*
X0243386Y0319426D01*
X0244174Y0320214D01*
X0247960Y0324000D01*
X0252812Y0324000D01*
X0254812Y0322000D01*
X0258788Y0322000D01*
X0261600Y0324812D01*
X0261600Y0328788D01*
X0258788Y0331600D01*
X0254812Y0331600D01*
X0252812Y0329600D01*
X0246243Y0329600D01*
X0245214Y0329174D01*
X0240714Y0324674D01*
X0238788Y0326600D01*
X0234812Y0326600D01*
X0232000Y0323788D01*
X0232000Y0319812D01*
X0234812Y0317000D01*
X0234492Y0317320D02*
X0222500Y0317320D01*
X0222500Y0318919D02*
X0232893Y0318919D01*
X0232000Y0320517D02*
X0222500Y0320517D01*
X0222500Y0322116D02*
X0232000Y0322116D01*
X0232000Y0323714D02*
X0222500Y0323714D01*
X0222500Y0325313D02*
X0233524Y0325313D01*
X0233302Y0328510D02*
X0221640Y0328510D01*
X0222302Y0326911D02*
X0242951Y0326911D01*
X0241353Y0325313D02*
X0240076Y0325313D01*
X0240298Y0328510D02*
X0244550Y0328510D01*
X0241600Y0330108D02*
X0253320Y0330108D01*
X0253098Y0323714D02*
X0247674Y0323714D01*
X0246075Y0322116D02*
X0254696Y0322116D01*
X0252459Y0318919D02*
X0240707Y0318919D01*
X0239108Y0317320D02*
X0250860Y0317320D01*
X0249262Y0315722D02*
X0239667Y0315722D01*
X0241265Y0314123D02*
X0247663Y0314123D01*
X0246065Y0312525D02*
X0241600Y0312525D01*
X0241600Y0310926D02*
X0241638Y0310926D01*
X0239500Y0306131D02*
X0239258Y0306131D01*
X0241600Y0301335D02*
X0254000Y0301335D01*
X0254000Y0299737D02*
X0241525Y0299737D01*
X0239926Y0298138D02*
X0254000Y0298138D01*
X0253878Y0302934D02*
X0247222Y0302934D01*
X0248820Y0304532D02*
X0252280Y0304532D01*
X0252000Y0306131D02*
X0249100Y0306131D01*
X0249189Y0307729D02*
X0252000Y0307729D01*
X0252539Y0309328D02*
X0250787Y0309328D01*
X0252386Y0310926D02*
X0254138Y0310926D01*
X0253984Y0312525D02*
X0292116Y0312525D01*
X0293714Y0310926D02*
X0259462Y0310926D01*
X0261061Y0309328D02*
X0292539Y0309328D01*
X0292000Y0307729D02*
X0261600Y0307729D01*
X0261600Y0306131D02*
X0292000Y0306131D01*
X0292280Y0304532D02*
X0261320Y0304532D01*
X0259722Y0302934D02*
X0293878Y0302934D01*
X0299722Y0302934D02*
X0306278Y0302934D01*
X0306481Y0302731D02*
X0308245Y0302000D01*
X0315355Y0302000D01*
X0317119Y0302731D01*
X0318469Y0304081D01*
X0319200Y0305845D01*
X0319200Y0307755D01*
X0318469Y0309519D01*
X0317119Y0310869D01*
X0315355Y0311600D01*
X0308245Y0311600D01*
X0306481Y0310869D01*
X0305131Y0309519D01*
X0304400Y0307755D01*
X0304400Y0305845D01*
X0305131Y0304081D01*
X0306481Y0302731D01*
X0304944Y0304532D02*
X0301320Y0304532D01*
X0301600Y0306131D02*
X0304400Y0306131D01*
X0304400Y0307729D02*
X0301600Y0307729D01*
X0301061Y0309328D02*
X0305051Y0309328D01*
X0306618Y0310926D02*
X0299600Y0310926D01*
X0299531Y0312525D02*
X0306979Y0312525D01*
X0306481Y0312731D02*
X0308245Y0312000D01*
X0315355Y0312000D01*
X0317119Y0312731D01*
X0318469Y0314081D01*
X0319200Y0315845D01*
X0319200Y0317755D01*
X0318469Y0319519D01*
X0317119Y0320869D01*
X0315355Y0321600D01*
X0308245Y0321600D01*
X0306629Y0320931D01*
X0301600Y0325960D01*
X0301600Y0328788D01*
X0298788Y0331600D01*
X0294812Y0331600D01*
X0292000Y0328788D01*
X0292000Y0324812D01*
X0294812Y0322000D01*
X0297640Y0322000D01*
X0304426Y0315214D01*
X0304828Y0314812D01*
X0305131Y0314081D01*
X0306481Y0312731D01*
X0305113Y0314123D02*
X0298437Y0314123D01*
X0296838Y0315722D02*
X0303919Y0315722D01*
X0302320Y0317320D02*
X0295240Y0317320D01*
X0293641Y0318919D02*
X0300722Y0318919D01*
X0299123Y0320517D02*
X0244477Y0320517D01*
X0241600Y0331707D02*
X0302933Y0331707D01*
X0301335Y0333305D02*
X0241600Y0333305D01*
X0240484Y0334904D02*
X0299736Y0334904D01*
X0298138Y0336502D02*
X0238886Y0336502D01*
X0232000Y0333305D02*
X0164861Y0333305D01*
X0166459Y0331707D02*
X0232000Y0331707D01*
X0232000Y0330108D02*
X0220053Y0330108D01*
X0213547Y0330108D02*
X0200053Y0330108D01*
X0201640Y0328510D02*
X0211960Y0328510D01*
X0211298Y0326911D02*
X0202302Y0326911D01*
X0202500Y0325313D02*
X0211100Y0325313D01*
X0211100Y0323714D02*
X0202500Y0323714D01*
X0202500Y0322116D02*
X0211100Y0322116D01*
X0211100Y0320517D02*
X0202500Y0320517D01*
X0202500Y0318919D02*
X0211100Y0318919D01*
X0211100Y0317320D02*
X0202500Y0317320D01*
X0201902Y0315722D02*
X0211698Y0315722D01*
X0212916Y0314123D02*
X0200684Y0314123D01*
X0192916Y0314123D02*
X0183649Y0314123D01*
X0185247Y0315722D02*
X0191698Y0315722D01*
X0191100Y0317320D02*
X0186846Y0317320D01*
X0182050Y0312525D02*
X0213600Y0312525D01*
X0213600Y0310926D02*
X0180452Y0310926D01*
X0178853Y0309328D02*
X0213600Y0309328D01*
X0220000Y0309328D02*
X0232484Y0309328D01*
X0232000Y0310926D02*
X0220000Y0310926D01*
X0220000Y0312525D02*
X0232000Y0312525D01*
X0232335Y0314123D02*
X0220684Y0314123D01*
X0221902Y0315722D02*
X0233933Y0315722D01*
X0258904Y0322116D02*
X0294696Y0322116D01*
X0293098Y0323714D02*
X0260502Y0323714D01*
X0261600Y0325313D02*
X0292000Y0325313D01*
X0292000Y0326911D02*
X0261600Y0326911D01*
X0261600Y0328510D02*
X0292000Y0328510D01*
X0293320Y0330108D02*
X0260280Y0330108D01*
X0259889Y0338101D02*
X0293711Y0338101D01*
X0294812Y0337000D02*
X0297640Y0337000D01*
X0305128Y0329512D01*
X0304400Y0327755D01*
X0304400Y0325845D01*
X0305131Y0324081D01*
X0306481Y0322731D01*
X0308245Y0322000D01*
X0315355Y0322000D01*
X0317119Y0322731D01*
X0318469Y0324081D01*
X0319200Y0325845D01*
X0319200Y0327755D01*
X0318469Y0329519D01*
X0317119Y0330869D01*
X0315355Y0331600D01*
X0310960Y0331600D01*
X0301600Y0340960D01*
X0301600Y0343788D01*
X0298788Y0346600D01*
X0294812Y0346600D01*
X0292000Y0343788D01*
X0292000Y0339812D01*
X0294812Y0337000D01*
X0292112Y0339699D02*
X0261487Y0339699D01*
X0261600Y0341298D02*
X0292000Y0341298D01*
X0292000Y0342896D02*
X0261600Y0342896D01*
X0260893Y0344495D02*
X0292707Y0344495D01*
X0294305Y0346093D02*
X0259295Y0346093D01*
X0299295Y0346093D02*
X0409521Y0346093D01*
X0409521Y0344495D02*
X0300893Y0344495D01*
X0301600Y0342896D02*
X0409521Y0342896D01*
X0409521Y0341298D02*
X0301600Y0341298D01*
X0302860Y0339699D02*
X0409521Y0339699D01*
X0409521Y0338101D02*
X0304459Y0338101D01*
X0306058Y0336502D02*
X0409521Y0336502D01*
X0409521Y0334904D02*
X0307656Y0334904D01*
X0309255Y0333305D02*
X0409521Y0333305D01*
X0409521Y0331707D02*
X0310853Y0331707D01*
X0304532Y0330108D02*
X0300280Y0330108D01*
X0301600Y0328510D02*
X0304713Y0328510D01*
X0304400Y0326911D02*
X0301600Y0326911D01*
X0302247Y0325313D02*
X0304621Y0325313D01*
X0303846Y0323714D02*
X0305498Y0323714D01*
X0305444Y0322116D02*
X0307966Y0322116D01*
X0315634Y0322116D02*
X0337966Y0322116D01*
X0338245Y0322000D02*
X0336481Y0322731D01*
X0335131Y0324081D01*
X0334400Y0325845D01*
X0334400Y0327755D01*
X0335131Y0329519D01*
X0336481Y0330869D01*
X0338245Y0331600D01*
X0345355Y0331600D01*
X0347119Y0330869D01*
X0347988Y0330000D01*
X0377437Y0330000D01*
X0378613Y0329513D01*
X0380425Y0327700D01*
X0386913Y0327700D01*
X0389155Y0326771D01*
X0390871Y0325055D01*
X0391800Y0322813D01*
X0391800Y0320387D01*
X0390871Y0318145D01*
X0389155Y0316429D01*
X0386913Y0315500D01*
X0376687Y0315500D01*
X0374445Y0316429D01*
X0372729Y0318145D01*
X0371800Y0320387D01*
X0371800Y0322813D01*
X0372126Y0323600D01*
X0347988Y0323600D01*
X0347119Y0322731D01*
X0345355Y0322000D01*
X0338245Y0322000D01*
X0338245Y0321600D02*
X0336481Y0320869D01*
X0335131Y0319519D01*
X0334400Y0317755D01*
X0334400Y0315845D01*
X0335131Y0314081D01*
X0336481Y0312731D01*
X0338245Y0312000D01*
X0345355Y0312000D01*
X0347119Y0312731D01*
X0348469Y0314081D01*
X0349200Y0315845D01*
X0349200Y0317755D01*
X0348469Y0319519D01*
X0347119Y0320869D01*
X0345355Y0321600D01*
X0338245Y0321600D01*
X0336129Y0320517D02*
X0317471Y0320517D01*
X0318718Y0318919D02*
X0334882Y0318919D01*
X0334400Y0317320D02*
X0319200Y0317320D01*
X0319149Y0315722D02*
X0334451Y0315722D01*
X0335113Y0314123D02*
X0318487Y0314123D01*
X0316621Y0312525D02*
X0336979Y0312525D01*
X0338245Y0311600D02*
X0336481Y0310869D01*
X0335131Y0309519D01*
X0334400Y0307755D01*
X0334400Y0305845D01*
X0335131Y0304081D01*
X0336481Y0302731D01*
X0338245Y0302000D01*
X0345355Y0302000D01*
X0347119Y0302731D01*
X0347988Y0303600D01*
X0372002Y0303600D01*
X0371800Y0303113D01*
X0371800Y0300687D01*
X0372729Y0298445D01*
X0374445Y0296729D01*
X0376687Y0295800D01*
X0386913Y0295800D01*
X0389155Y0296729D01*
X0390871Y0298445D01*
X0391800Y0300687D01*
X0391800Y0303113D01*
X0390871Y0305355D01*
X0389155Y0307071D01*
X0386913Y0308000D01*
X0380225Y0308000D01*
X0378713Y0309513D01*
X0377537Y0310000D01*
X0347988Y0310000D01*
X0347119Y0310869D01*
X0345355Y0311600D01*
X0338245Y0311600D01*
X0336618Y0310926D02*
X0316982Y0310926D01*
X0318549Y0309328D02*
X0335051Y0309328D01*
X0334400Y0307729D02*
X0319200Y0307729D01*
X0319200Y0306131D02*
X0334400Y0306131D01*
X0334944Y0304532D02*
X0318656Y0304532D01*
X0317322Y0302934D02*
X0336278Y0302934D01*
X0346621Y0312525D02*
X0409521Y0312525D01*
X0409521Y0314123D02*
X0348487Y0314123D01*
X0349149Y0315722D02*
X0376152Y0315722D01*
X0373553Y0317320D02*
X0349200Y0317320D01*
X0348718Y0318919D02*
X0372408Y0318919D01*
X0371800Y0320517D02*
X0347471Y0320517D01*
X0345634Y0322116D02*
X0371800Y0322116D01*
X0379616Y0328510D02*
X0409521Y0328510D01*
X0409521Y0330108D02*
X0347880Y0330108D01*
X0335720Y0330108D02*
X0317880Y0330108D01*
X0318887Y0328510D02*
X0334713Y0328510D01*
X0334400Y0326911D02*
X0319200Y0326911D01*
X0318979Y0325313D02*
X0334621Y0325313D01*
X0335498Y0323714D02*
X0318102Y0323714D01*
X0346982Y0310926D02*
X0409521Y0310926D01*
X0409521Y0309328D02*
X0378898Y0309328D01*
X0387567Y0307729D02*
X0409521Y0307729D01*
X0409521Y0306131D02*
X0390096Y0306131D01*
X0391212Y0304532D02*
X0409521Y0304532D01*
X0409521Y0302934D02*
X0391800Y0302934D01*
X0391800Y0301335D02*
X0409521Y0301335D01*
X0409521Y0299737D02*
X0391406Y0299737D01*
X0390565Y0298138D02*
X0409521Y0298138D01*
X0409521Y0296539D02*
X0388699Y0296539D01*
X0374901Y0296539D02*
X0259600Y0296539D01*
X0259600Y0298138D02*
X0373035Y0298138D01*
X0372194Y0299737D02*
X0259600Y0299737D01*
X0259600Y0301335D02*
X0371800Y0301335D01*
X0371800Y0302934D02*
X0347322Y0302934D01*
X0345355Y0281600D02*
X0338245Y0281600D01*
X0336481Y0280869D01*
X0335131Y0279519D01*
X0334400Y0277755D01*
X0334400Y0275845D01*
X0335131Y0274081D01*
X0336481Y0272731D01*
X0338245Y0272000D01*
X0345355Y0272000D01*
X0347119Y0272731D01*
X0347988Y0273600D01*
X0372126Y0273600D01*
X0371800Y0272813D01*
X0371800Y0270387D01*
X0372729Y0268145D01*
X0374445Y0266429D01*
X0376687Y0265500D01*
X0386913Y0265500D01*
X0389155Y0266429D01*
X0390871Y0268145D01*
X0391800Y0270387D01*
X0391800Y0272813D01*
X0390871Y0275055D01*
X0389155Y0276771D01*
X0386913Y0277700D01*
X0380225Y0277700D01*
X0378413Y0279513D01*
X0377237Y0280000D01*
X0347988Y0280000D01*
X0347119Y0280869D01*
X0345355Y0281600D01*
X0347434Y0280554D02*
X0409521Y0280554D01*
X0409521Y0278956D02*
X0378970Y0278956D01*
X0387741Y0277357D02*
X0409521Y0277357D01*
X0409521Y0275759D02*
X0390168Y0275759D01*
X0391242Y0274160D02*
X0409521Y0274160D01*
X0409521Y0272562D02*
X0391800Y0272562D01*
X0391800Y0270963D02*
X0409521Y0270963D01*
X0409521Y0269365D02*
X0391377Y0269365D01*
X0390493Y0267766D02*
X0409521Y0267766D01*
X0409521Y0266168D02*
X0388525Y0266168D01*
X0386913Y0258000D02*
X0380225Y0258000D01*
X0378713Y0259513D01*
X0377537Y0260000D01*
X0347988Y0260000D01*
X0347119Y0260869D01*
X0345355Y0261600D01*
X0338245Y0261600D01*
X0336481Y0260869D01*
X0335131Y0259519D01*
X0334400Y0257755D01*
X0334400Y0255845D01*
X0335131Y0254081D01*
X0336481Y0252731D01*
X0338245Y0252000D01*
X0345355Y0252000D01*
X0347119Y0252731D01*
X0347988Y0253600D01*
X0372002Y0253600D01*
X0371800Y0253113D01*
X0371800Y0250687D01*
X0372729Y0248445D01*
X0374445Y0246729D01*
X0376687Y0245800D01*
X0386913Y0245800D01*
X0389155Y0246729D01*
X0390871Y0248445D01*
X0391800Y0250687D01*
X0391800Y0253113D01*
X0390871Y0255355D01*
X0389155Y0257071D01*
X0386913Y0258000D01*
X0389650Y0256577D02*
X0409521Y0256577D01*
X0409521Y0258175D02*
X0380050Y0258175D01*
X0378083Y0259774D02*
X0409521Y0259774D01*
X0409521Y0261372D02*
X0345905Y0261372D01*
X0345355Y0262000D02*
X0347119Y0262731D01*
X0348469Y0264081D01*
X0349200Y0265845D01*
X0349200Y0267755D01*
X0348469Y0269519D01*
X0347119Y0270869D01*
X0345355Y0271600D01*
X0338245Y0271600D01*
X0336481Y0270869D01*
X0335131Y0269519D01*
X0334400Y0267755D01*
X0334400Y0265845D01*
X0335131Y0264081D01*
X0336481Y0262731D01*
X0338245Y0262000D01*
X0345355Y0262000D01*
X0347359Y0262971D02*
X0409521Y0262971D01*
X0409521Y0264569D02*
X0348671Y0264569D01*
X0349200Y0266168D02*
X0375074Y0266168D01*
X0373107Y0267766D02*
X0349195Y0267766D01*
X0348533Y0269365D02*
X0372223Y0269365D01*
X0371800Y0270963D02*
X0346892Y0270963D01*
X0346711Y0272562D02*
X0371800Y0272562D01*
X0371910Y0253380D02*
X0347768Y0253380D01*
X0335832Y0253380D02*
X0317768Y0253380D01*
X0317119Y0252731D02*
X0318469Y0254081D01*
X0319200Y0255845D01*
X0319200Y0257755D01*
X0318469Y0259519D01*
X0317119Y0260869D01*
X0315355Y0261600D01*
X0308245Y0261600D01*
X0306481Y0260869D01*
X0305131Y0259519D01*
X0304400Y0257755D01*
X0304400Y0255845D01*
X0305131Y0254081D01*
X0306481Y0252731D01*
X0308245Y0252000D01*
X0315355Y0252000D01*
X0317119Y0252731D01*
X0318841Y0254978D02*
X0334759Y0254978D01*
X0334400Y0256577D02*
X0319200Y0256577D01*
X0319026Y0258175D02*
X0334574Y0258175D01*
X0335386Y0259774D02*
X0318214Y0259774D01*
X0315905Y0261372D02*
X0337695Y0261372D01*
X0336241Y0262971D02*
X0317359Y0262971D01*
X0317119Y0262731D02*
X0318469Y0264081D01*
X0319200Y0265845D01*
X0319200Y0267755D01*
X0318469Y0269519D01*
X0317119Y0270869D01*
X0315355Y0271600D01*
X0308245Y0271600D01*
X0306629Y0270931D01*
X0303386Y0274174D01*
X0302357Y0274600D01*
X0300788Y0274600D01*
X0298788Y0276600D01*
X0294812Y0276600D01*
X0292000Y0273788D01*
X0292000Y0269812D01*
X0294812Y0267000D01*
X0298788Y0267000D01*
X0300714Y0268926D01*
X0304426Y0265214D01*
X0304828Y0264812D01*
X0305131Y0264081D01*
X0306481Y0262731D01*
X0308245Y0262000D01*
X0315355Y0262000D01*
X0317119Y0262731D01*
X0318671Y0264569D02*
X0334929Y0264569D01*
X0334400Y0266168D02*
X0319200Y0266168D01*
X0319195Y0267766D02*
X0334405Y0267766D01*
X0335067Y0269365D02*
X0318533Y0269365D01*
X0316892Y0270963D02*
X0336708Y0270963D01*
X0336889Y0272562D02*
X0316711Y0272562D01*
X0317119Y0272731D02*
X0318469Y0274081D01*
X0319200Y0275845D01*
X0319200Y0277755D01*
X0318469Y0279519D01*
X0317119Y0280869D01*
X0315355Y0281600D01*
X0310960Y0281600D01*
X0303386Y0289174D01*
X0302357Y0289600D01*
X0300788Y0289600D01*
X0298788Y0291600D01*
X0294812Y0291600D01*
X0292000Y0288788D01*
X0292000Y0284812D01*
X0294812Y0282000D01*
X0298788Y0282000D01*
X0300714Y0283926D01*
X0305128Y0279512D01*
X0304400Y0277755D01*
X0304400Y0275845D01*
X0305131Y0274081D01*
X0306481Y0272731D01*
X0308245Y0272000D01*
X0315355Y0272000D01*
X0317119Y0272731D01*
X0318502Y0274160D02*
X0335098Y0274160D01*
X0334436Y0275759D02*
X0319164Y0275759D01*
X0319200Y0277357D02*
X0334400Y0277357D01*
X0334898Y0278956D02*
X0318702Y0278956D01*
X0317434Y0280554D02*
X0336166Y0280554D01*
X0310407Y0282153D02*
X0409521Y0282153D01*
X0409521Y0283751D02*
X0308808Y0283751D01*
X0307210Y0285350D02*
X0409521Y0285350D01*
X0409521Y0286948D02*
X0305611Y0286948D01*
X0304013Y0288547D02*
X0409521Y0288547D01*
X0409521Y0290145D02*
X0300243Y0290145D01*
X0300540Y0283751D02*
X0300889Y0283751D01*
X0302487Y0282153D02*
X0298941Y0282153D01*
X0294659Y0282153D02*
X0258941Y0282153D01*
X0260540Y0283751D02*
X0293060Y0283751D01*
X0292000Y0285350D02*
X0261600Y0285350D01*
X0261600Y0286948D02*
X0292000Y0286948D01*
X0292000Y0288547D02*
X0261600Y0288547D01*
X0260243Y0290145D02*
X0293357Y0290145D01*
X0304086Y0280554D02*
X0239834Y0280554D01*
X0238788Y0281600D02*
X0234812Y0281600D01*
X0232000Y0278788D01*
X0232000Y0274812D01*
X0234812Y0272000D01*
X0238788Y0272000D01*
X0241600Y0274812D01*
X0241600Y0278788D01*
X0238788Y0281600D01*
X0241432Y0278956D02*
X0304898Y0278956D01*
X0304400Y0277357D02*
X0241600Y0277357D01*
X0241600Y0275759D02*
X0253971Y0275759D01*
X0254812Y0276600D02*
X0252812Y0274600D01*
X0246243Y0274600D01*
X0245214Y0274174D01*
X0240714Y0269674D01*
X0238788Y0271600D01*
X0234812Y0271600D01*
X0232000Y0268788D01*
X0232000Y0264812D01*
X0234812Y0262000D01*
X0238788Y0262000D01*
X0240788Y0264000D01*
X0242357Y0264000D01*
X0243386Y0264426D01*
X0244174Y0265214D01*
X0247960Y0269000D01*
X0252812Y0269000D01*
X0254812Y0267000D01*
X0258788Y0267000D01*
X0261600Y0269812D01*
X0261600Y0273788D01*
X0258788Y0276600D01*
X0254812Y0276600D01*
X0259629Y0275759D02*
X0293971Y0275759D01*
X0292372Y0274160D02*
X0261228Y0274160D01*
X0261600Y0272562D02*
X0292000Y0272562D01*
X0292000Y0270963D02*
X0261600Y0270963D01*
X0261153Y0269365D02*
X0292447Y0269365D01*
X0294045Y0267766D02*
X0259554Y0267766D01*
X0254045Y0267766D02*
X0246726Y0267766D01*
X0245128Y0266168D02*
X0303472Y0266168D01*
X0304929Y0264569D02*
X0292431Y0264569D01*
X0292357Y0264600D02*
X0253743Y0264600D01*
X0252714Y0264174D01*
X0245140Y0256600D01*
X0242312Y0256600D01*
X0241600Y0255888D01*
X0241600Y0256800D01*
X0241600Y0258788D01*
X0238788Y0261600D01*
X0236800Y0261600D01*
X0236800Y0256800D01*
X0236800Y0256800D01*
X0241600Y0256800D01*
X0236800Y0256800D01*
X0236800Y0256800D01*
X0236800Y0256800D01*
X0232000Y0256800D01*
X0232000Y0258788D01*
X0234812Y0261600D01*
X0236800Y0261600D01*
X0236800Y0256800D01*
X0236800Y0252000D01*
X0238788Y0252000D01*
X0239500Y0252712D01*
X0239500Y0250888D01*
X0238788Y0251600D01*
X0234812Y0251600D01*
X0232000Y0248788D01*
X0232000Y0244812D01*
X0234812Y0242000D01*
X0238788Y0242000D01*
X0241600Y0244812D01*
X0241600Y0247712D01*
X0242312Y0247000D01*
X0246288Y0247000D01*
X0249100Y0249812D01*
X0249100Y0252640D01*
X0255460Y0259000D01*
X0290640Y0259000D01*
X0293926Y0255714D01*
X0292000Y0253788D01*
X0292000Y0249812D01*
X0294812Y0247000D01*
X0298788Y0247000D01*
X0301600Y0249812D01*
X0301600Y0253788D01*
X0299600Y0255788D01*
X0299600Y0257357D01*
X0299174Y0258386D01*
X0294174Y0263386D01*
X0293386Y0264174D01*
X0292357Y0264600D01*
X0294589Y0262971D02*
X0306241Y0262971D01*
X0307695Y0261372D02*
X0296188Y0261372D01*
X0297786Y0259774D02*
X0305386Y0259774D01*
X0304574Y0258175D02*
X0299261Y0258175D01*
X0299600Y0256577D02*
X0304400Y0256577D01*
X0304759Y0254978D02*
X0300410Y0254978D01*
X0301600Y0253380D02*
X0305832Y0253380D01*
X0301600Y0251781D02*
X0371800Y0251781D01*
X0372009Y0250183D02*
X0301600Y0250183D01*
X0300372Y0248584D02*
X0372671Y0248584D01*
X0374188Y0246986D02*
X0259600Y0246986D01*
X0259245Y0245387D02*
X0409521Y0245387D01*
X0409521Y0243789D02*
X0257748Y0243789D01*
X0256150Y0242190D02*
X0409521Y0242190D01*
X0409521Y0240592D02*
X0254551Y0240592D01*
X0252953Y0238993D02*
X0409521Y0238993D01*
X0409521Y0237395D02*
X0251354Y0237395D01*
X0249756Y0235796D02*
X0254008Y0235796D01*
X0254812Y0236600D02*
X0252000Y0233788D01*
X0252000Y0229812D01*
X0254812Y0227000D01*
X0258788Y0227000D01*
X0261600Y0229812D01*
X0261600Y0233788D01*
X0258788Y0236600D01*
X0254812Y0236600D01*
X0252409Y0234198D02*
X0247834Y0234198D01*
X0252000Y0232599D02*
X0231559Y0232599D01*
X0229960Y0231001D02*
X0234212Y0231001D01*
X0234812Y0231600D02*
X0232000Y0228788D01*
X0232000Y0224812D01*
X0234812Y0222000D01*
X0238788Y0222000D01*
X0241600Y0224812D01*
X0241600Y0228788D01*
X0238788Y0231600D01*
X0234812Y0231600D01*
X0232614Y0229402D02*
X0229600Y0229402D01*
X0229600Y0227803D02*
X0232000Y0227803D01*
X0232000Y0226205D02*
X0229600Y0226205D01*
X0229600Y0224606D02*
X0232205Y0224606D01*
X0233804Y0223008D02*
X0229600Y0223008D01*
X0229600Y0221409D02*
X0234621Y0221409D01*
X0234812Y0221600D02*
X0232000Y0218788D01*
X0232000Y0214812D01*
X0234812Y0212000D01*
X0238788Y0212000D01*
X0240788Y0214000D01*
X0252812Y0214000D01*
X0254812Y0212000D01*
X0258788Y0212000D01*
X0261600Y0214812D01*
X0261600Y0218788D01*
X0258788Y0221600D01*
X0254812Y0221600D01*
X0252812Y0219600D01*
X0240788Y0219600D01*
X0238788Y0221600D01*
X0234812Y0221600D01*
X0233023Y0219811D02*
X0229600Y0219811D01*
X0229600Y0218212D02*
X0232000Y0218212D01*
X0232000Y0216614D02*
X0229600Y0216614D01*
X0229600Y0215015D02*
X0232000Y0215015D01*
X0233395Y0213417D02*
X0229600Y0213417D01*
X0229600Y0211818D02*
X0297822Y0211818D01*
X0297640Y0212000D02*
X0299426Y0210214D01*
X0300214Y0209426D01*
X0301243Y0209000D01*
X0305212Y0209000D01*
X0306481Y0207731D01*
X0308245Y0207000D01*
X0315355Y0207000D01*
X0317119Y0207731D01*
X0318469Y0209081D01*
X0319200Y0210845D01*
X0319200Y0212755D01*
X0318469Y0214519D01*
X0317119Y0215869D01*
X0315355Y0216600D01*
X0308245Y0216600D01*
X0306481Y0215869D01*
X0305212Y0214600D01*
X0302960Y0214600D01*
X0301600Y0215960D01*
X0301600Y0218788D01*
X0298788Y0221600D01*
X0294812Y0221600D01*
X0292000Y0218788D01*
X0292000Y0214812D01*
X0294812Y0212000D01*
X0297640Y0212000D01*
X0299420Y0210220D02*
X0240168Y0210220D01*
X0238788Y0211600D02*
X0241600Y0208788D01*
X0241600Y0206800D01*
X0236800Y0206800D01*
X0236800Y0206800D01*
X0236800Y0211600D01*
X0238788Y0211600D01*
X0236800Y0211600D02*
X0234812Y0211600D01*
X0232000Y0208788D01*
X0232000Y0206800D01*
X0236800Y0206800D01*
X0236800Y0206800D01*
X0236800Y0202000D01*
X0238788Y0202000D01*
X0239500Y0202712D01*
X0239500Y0200888D01*
X0238788Y0201600D01*
X0234812Y0201600D01*
X0232000Y0198788D01*
X0232000Y0194812D01*
X0234812Y0192000D01*
X0238788Y0192000D01*
X0241600Y0194812D01*
X0241600Y0197712D01*
X0242312Y0197000D01*
X0246288Y0197000D01*
X0249100Y0199812D01*
X0249100Y0200140D01*
X0252960Y0204000D01*
X0285640Y0204000D01*
X0292000Y0197640D01*
X0292000Y0194812D01*
X0294812Y0192000D01*
X0298788Y0192000D01*
X0301600Y0194812D01*
X0301600Y0198788D01*
X0298788Y0201600D01*
X0295960Y0201600D01*
X0288386Y0209174D01*
X0287357Y0209600D01*
X0251243Y0209600D01*
X0250214Y0209174D01*
X0249426Y0208386D01*
X0246964Y0205924D01*
X0246288Y0206600D01*
X0242312Y0206600D01*
X0241600Y0205888D01*
X0241600Y0206800D01*
X0236800Y0206800D01*
X0236800Y0206800D01*
X0236800Y0206800D01*
X0236800Y0211600D01*
X0236800Y0210220D02*
X0236800Y0210220D01*
X0236800Y0208621D02*
X0236800Y0208621D01*
X0236800Y0207023D02*
X0236800Y0207023D01*
X0236800Y0206800D02*
X0232000Y0206800D01*
X0232000Y0204812D01*
X0234812Y0202000D01*
X0236800Y0202000D01*
X0236800Y0206800D01*
X0236800Y0205424D02*
X0236800Y0205424D01*
X0236800Y0203826D02*
X0236800Y0203826D01*
X0236800Y0202227D02*
X0236800Y0202227D01*
X0239016Y0202227D02*
X0239500Y0202227D01*
X0234584Y0202227D02*
X0229600Y0202227D01*
X0229600Y0200629D02*
X0233841Y0200629D01*
X0232242Y0199030D02*
X0229600Y0199030D01*
X0229600Y0197432D02*
X0232000Y0197432D01*
X0232000Y0195833D02*
X0229430Y0195833D01*
X0228195Y0194235D02*
X0232577Y0194235D01*
X0234176Y0192636D02*
X0226596Y0192636D01*
X0224998Y0191038D02*
X0247078Y0191038D01*
X0248676Y0192636D02*
X0239424Y0192636D01*
X0241023Y0194235D02*
X0250275Y0194235D01*
X0251873Y0195833D02*
X0241600Y0195833D01*
X0241600Y0197432D02*
X0241880Y0197432D01*
X0246720Y0197432D02*
X0252000Y0197432D01*
X0252242Y0199030D02*
X0248319Y0199030D01*
X0249589Y0200629D02*
X0253841Y0200629D01*
X0251187Y0202227D02*
X0287413Y0202227D01*
X0289011Y0200629D02*
X0259759Y0200629D01*
X0261358Y0199030D02*
X0290610Y0199030D01*
X0292000Y0197432D02*
X0261600Y0197432D01*
X0261600Y0195833D02*
X0292000Y0195833D01*
X0292577Y0194235D02*
X0261023Y0194235D01*
X0259424Y0192636D02*
X0294176Y0192636D01*
X0299424Y0192636D02*
X0409521Y0192636D01*
X0409521Y0191038D02*
X0254998Y0191038D01*
X0253399Y0189439D02*
X0409521Y0189439D01*
X0409521Y0187841D02*
X0251801Y0187841D01*
X0250202Y0186242D02*
X0409521Y0186242D01*
X0409521Y0184644D02*
X0248603Y0184644D01*
X0253060Y0179848D02*
X0240540Y0179848D01*
X0241600Y0178788D02*
X0238788Y0181600D01*
X0234812Y0181600D01*
X0232000Y0178788D01*
X0232000Y0174812D01*
X0234812Y0172000D01*
X0238788Y0172000D01*
X0241600Y0174812D01*
X0241600Y0178788D01*
X0241600Y0178250D02*
X0252000Y0178250D01*
X0252000Y0178788D02*
X0252000Y0174812D01*
X0254812Y0172000D01*
X0258788Y0172000D01*
X0261600Y0174812D01*
X0261600Y0178788D01*
X0258788Y0181600D01*
X0254812Y0181600D01*
X0252000Y0178788D01*
X0252000Y0176651D02*
X0241600Y0176651D01*
X0241600Y0175053D02*
X0252000Y0175053D01*
X0253358Y0173454D02*
X0240242Y0173454D01*
X0238788Y0171600D02*
X0234812Y0171600D01*
X0232000Y0168788D01*
X0232000Y0164812D01*
X0234812Y0162000D01*
X0238788Y0162000D01*
X0240788Y0164000D01*
X0250640Y0164000D01*
X0252000Y0162640D01*
X0252000Y0159812D01*
X0254812Y0157000D01*
X0258788Y0157000D01*
X0261600Y0159812D01*
X0261600Y0163788D01*
X0258788Y0166600D01*
X0255960Y0166600D01*
X0253386Y0169174D01*
X0252357Y0169600D01*
X0240788Y0169600D01*
X0238788Y0171600D01*
X0240131Y0170257D02*
X0304644Y0170257D01*
X0304400Y0170845D02*
X0305131Y0169081D01*
X0306481Y0167731D01*
X0308245Y0167000D01*
X0315355Y0167000D01*
X0317119Y0167731D01*
X0318469Y0169081D01*
X0319200Y0170845D01*
X0319200Y0172755D01*
X0318469Y0174519D01*
X0317119Y0175869D01*
X0315355Y0176600D01*
X0310960Y0176600D01*
X0308386Y0179174D01*
X0307357Y0179600D01*
X0300788Y0179600D01*
X0298788Y0181600D01*
X0294812Y0181600D01*
X0292000Y0178788D01*
X0292000Y0174812D01*
X0294812Y0172000D01*
X0298788Y0172000D01*
X0300788Y0174000D01*
X0304916Y0174000D01*
X0304400Y0172755D01*
X0304400Y0170845D01*
X0304400Y0171856D02*
X0225815Y0171856D01*
X0227414Y0173454D02*
X0233358Y0173454D01*
X0232000Y0175053D02*
X0229012Y0175053D01*
X0229600Y0176651D02*
X0232000Y0176651D01*
X0232000Y0178250D02*
X0229600Y0178250D01*
X0229600Y0179848D02*
X0233060Y0179848D01*
X0234658Y0181447D02*
X0230406Y0181447D01*
X0232005Y0183045D02*
X0409521Y0183045D01*
X0409521Y0181447D02*
X0298942Y0181447D01*
X0300540Y0179848D02*
X0409521Y0179848D01*
X0409521Y0178250D02*
X0309310Y0178250D01*
X0310909Y0176651D02*
X0374324Y0176651D01*
X0374445Y0176771D02*
X0372729Y0175055D01*
X0372706Y0175000D01*
X0347988Y0175000D01*
X0347119Y0175869D01*
X0345355Y0176600D01*
X0338245Y0176600D01*
X0336481Y0175869D01*
X0335131Y0174519D01*
X0334400Y0172755D01*
X0334400Y0170845D01*
X0335131Y0169081D01*
X0336481Y0167731D01*
X0338245Y0167000D01*
X0345355Y0167000D01*
X0347119Y0167731D01*
X0347988Y0168600D01*
X0372540Y0168600D01*
X0372729Y0168145D01*
X0374445Y0166429D01*
X0376687Y0165500D01*
X0386913Y0165500D01*
X0389155Y0166429D01*
X0390871Y0168145D01*
X0391800Y0170387D01*
X0391800Y0172813D01*
X0390871Y0175055D01*
X0389155Y0176771D01*
X0386913Y0177700D01*
X0376687Y0177700D01*
X0374445Y0176771D01*
X0372728Y0175053D02*
X0347936Y0175053D01*
X0345500Y0167060D02*
X0373813Y0167060D01*
X0376687Y0158000D02*
X0374445Y0157071D01*
X0372729Y0155355D01*
X0372581Y0155000D01*
X0347988Y0155000D01*
X0347119Y0155869D01*
X0345355Y0156600D01*
X0338245Y0156600D01*
X0336481Y0155869D01*
X0335131Y0154519D01*
X0334400Y0152755D01*
X0334400Y0150845D01*
X0335131Y0149081D01*
X0336481Y0147731D01*
X0338245Y0147000D01*
X0345355Y0147000D01*
X0347119Y0147731D01*
X0347988Y0148600D01*
X0372664Y0148600D01*
X0372729Y0148445D01*
X0374445Y0146729D01*
X0376687Y0145800D01*
X0386913Y0145800D01*
X0389155Y0146729D01*
X0390871Y0148445D01*
X0391800Y0150687D01*
X0391800Y0153113D01*
X0390871Y0155355D01*
X0389155Y0157071D01*
X0386913Y0158000D01*
X0376687Y0158000D01*
X0375405Y0157469D02*
X0346487Y0157469D01*
X0347119Y0157731D02*
X0345355Y0157000D01*
X0338245Y0157000D01*
X0336481Y0157731D01*
X0335131Y0159081D01*
X0334400Y0160845D01*
X0334400Y0162755D01*
X0335131Y0164519D01*
X0336481Y0165869D01*
X0338245Y0166600D01*
X0345355Y0166600D01*
X0347119Y0165869D01*
X0348469Y0164519D01*
X0349200Y0162755D01*
X0349200Y0160845D01*
X0348469Y0159081D01*
X0347119Y0157731D01*
X0347116Y0155870D02*
X0373244Y0155870D01*
X0373295Y0147878D02*
X0347266Y0147878D01*
X0348456Y0159068D02*
X0409521Y0159068D01*
X0409521Y0160666D02*
X0349126Y0160666D01*
X0349200Y0162265D02*
X0409521Y0162265D01*
X0409521Y0163863D02*
X0348741Y0163863D01*
X0347527Y0165462D02*
X0409521Y0165462D01*
X0409521Y0167060D02*
X0389787Y0167060D01*
X0391084Y0168659D02*
X0409521Y0168659D01*
X0409521Y0170257D02*
X0391746Y0170257D01*
X0391800Y0171856D02*
X0409521Y0171856D01*
X0409521Y0173454D02*
X0391535Y0173454D01*
X0390872Y0175053D02*
X0409521Y0175053D01*
X0409521Y0176651D02*
X0389276Y0176651D01*
X0388195Y0157469D02*
X0409521Y0157469D01*
X0409521Y0155870D02*
X0390356Y0155870D01*
X0391320Y0154272D02*
X0409521Y0154272D01*
X0409521Y0152673D02*
X0391800Y0152673D01*
X0391800Y0151075D02*
X0409521Y0151075D01*
X0409521Y0149476D02*
X0391299Y0149476D01*
X0390305Y0147878D02*
X0409521Y0147878D01*
X0409521Y0146279D02*
X0388071Y0146279D01*
X0375529Y0146279D02*
X0299109Y0146279D01*
X0298788Y0146600D02*
X0295960Y0146600D01*
X0288386Y0154174D01*
X0287357Y0154600D01*
X0248288Y0154600D01*
X0246288Y0156600D01*
X0242312Y0156600D01*
X0241600Y0155888D01*
X0241600Y0156800D01*
X0241600Y0158788D01*
X0238788Y0161600D01*
X0236800Y0161600D01*
X0236800Y0156800D01*
X0236800Y0156800D01*
X0241600Y0156800D01*
X0236800Y0156800D01*
X0236800Y0156800D01*
X0236800Y0156800D01*
X0232000Y0156800D01*
X0232000Y0158788D01*
X0234812Y0161600D01*
X0236800Y0161600D01*
X0236800Y0156800D01*
X0236800Y0152000D01*
X0238788Y0152000D01*
X0239500Y0152712D01*
X0239500Y0150888D01*
X0238788Y0151600D01*
X0234812Y0151600D01*
X0232000Y0148788D01*
X0232000Y0144812D01*
X0234812Y0142000D01*
X0238788Y0142000D01*
X0241600Y0144812D01*
X0241600Y0147712D01*
X0242312Y0147000D01*
X0246288Y0147000D01*
X0248288Y0149000D01*
X0285640Y0149000D01*
X0292000Y0142640D01*
X0292000Y0139812D01*
X0294812Y0137000D01*
X0298788Y0137000D01*
X0301600Y0139812D01*
X0301600Y0143788D01*
X0298788Y0146600D01*
X0300707Y0144681D02*
X0409521Y0144681D01*
X0409521Y0143082D02*
X0301600Y0143082D01*
X0301600Y0141484D02*
X0409521Y0141484D01*
X0409521Y0139885D02*
X0301600Y0139885D01*
X0300075Y0138287D02*
X0409521Y0138287D01*
X0409521Y0136688D02*
X0255648Y0136688D01*
X0254050Y0135090D02*
X0409521Y0135090D01*
X0409521Y0133491D02*
X0224068Y0133491D01*
X0224600Y0131893D02*
X0409521Y0131893D01*
X0409521Y0130294D02*
X0240094Y0130294D01*
X0238788Y0131600D02*
X0234812Y0131600D01*
X0232000Y0128788D01*
X0232000Y0124812D01*
X0234812Y0122000D01*
X0238788Y0122000D01*
X0241600Y0124812D01*
X0241600Y0128788D01*
X0238788Y0131600D01*
X0241600Y0128696D02*
X0409521Y0128696D01*
X0409521Y0127097D02*
X0388368Y0127097D01*
X0389155Y0126771D02*
X0386913Y0127700D01*
X0376687Y0127700D01*
X0374445Y0126771D01*
X0372729Y0125055D01*
X0372706Y0125000D01*
X0347988Y0125000D01*
X0347119Y0125869D01*
X0345355Y0126600D01*
X0338245Y0126600D01*
X0336481Y0125869D01*
X0335131Y0124519D01*
X0334400Y0122755D01*
X0334400Y0120845D01*
X0335131Y0119081D01*
X0336481Y0117731D01*
X0338245Y0117000D01*
X0345355Y0117000D01*
X0347119Y0117731D01*
X0347988Y0118600D01*
X0372540Y0118600D01*
X0372729Y0118145D01*
X0374445Y0116429D01*
X0376687Y0115500D01*
X0386913Y0115500D01*
X0389155Y0116429D01*
X0390871Y0118145D01*
X0391800Y0120387D01*
X0391800Y0122813D01*
X0390871Y0125055D01*
X0389155Y0126771D01*
X0390428Y0125499D02*
X0409521Y0125499D01*
X0409521Y0123900D02*
X0391350Y0123900D01*
X0391800Y0122302D02*
X0409521Y0122302D01*
X0409521Y0120703D02*
X0391800Y0120703D01*
X0391269Y0119105D02*
X0409521Y0119105D01*
X0409521Y0117506D02*
X0390233Y0117506D01*
X0387898Y0115908D02*
X0409521Y0115908D01*
X0409521Y0114309D02*
X0348556Y0114309D01*
X0348469Y0114519D02*
X0347119Y0115869D01*
X0345355Y0116600D01*
X0338245Y0116600D01*
X0336481Y0115869D01*
X0335131Y0114519D01*
X0334400Y0112755D01*
X0334400Y0110845D01*
X0335131Y0109081D01*
X0336481Y0107731D01*
X0338245Y0107000D01*
X0345355Y0107000D01*
X0347119Y0107731D01*
X0348469Y0109081D01*
X0349200Y0110845D01*
X0349200Y0112755D01*
X0348469Y0114519D01*
X0349200Y0112711D02*
X0409521Y0112711D01*
X0409521Y0111112D02*
X0349200Y0111112D01*
X0348648Y0109514D02*
X0409521Y0109514D01*
X0409521Y0107915D02*
X0387118Y0107915D01*
X0386913Y0108000D02*
X0376687Y0108000D01*
X0374445Y0107071D01*
X0372729Y0105355D01*
X0372581Y0105000D01*
X0347988Y0105000D01*
X0347119Y0105869D01*
X0345355Y0106600D01*
X0338245Y0106600D01*
X0336481Y0105869D01*
X0335131Y0104519D01*
X0334400Y0102755D01*
X0334400Y0100845D01*
X0335131Y0099081D01*
X0336481Y0097731D01*
X0338245Y0097000D01*
X0345355Y0097000D01*
X0347119Y0097731D01*
X0347988Y0098600D01*
X0372664Y0098600D01*
X0372729Y0098445D01*
X0374445Y0096729D01*
X0376687Y0095800D01*
X0386913Y0095800D01*
X0389155Y0096729D01*
X0390871Y0098445D01*
X0391800Y0100687D01*
X0391800Y0103113D01*
X0390871Y0105355D01*
X0389155Y0107071D01*
X0386913Y0108000D01*
X0389910Y0106317D02*
X0409521Y0106317D01*
X0409521Y0104718D02*
X0391135Y0104718D01*
X0391797Y0103120D02*
X0409521Y0103120D01*
X0409521Y0101521D02*
X0391800Y0101521D01*
X0391484Y0099923D02*
X0409521Y0099923D01*
X0409521Y0098324D02*
X0390751Y0098324D01*
X0389148Y0096726D02*
X0409521Y0096726D01*
X0409521Y0095127D02*
X0292433Y0095127D01*
X0294031Y0093529D02*
X0409521Y0093529D01*
X0409521Y0091930D02*
X0295630Y0091930D01*
X0295960Y0091600D02*
X0288386Y0099174D01*
X0287357Y0099600D01*
X0252960Y0099600D01*
X0249100Y0103460D01*
X0249100Y0103788D01*
X0246288Y0106600D01*
X0242312Y0106600D01*
X0241600Y0105888D01*
X0241600Y0106800D01*
X0241600Y0108788D01*
X0238788Y0111600D01*
X0236800Y0111600D01*
X0236800Y0106800D01*
X0236800Y0106800D01*
X0241600Y0106800D01*
X0236800Y0106800D01*
X0236800Y0106800D01*
X0236800Y0106800D01*
X0232000Y0106800D01*
X0232000Y0108788D01*
X0234812Y0111600D01*
X0236800Y0111600D01*
X0236800Y0106800D01*
X0236800Y0102000D01*
X0238788Y0102000D01*
X0239500Y0102712D01*
X0239500Y0100888D01*
X0238788Y0101600D01*
X0234812Y0101600D01*
X0232000Y0098788D01*
X0232000Y0094812D01*
X0234812Y0092000D01*
X0238788Y0092000D01*
X0241600Y0094812D01*
X0241600Y0097712D01*
X0242312Y0097000D01*
X0246288Y0097000D01*
X0246964Y0097676D01*
X0249426Y0095214D01*
X0250214Y0094426D01*
X0251243Y0094000D01*
X0285640Y0094000D01*
X0292000Y0087640D01*
X0292000Y0084812D01*
X0294812Y0082000D01*
X0298788Y0082000D01*
X0301600Y0084812D01*
X0301600Y0088788D01*
X0298788Y0091600D01*
X0295960Y0091600D01*
X0300057Y0090332D02*
X0409521Y0090332D01*
X0409521Y0088733D02*
X0301600Y0088733D01*
X0301600Y0087134D02*
X0409521Y0087134D01*
X0409521Y0085536D02*
X0301600Y0085536D01*
X0300726Y0083937D02*
X0409521Y0083937D01*
X0409521Y0082339D02*
X0299127Y0082339D01*
X0294473Y0082339D02*
X0259127Y0082339D01*
X0260726Y0083937D02*
X0292874Y0083937D01*
X0292000Y0085536D02*
X0261600Y0085536D01*
X0261600Y0087134D02*
X0292000Y0087134D01*
X0290907Y0088733D02*
X0261600Y0088733D01*
X0260057Y0090332D02*
X0289309Y0090332D01*
X0287710Y0091930D02*
X0230630Y0091930D01*
X0232228Y0090332D02*
X0253543Y0090332D01*
X0252874Y0083937D02*
X0224600Y0083937D01*
X0224600Y0082339D02*
X0254473Y0082339D01*
X0254812Y0071600D02*
X0252000Y0068788D01*
X0252000Y0064812D01*
X0252212Y0064600D01*
X0240788Y0064600D01*
X0238788Y0066600D01*
X0234812Y0066600D01*
X0232000Y0063788D01*
X0232000Y0059812D01*
X0234812Y0057000D01*
X0238788Y0057000D01*
X0240788Y0059000D01*
X0250640Y0059000D01*
X0253926Y0055714D01*
X0252000Y0053788D01*
X0252000Y0049812D01*
X0254812Y0047000D01*
X0258788Y0047000D01*
X0261600Y0049812D01*
X0261600Y0053788D01*
X0259600Y0055788D01*
X0259600Y0057357D01*
X0259174Y0058386D01*
X0255560Y0062000D01*
X0258788Y0062000D01*
X0261600Y0064812D01*
X0261600Y0068788D01*
X0258788Y0071600D01*
X0254812Y0071600D01*
X0254361Y0071149D02*
X0241600Y0071149D01*
X0241600Y0069812D02*
X0238788Y0067000D01*
X0234812Y0067000D01*
X0232000Y0069812D01*
X0232000Y0073788D01*
X0234812Y0076600D01*
X0238788Y0076600D01*
X0241600Y0073788D01*
X0241600Y0069812D01*
X0241339Y0069551D02*
X0252763Y0069551D01*
X0252000Y0067952D02*
X0239741Y0067952D01*
X0239034Y0066354D02*
X0252000Y0066354D01*
X0252056Y0064755D02*
X0240633Y0064755D01*
X0234566Y0066354D02*
X0224600Y0066354D01*
X0224600Y0067952D02*
X0233859Y0067952D01*
X0232261Y0069551D02*
X0224600Y0069551D01*
X0224600Y0071149D02*
X0232000Y0071149D01*
X0232000Y0072748D02*
X0224600Y0072748D01*
X0224600Y0074346D02*
X0232558Y0074346D01*
X0234157Y0075945D02*
X0224600Y0075945D01*
X0224600Y0077543D02*
X0376309Y0077543D01*
X0376687Y0077700D02*
X0374445Y0076771D01*
X0372729Y0075055D01*
X0372706Y0075000D01*
X0347988Y0075000D01*
X0347119Y0075869D01*
X0345355Y0076600D01*
X0338245Y0076600D01*
X0336481Y0075869D01*
X0335131Y0074519D01*
X0334400Y0072755D01*
X0334400Y0070845D01*
X0335131Y0069081D01*
X0336481Y0067731D01*
X0338245Y0067000D01*
X0345355Y0067000D01*
X0347119Y0067731D01*
X0347988Y0068600D01*
X0372540Y0068600D01*
X0372729Y0068145D01*
X0374445Y0066429D01*
X0376687Y0065500D01*
X0386913Y0065500D01*
X0389155Y0066429D01*
X0390871Y0068145D01*
X0391800Y0070387D01*
X0391800Y0072813D01*
X0390871Y0075055D01*
X0389155Y0076771D01*
X0386913Y0077700D01*
X0376687Y0077700D01*
X0373618Y0075945D02*
X0346936Y0075945D01*
X0347341Y0067952D02*
X0372921Y0067952D01*
X0374625Y0066354D02*
X0345949Y0066354D01*
X0345355Y0066600D02*
X0347119Y0065869D01*
X0348469Y0064519D01*
X0349200Y0062755D01*
X0349200Y0060845D01*
X0348469Y0059081D01*
X0347119Y0057731D01*
X0345355Y0057000D01*
X0338245Y0057000D01*
X0336481Y0057731D01*
X0335131Y0059081D01*
X0334400Y0060845D01*
X0334400Y0062755D01*
X0335131Y0064519D01*
X0336481Y0065869D01*
X0338245Y0066600D01*
X0345355Y0066600D01*
X0348233Y0064755D02*
X0409521Y0064755D01*
X0409521Y0063157D02*
X0349033Y0063157D01*
X0349200Y0061558D02*
X0409521Y0061558D01*
X0409521Y0059960D02*
X0348833Y0059960D01*
X0347750Y0058361D02*
X0409521Y0058361D01*
X0409521Y0056763D02*
X0389464Y0056763D01*
X0389155Y0057071D02*
X0386913Y0058000D01*
X0376687Y0058000D01*
X0374445Y0057071D01*
X0372729Y0055355D01*
X0372623Y0055100D01*
X0347888Y0055100D01*
X0347119Y0055869D01*
X0345355Y0056600D01*
X0338245Y0056600D01*
X0336481Y0055869D01*
X0335131Y0054519D01*
X0334400Y0052755D01*
X0334400Y0050845D01*
X0335131Y0049081D01*
X0336481Y0047731D01*
X0338245Y0047000D01*
X0345355Y0047000D01*
X0347119Y0047731D01*
X0348088Y0048700D01*
X0372623Y0048700D01*
X0372729Y0048445D01*
X0374445Y0046729D01*
X0376687Y0045800D01*
X0386913Y0045800D01*
X0389155Y0046729D01*
X0390871Y0048445D01*
X0391800Y0050687D01*
X0391800Y0053113D01*
X0390871Y0055355D01*
X0389155Y0057071D01*
X0390950Y0055164D02*
X0409521Y0055164D01*
X0409521Y0053566D02*
X0391613Y0053566D01*
X0391800Y0051967D02*
X0409521Y0051967D01*
X0409521Y0050369D02*
X0391668Y0050369D01*
X0391006Y0048770D02*
X0409521Y0048770D01*
X0409521Y0047172D02*
X0389598Y0047172D01*
X0374002Y0047172D02*
X0345769Y0047172D01*
X0337831Y0047172D02*
X0315769Y0047172D01*
X0315355Y0047000D02*
X0317119Y0047731D01*
X0318469Y0049081D01*
X0319200Y0050845D01*
X0319200Y0052755D01*
X0318469Y0054519D01*
X0317119Y0055869D01*
X0315355Y0056600D01*
X0308245Y0056600D01*
X0306481Y0055869D01*
X0305131Y0054519D01*
X0304400Y0052755D01*
X0304400Y0050845D01*
X0305131Y0049081D01*
X0306481Y0047731D01*
X0308245Y0047000D01*
X0315355Y0047000D01*
X0318158Y0048770D02*
X0335442Y0048770D01*
X0334597Y0050369D02*
X0319003Y0050369D01*
X0319200Y0051967D02*
X0334400Y0051967D01*
X0334736Y0053566D02*
X0318864Y0053566D01*
X0317824Y0055164D02*
X0335776Y0055164D01*
X0335850Y0058361D02*
X0317750Y0058361D01*
X0317119Y0057731D02*
X0318469Y0059081D01*
X0319200Y0060845D01*
X0319200Y0062755D01*
X0318469Y0064519D01*
X0317119Y0065869D01*
X0315355Y0066600D01*
X0308245Y0066600D01*
X0306481Y0065869D01*
X0305131Y0064519D01*
X0304828Y0063788D01*
X0304426Y0063386D01*
X0297640Y0056600D01*
X0294812Y0056600D01*
X0292000Y0053788D01*
X0292000Y0049812D01*
X0294812Y0047000D01*
X0298788Y0047000D01*
X0301600Y0049812D01*
X0301600Y0052640D01*
X0306629Y0057669D01*
X0308245Y0057000D01*
X0315355Y0057000D01*
X0317119Y0057731D01*
X0318833Y0059960D02*
X0334767Y0059960D01*
X0334400Y0061558D02*
X0319200Y0061558D01*
X0319033Y0063157D02*
X0334567Y0063157D01*
X0335367Y0064755D02*
X0318233Y0064755D01*
X0315949Y0066354D02*
X0337651Y0066354D01*
X0336259Y0067952D02*
X0317341Y0067952D01*
X0317119Y0067731D02*
X0318469Y0069081D01*
X0319200Y0070845D01*
X0319200Y0072755D01*
X0318469Y0074519D01*
X0317119Y0075869D01*
X0315355Y0076600D01*
X0308245Y0076600D01*
X0306481Y0075869D01*
X0305212Y0074600D01*
X0301243Y0074600D01*
X0300214Y0074174D01*
X0299426Y0073386D01*
X0297640Y0071600D01*
X0294812Y0071600D01*
X0292000Y0068788D01*
X0292000Y0064812D01*
X0294812Y0062000D01*
X0298788Y0062000D01*
X0301600Y0064812D01*
X0301600Y0067640D01*
X0302960Y0069000D01*
X0305212Y0069000D01*
X0306481Y0067731D01*
X0308245Y0067000D01*
X0315355Y0067000D01*
X0317119Y0067731D01*
X0318664Y0069551D02*
X0334936Y0069551D01*
X0334400Y0071149D02*
X0319200Y0071149D01*
X0319200Y0072748D02*
X0334400Y0072748D01*
X0335059Y0074346D02*
X0318541Y0074346D01*
X0316936Y0075945D02*
X0336664Y0075945D01*
X0335888Y0098324D02*
X0317712Y0098324D01*
X0317119Y0097731D02*
X0318469Y0099081D01*
X0319200Y0100845D01*
X0319200Y0102755D01*
X0318469Y0104519D01*
X0317119Y0105869D01*
X0315355Y0106600D01*
X0308245Y0106600D01*
X0306481Y0105869D01*
X0305131Y0104519D01*
X0304400Y0102755D01*
X0304400Y0100845D01*
X0305131Y0099081D01*
X0306481Y0097731D01*
X0308245Y0097000D01*
X0315355Y0097000D01*
X0317119Y0097731D01*
X0318818Y0099923D02*
X0334782Y0099923D01*
X0334400Y0101521D02*
X0319200Y0101521D01*
X0319049Y0103120D02*
X0334551Y0103120D01*
X0335330Y0104718D02*
X0318270Y0104718D01*
X0316039Y0106317D02*
X0337561Y0106317D01*
X0336297Y0107915D02*
X0317303Y0107915D01*
X0317119Y0107731D02*
X0318469Y0109081D01*
X0319200Y0110845D01*
X0319200Y0112755D01*
X0318469Y0114519D01*
X0317119Y0115869D01*
X0315355Y0116600D01*
X0308245Y0116600D01*
X0306481Y0115869D01*
X0305212Y0114600D01*
X0301243Y0114600D01*
X0300214Y0114174D01*
X0297640Y0111600D01*
X0294812Y0111600D01*
X0292000Y0108788D01*
X0292000Y0104812D01*
X0294812Y0102000D01*
X0298788Y0102000D01*
X0301600Y0104812D01*
X0301600Y0107640D01*
X0302960Y0109000D01*
X0305212Y0109000D01*
X0306481Y0107731D01*
X0308245Y0107000D01*
X0315355Y0107000D01*
X0317119Y0107731D01*
X0318648Y0109514D02*
X0334952Y0109514D01*
X0334400Y0111112D02*
X0319200Y0111112D01*
X0319200Y0112711D02*
X0334400Y0112711D01*
X0335044Y0114309D02*
X0318556Y0114309D01*
X0317026Y0115908D02*
X0336574Y0115908D01*
X0337023Y0117506D02*
X0316577Y0117506D01*
X0317119Y0117731D02*
X0318469Y0119081D01*
X0319200Y0120845D01*
X0319200Y0122755D01*
X0318469Y0124519D01*
X0317119Y0125869D01*
X0315355Y0126600D01*
X0308245Y0126600D01*
X0306481Y0125869D01*
X0305212Y0124600D01*
X0300788Y0124600D01*
X0298788Y0126600D01*
X0294812Y0126600D01*
X0292000Y0123788D01*
X0292000Y0119812D01*
X0294812Y0117000D01*
X0298788Y0117000D01*
X0300788Y0119000D01*
X0305212Y0119000D01*
X0306481Y0117731D01*
X0308245Y0117000D01*
X0315355Y0117000D01*
X0317119Y0117731D01*
X0318479Y0119105D02*
X0335121Y0119105D01*
X0334459Y0120703D02*
X0319141Y0120703D01*
X0319200Y0122302D02*
X0334400Y0122302D01*
X0334874Y0123900D02*
X0318726Y0123900D01*
X0317489Y0125499D02*
X0336111Y0125499D01*
X0346577Y0117506D02*
X0373367Y0117506D01*
X0375702Y0115908D02*
X0347026Y0115908D01*
X0347303Y0107915D02*
X0376482Y0107915D01*
X0373690Y0106317D02*
X0346039Y0106317D01*
X0347712Y0098324D02*
X0372849Y0098324D01*
X0374452Y0096726D02*
X0290834Y0096726D01*
X0289236Y0098324D02*
X0305888Y0098324D01*
X0304782Y0099923D02*
X0252637Y0099923D01*
X0251039Y0101521D02*
X0304400Y0101521D01*
X0304551Y0103120D02*
X0299908Y0103120D01*
X0301506Y0104718D02*
X0305330Y0104718D01*
X0307561Y0106317D02*
X0301600Y0106317D01*
X0301875Y0107915D02*
X0306297Y0107915D01*
X0306574Y0115908D02*
X0251652Y0115908D01*
X0250054Y0117506D02*
X0254306Y0117506D01*
X0254812Y0117000D02*
X0258788Y0117000D01*
X0261600Y0119812D01*
X0261600Y0123788D01*
X0258788Y0126600D01*
X0254812Y0126600D01*
X0252000Y0123788D01*
X0252000Y0119812D01*
X0254812Y0117000D01*
X0252707Y0119105D02*
X0248455Y0119105D01*
X0248386Y0119174D02*
X0247357Y0119600D01*
X0240788Y0119600D01*
X0238788Y0121600D01*
X0234812Y0121600D01*
X0232000Y0118788D01*
X0232000Y0114812D01*
X0234812Y0112000D01*
X0238788Y0112000D01*
X0240788Y0114000D01*
X0245640Y0114000D01*
X0252000Y0107640D01*
X0252000Y0104812D01*
X0254812Y0102000D01*
X0258788Y0102000D01*
X0261600Y0104812D01*
X0261600Y0108788D01*
X0258788Y0111600D01*
X0255960Y0111600D01*
X0248386Y0119174D01*
X0252000Y0120703D02*
X0239685Y0120703D01*
X0239090Y0122302D02*
X0252000Y0122302D01*
X0252112Y0123900D02*
X0240688Y0123900D01*
X0241600Y0125499D02*
X0253711Y0125499D01*
X0259889Y0125499D02*
X0293711Y0125499D01*
X0292112Y0123900D02*
X0261488Y0123900D01*
X0261600Y0122302D02*
X0292000Y0122302D01*
X0292000Y0120703D02*
X0261600Y0120703D01*
X0260893Y0119105D02*
X0292707Y0119105D01*
X0294306Y0117506D02*
X0259294Y0117506D01*
X0254849Y0112711D02*
X0298751Y0112711D01*
X0300541Y0114309D02*
X0253251Y0114309D01*
X0248528Y0111112D02*
X0239276Y0111112D01*
X0239499Y0112711D02*
X0246930Y0112711D01*
X0250127Y0109514D02*
X0240875Y0109514D01*
X0241600Y0107915D02*
X0251725Y0107915D01*
X0252000Y0106317D02*
X0246572Y0106317D01*
X0248170Y0104718D02*
X0252094Y0104718D01*
X0253692Y0103120D02*
X0249440Y0103120D01*
X0247915Y0096726D02*
X0241600Y0096726D01*
X0241600Y0095127D02*
X0249513Y0095127D01*
X0249426Y0095214D02*
X0249426Y0095214D01*
X0240317Y0093529D02*
X0286112Y0093529D01*
X0293692Y0103120D02*
X0259908Y0103120D01*
X0261506Y0104718D02*
X0292094Y0104718D01*
X0292000Y0106317D02*
X0261600Y0106317D01*
X0261600Y0107915D02*
X0292000Y0107915D01*
X0292725Y0109514D02*
X0260875Y0109514D01*
X0259276Y0111112D02*
X0294324Y0111112D01*
X0299294Y0117506D02*
X0307023Y0117506D01*
X0306111Y0125499D02*
X0299889Y0125499D01*
X0293525Y0138287D02*
X0260075Y0138287D01*
X0261600Y0139885D02*
X0292000Y0139885D01*
X0292000Y0141484D02*
X0261600Y0141484D01*
X0261600Y0143082D02*
X0291558Y0143082D01*
X0289959Y0144681D02*
X0260707Y0144681D01*
X0259109Y0146279D02*
X0288361Y0146279D01*
X0286762Y0147878D02*
X0247166Y0147878D01*
X0241600Y0146279D02*
X0254491Y0146279D01*
X0252893Y0144681D02*
X0241469Y0144681D01*
X0239871Y0143082D02*
X0252000Y0143082D01*
X0252000Y0141484D02*
X0231076Y0141484D01*
X0229477Y0143082D02*
X0233729Y0143082D01*
X0232131Y0144681D02*
X0227879Y0144681D01*
X0226280Y0146279D02*
X0232000Y0146279D01*
X0232000Y0147878D02*
X0224682Y0147878D01*
X0222655Y0149476D02*
X0232688Y0149476D01*
X0234287Y0151075D02*
X0209808Y0151075D01*
X0209957Y0152673D02*
X0234138Y0152673D01*
X0234812Y0152000D02*
X0232000Y0154812D01*
X0232000Y0156800D01*
X0236800Y0156800D01*
X0236800Y0156800D01*
X0236800Y0152000D01*
X0234812Y0152000D01*
X0236800Y0152673D02*
X0236800Y0152673D01*
X0236800Y0154272D02*
X0236800Y0154272D01*
X0236800Y0155870D02*
X0236800Y0155870D01*
X0236800Y0157469D02*
X0236800Y0157469D01*
X0236800Y0159068D02*
X0236800Y0159068D01*
X0236800Y0160666D02*
X0236800Y0160666D01*
X0239053Y0162265D02*
X0252000Y0162265D01*
X0252000Y0160666D02*
X0239722Y0160666D01*
X0241321Y0159068D02*
X0252744Y0159068D01*
X0254343Y0157469D02*
X0241600Y0157469D01*
X0239500Y0152673D02*
X0239462Y0152673D01*
X0239500Y0151075D02*
X0239313Y0151075D01*
X0247018Y0155870D02*
X0306484Y0155870D01*
X0306481Y0155869D02*
X0305131Y0154519D01*
X0304400Y0152755D01*
X0304400Y0150845D01*
X0305131Y0149081D01*
X0306481Y0147731D01*
X0308245Y0147000D01*
X0315355Y0147000D01*
X0317119Y0147731D01*
X0318469Y0149081D01*
X0319200Y0150845D01*
X0319200Y0152755D01*
X0318469Y0154519D01*
X0317119Y0155869D01*
X0315355Y0156600D01*
X0308245Y0156600D01*
X0306481Y0155869D01*
X0307113Y0157469D02*
X0299257Y0157469D01*
X0298788Y0157000D02*
X0300788Y0159000D01*
X0305212Y0159000D01*
X0306481Y0157731D01*
X0308245Y0157000D01*
X0315355Y0157000D01*
X0317119Y0157731D01*
X0318469Y0159081D01*
X0319200Y0160845D01*
X0319200Y0162755D01*
X0318469Y0164519D01*
X0317119Y0165869D01*
X0315355Y0166600D01*
X0308245Y0166600D01*
X0306481Y0165869D01*
X0305212Y0164600D01*
X0300788Y0164600D01*
X0298788Y0166600D01*
X0294812Y0166600D01*
X0292000Y0163788D01*
X0292000Y0159812D01*
X0294812Y0157000D01*
X0298788Y0157000D01*
X0294343Y0157469D02*
X0259257Y0157469D01*
X0260856Y0159068D02*
X0292744Y0159068D01*
X0292000Y0160666D02*
X0261600Y0160666D01*
X0261600Y0162265D02*
X0292000Y0162265D01*
X0292075Y0163863D02*
X0261525Y0163863D01*
X0259927Y0165462D02*
X0293673Y0165462D01*
X0299927Y0165462D02*
X0306073Y0165462D01*
X0308100Y0167060D02*
X0255500Y0167060D01*
X0253901Y0168659D02*
X0305553Y0168659D01*
X0304690Y0173454D02*
X0300242Y0173454D01*
X0293358Y0173454D02*
X0260242Y0173454D01*
X0261600Y0175053D02*
X0292000Y0175053D01*
X0292000Y0176651D02*
X0261600Y0176651D01*
X0261600Y0178250D02*
X0292000Y0178250D01*
X0293060Y0179848D02*
X0260540Y0179848D01*
X0258942Y0181447D02*
X0294658Y0181447D01*
X0301023Y0194235D02*
X0409521Y0194235D01*
X0409521Y0195833D02*
X0386994Y0195833D01*
X0386913Y0195800D02*
X0389155Y0196729D01*
X0390871Y0198445D01*
X0391800Y0200687D01*
X0391800Y0203113D01*
X0390871Y0205355D01*
X0389155Y0207071D01*
X0386913Y0208000D01*
X0376687Y0208000D01*
X0374445Y0207071D01*
X0372729Y0205355D01*
X0372581Y0205000D01*
X0347988Y0205000D01*
X0347119Y0205869D01*
X0345355Y0206600D01*
X0338245Y0206600D01*
X0336481Y0205869D01*
X0335131Y0204519D01*
X0334400Y0202755D01*
X0334400Y0200845D01*
X0335131Y0199081D01*
X0336481Y0197731D01*
X0338245Y0197000D01*
X0345355Y0197000D01*
X0347119Y0197731D01*
X0347988Y0198600D01*
X0372664Y0198600D01*
X0372729Y0198445D01*
X0374445Y0196729D01*
X0376687Y0195800D01*
X0386913Y0195800D01*
X0389858Y0197432D02*
X0409521Y0197432D01*
X0409521Y0199030D02*
X0391114Y0199030D01*
X0391776Y0200629D02*
X0409521Y0200629D01*
X0409521Y0202227D02*
X0391800Y0202227D01*
X0391505Y0203826D02*
X0409521Y0203826D01*
X0409521Y0205424D02*
X0390802Y0205424D01*
X0389204Y0207023D02*
X0409521Y0207023D01*
X0409521Y0208621D02*
X0348010Y0208621D01*
X0348469Y0209081D02*
X0349200Y0210845D01*
X0349200Y0212755D01*
X0348469Y0214519D01*
X0347119Y0215869D01*
X0345355Y0216600D01*
X0338245Y0216600D01*
X0336481Y0215869D01*
X0335131Y0214519D01*
X0334400Y0212755D01*
X0334400Y0210845D01*
X0335131Y0209081D01*
X0336481Y0207731D01*
X0338245Y0207000D01*
X0345355Y0207000D01*
X0347119Y0207731D01*
X0348469Y0209081D01*
X0348941Y0210220D02*
X0409521Y0210220D01*
X0409521Y0211818D02*
X0349200Y0211818D01*
X0348926Y0213417D02*
X0409521Y0213417D01*
X0409521Y0215015D02*
X0347973Y0215015D01*
X0347119Y0217731D02*
X0345355Y0217000D01*
X0338245Y0217000D01*
X0336481Y0217731D01*
X0335131Y0219081D01*
X0334400Y0220845D01*
X0334400Y0222755D01*
X0335131Y0224519D01*
X0336481Y0225869D01*
X0338245Y0226600D01*
X0345355Y0226600D01*
X0347119Y0225869D01*
X0347988Y0225000D01*
X0372706Y0225000D01*
X0372729Y0225055D01*
X0374445Y0226771D01*
X0376687Y0227700D01*
X0386913Y0227700D01*
X0389155Y0226771D01*
X0390871Y0225055D01*
X0391800Y0222813D01*
X0391800Y0220387D01*
X0390871Y0218145D01*
X0389155Y0216429D01*
X0386913Y0215500D01*
X0376687Y0215500D01*
X0374445Y0216429D01*
X0372729Y0218145D01*
X0372540Y0218600D01*
X0347988Y0218600D01*
X0347119Y0217731D01*
X0347601Y0218212D02*
X0372701Y0218212D01*
X0374259Y0216614D02*
X0301600Y0216614D01*
X0301600Y0218212D02*
X0305999Y0218212D01*
X0306481Y0217731D02*
X0308245Y0217000D01*
X0315355Y0217000D01*
X0317119Y0217731D01*
X0318469Y0219081D01*
X0319200Y0220845D01*
X0319200Y0222755D01*
X0318469Y0224519D01*
X0317119Y0225869D01*
X0315355Y0226600D01*
X0310960Y0226600D01*
X0303386Y0234174D01*
X0302357Y0234600D01*
X0300788Y0234600D01*
X0298788Y0236600D01*
X0294812Y0236600D01*
X0292000Y0233788D01*
X0292000Y0229812D01*
X0294812Y0227000D01*
X0298788Y0227000D01*
X0300714Y0228926D01*
X0305128Y0224512D01*
X0304400Y0222755D01*
X0304400Y0220845D01*
X0305131Y0219081D01*
X0306481Y0217731D01*
X0304828Y0219811D02*
X0300577Y0219811D01*
X0298979Y0221409D02*
X0304400Y0221409D01*
X0304505Y0223008D02*
X0239796Y0223008D01*
X0238979Y0221409D02*
X0254621Y0221409D01*
X0253023Y0219811D02*
X0240577Y0219811D01*
X0240205Y0213417D02*
X0253395Y0213417D01*
X0249662Y0208621D02*
X0241600Y0208621D01*
X0241600Y0207023D02*
X0248063Y0207023D01*
X0252786Y0203826D02*
X0285814Y0203826D01*
X0288938Y0208621D02*
X0305590Y0208621D01*
X0306481Y0205869D02*
X0305131Y0204519D01*
X0304400Y0202755D01*
X0304400Y0200845D01*
X0305131Y0199081D01*
X0306481Y0197731D01*
X0308245Y0197000D01*
X0315355Y0197000D01*
X0317119Y0197731D01*
X0318469Y0199081D01*
X0319200Y0200845D01*
X0319200Y0202755D01*
X0318469Y0204519D01*
X0317119Y0205869D01*
X0315355Y0206600D01*
X0308245Y0206600D01*
X0306481Y0205869D01*
X0306036Y0205424D02*
X0292135Y0205424D01*
X0290537Y0207023D02*
X0308190Y0207023D01*
X0304844Y0203826D02*
X0293734Y0203826D01*
X0295332Y0202227D02*
X0304400Y0202227D01*
X0304490Y0200629D02*
X0299759Y0200629D01*
X0301358Y0199030D02*
X0305181Y0199030D01*
X0307203Y0197432D02*
X0301600Y0197432D01*
X0301600Y0195833D02*
X0376606Y0195833D01*
X0373742Y0197432D02*
X0346397Y0197432D01*
X0347564Y0205424D02*
X0372798Y0205424D01*
X0374396Y0207023D02*
X0345410Y0207023D01*
X0338190Y0207023D02*
X0315410Y0207023D01*
X0317564Y0205424D02*
X0336036Y0205424D01*
X0334844Y0203826D02*
X0318756Y0203826D01*
X0319200Y0202227D02*
X0334400Y0202227D01*
X0334490Y0200629D02*
X0319110Y0200629D01*
X0318419Y0199030D02*
X0335181Y0199030D01*
X0337203Y0197432D02*
X0316397Y0197432D01*
X0318010Y0208621D02*
X0335590Y0208621D01*
X0334659Y0210220D02*
X0318941Y0210220D01*
X0319200Y0211818D02*
X0334400Y0211818D01*
X0334674Y0213417D02*
X0318926Y0213417D01*
X0317973Y0215015D02*
X0335627Y0215015D01*
X0335999Y0218212D02*
X0317601Y0218212D01*
X0318772Y0219811D02*
X0334828Y0219811D01*
X0334400Y0221409D02*
X0319200Y0221409D01*
X0319095Y0223008D02*
X0334505Y0223008D01*
X0335218Y0224606D02*
X0318382Y0224606D01*
X0316308Y0226205D02*
X0337292Y0226205D01*
X0346308Y0226205D02*
X0373878Y0226205D01*
X0389722Y0226205D02*
X0409521Y0226205D01*
X0409521Y0227803D02*
X0309756Y0227803D01*
X0308158Y0229402D02*
X0409521Y0229402D01*
X0409521Y0231001D02*
X0306559Y0231001D01*
X0304961Y0232599D02*
X0409521Y0232599D01*
X0409521Y0234198D02*
X0303329Y0234198D01*
X0299592Y0235796D02*
X0409521Y0235796D01*
X0409521Y0224606D02*
X0391057Y0224606D01*
X0391719Y0223008D02*
X0409521Y0223008D01*
X0409521Y0221409D02*
X0391800Y0221409D01*
X0391562Y0219811D02*
X0409521Y0219811D01*
X0409521Y0218212D02*
X0390899Y0218212D01*
X0389341Y0216614D02*
X0409521Y0216614D01*
X0409521Y0246986D02*
X0389412Y0246986D01*
X0390929Y0248584D02*
X0409521Y0248584D01*
X0409521Y0250183D02*
X0391591Y0250183D01*
X0391800Y0251781D02*
X0409521Y0251781D01*
X0409521Y0253380D02*
X0391690Y0253380D01*
X0391028Y0254978D02*
X0409521Y0254978D01*
X0409521Y0291744D02*
X0255704Y0291744D01*
X0257302Y0293342D02*
X0409521Y0293342D01*
X0409521Y0294941D02*
X0258901Y0294941D01*
X0252000Y0288547D02*
X0227507Y0288547D01*
X0225908Y0286948D02*
X0252000Y0286948D01*
X0252000Y0285350D02*
X0224600Y0285350D01*
X0224600Y0283751D02*
X0253060Y0283751D01*
X0254659Y0282153D02*
X0224600Y0282153D01*
X0224600Y0280554D02*
X0233766Y0280554D01*
X0232168Y0278956D02*
X0224600Y0278956D01*
X0224600Y0277357D02*
X0232000Y0277357D01*
X0232000Y0275759D02*
X0224600Y0275759D01*
X0224600Y0274160D02*
X0232651Y0274160D01*
X0234250Y0272562D02*
X0224600Y0272562D01*
X0224600Y0270963D02*
X0234175Y0270963D01*
X0232577Y0269365D02*
X0224600Y0269365D01*
X0224600Y0267766D02*
X0232000Y0267766D01*
X0232000Y0266168D02*
X0224600Y0266168D01*
X0224600Y0264569D02*
X0232243Y0264569D01*
X0233841Y0262971D02*
X0224600Y0262971D01*
X0224600Y0261372D02*
X0234584Y0261372D01*
X0236800Y0261372D02*
X0236800Y0261372D01*
X0236800Y0259774D02*
X0236800Y0259774D01*
X0236800Y0258175D02*
X0236800Y0258175D01*
X0236800Y0256800D02*
X0232000Y0256800D01*
X0232000Y0254812D01*
X0234812Y0252000D01*
X0236800Y0252000D01*
X0236800Y0256800D01*
X0236800Y0256800D01*
X0236800Y0256577D02*
X0236800Y0256577D01*
X0236800Y0254978D02*
X0236800Y0254978D01*
X0236800Y0253380D02*
X0236800Y0253380D01*
X0239500Y0251781D02*
X0224600Y0251781D01*
X0224600Y0250183D02*
X0233394Y0250183D01*
X0232000Y0248584D02*
X0224600Y0248584D01*
X0224600Y0246986D02*
X0232000Y0246986D01*
X0232000Y0245387D02*
X0224600Y0245387D01*
X0224600Y0243789D02*
X0233023Y0243789D01*
X0234622Y0242190D02*
X0224600Y0242190D01*
X0224600Y0240592D02*
X0246632Y0240592D01*
X0248230Y0242190D02*
X0238978Y0242190D01*
X0240577Y0243789D02*
X0249829Y0243789D01*
X0251427Y0245387D02*
X0241600Y0245387D01*
X0241600Y0246986D02*
X0253026Y0246986D01*
X0253228Y0248584D02*
X0247872Y0248584D01*
X0249100Y0250183D02*
X0252000Y0250183D01*
X0252000Y0251781D02*
X0249100Y0251781D01*
X0249839Y0253380D02*
X0252000Y0253380D01*
X0251438Y0254978D02*
X0253190Y0254978D01*
X0253036Y0256577D02*
X0254788Y0256577D01*
X0254635Y0258175D02*
X0291465Y0258175D01*
X0293063Y0256577D02*
X0258812Y0256577D01*
X0260410Y0254978D02*
X0293190Y0254978D01*
X0292000Y0253380D02*
X0261600Y0253380D01*
X0261600Y0251781D02*
X0292000Y0251781D01*
X0292000Y0250183D02*
X0261600Y0250183D01*
X0260372Y0248584D02*
X0293228Y0248584D01*
X0294008Y0235796D02*
X0259592Y0235796D01*
X0261191Y0234198D02*
X0292409Y0234198D01*
X0292000Y0232599D02*
X0261600Y0232599D01*
X0261600Y0231001D02*
X0292000Y0231001D01*
X0292410Y0229402D02*
X0261190Y0229402D01*
X0259592Y0227803D02*
X0294008Y0227803D01*
X0294621Y0221409D02*
X0258979Y0221409D01*
X0260577Y0219811D02*
X0293023Y0219811D01*
X0292000Y0218212D02*
X0261600Y0218212D01*
X0261600Y0216614D02*
X0292000Y0216614D01*
X0292000Y0215015D02*
X0261600Y0215015D01*
X0260205Y0213417D02*
X0293395Y0213417D01*
X0302544Y0215015D02*
X0305627Y0215015D01*
X0305034Y0224606D02*
X0241395Y0224606D01*
X0241600Y0226205D02*
X0303435Y0226205D01*
X0301837Y0227803D02*
X0299592Y0227803D01*
X0299554Y0267766D02*
X0301874Y0267766D01*
X0306596Y0270963D02*
X0306708Y0270963D01*
X0306889Y0272562D02*
X0304998Y0272562D01*
X0305098Y0274160D02*
X0303399Y0274160D01*
X0304436Y0275759D02*
X0299629Y0275759D01*
X0253669Y0264569D02*
X0243529Y0264569D01*
X0239759Y0262971D02*
X0251511Y0262971D01*
X0249912Y0261372D02*
X0239016Y0261372D01*
X0240614Y0259774D02*
X0248314Y0259774D01*
X0246715Y0258175D02*
X0241600Y0258175D01*
X0241600Y0256577D02*
X0242288Y0256577D01*
X0233432Y0253380D02*
X0224600Y0253380D01*
X0224600Y0254978D02*
X0232000Y0254978D01*
X0232000Y0256577D02*
X0224600Y0256577D01*
X0224600Y0258175D02*
X0232000Y0258175D01*
X0232986Y0259774D02*
X0224600Y0259774D01*
X0219000Y0254978D02*
X0039757Y0254978D01*
X0039757Y0253380D02*
X0219000Y0253380D01*
X0219000Y0251781D02*
X0098755Y0251781D01*
X0100983Y0250183D02*
X0114394Y0250183D01*
X0113000Y0248788D02*
X0113000Y0246800D01*
X0117800Y0246800D01*
X0117800Y0246800D01*
X0117800Y0246800D01*
X0117800Y0251600D01*
X0115812Y0251600D01*
X0113000Y0248788D01*
X0113000Y0248584D02*
X0101852Y0248584D01*
X0102150Y0246986D02*
X0113000Y0246986D01*
X0113000Y0246800D02*
X0113000Y0244812D01*
X0115812Y0242000D01*
X0117800Y0242000D01*
X0117800Y0246800D01*
X0113000Y0246800D01*
X0113000Y0245387D02*
X0102006Y0245387D01*
X0101343Y0243789D02*
X0114023Y0243789D01*
X0115622Y0242190D02*
X0099651Y0242190D01*
X0099330Y0240592D02*
X0121632Y0240592D01*
X0123000Y0242190D02*
X0119978Y0242190D01*
X0117800Y0242190D02*
X0117800Y0242190D01*
X0117800Y0243789D02*
X0117800Y0243789D01*
X0117800Y0245387D02*
X0117800Y0245387D01*
X0117800Y0246986D02*
X0117800Y0246986D01*
X0117800Y0248584D02*
X0117800Y0248584D01*
X0117800Y0250183D02*
X0117800Y0250183D01*
X0121206Y0250183D02*
X0122394Y0250183D01*
X0122023Y0243789D02*
X0121577Y0243789D01*
X0128600Y0242190D02*
X0149622Y0242190D01*
X0149812Y0242000D02*
X0153788Y0242000D01*
X0156600Y0244812D01*
X0156600Y0248788D01*
X0153788Y0251600D01*
X0149812Y0251600D01*
X0147000Y0248788D01*
X0147000Y0244812D01*
X0149812Y0242000D01*
X0148023Y0243789D02*
X0129577Y0243789D01*
X0130410Y0245387D02*
X0147000Y0245387D01*
X0147000Y0246986D02*
X0130600Y0246986D01*
X0130256Y0248584D02*
X0147000Y0248584D01*
X0148394Y0250183D02*
X0129206Y0250183D01*
X0128600Y0240592D02*
X0219000Y0240592D01*
X0219000Y0242190D02*
X0163978Y0242190D01*
X0163788Y0242000D02*
X0166600Y0244812D01*
X0166600Y0248788D01*
X0163788Y0251600D01*
X0159812Y0251600D01*
X0157000Y0248788D01*
X0157000Y0244812D01*
X0159812Y0242000D01*
X0163788Y0242000D01*
X0165577Y0243789D02*
X0219000Y0243789D01*
X0219000Y0245387D02*
X0166600Y0245387D01*
X0166600Y0246986D02*
X0219000Y0246986D01*
X0219000Y0248584D02*
X0166600Y0248584D01*
X0165206Y0250183D02*
X0219000Y0250183D01*
X0219000Y0238993D02*
X0127953Y0238993D01*
X0126354Y0237395D02*
X0219000Y0237395D01*
X0219000Y0235796D02*
X0144592Y0235796D01*
X0139008Y0235796D02*
X0134592Y0235796D01*
X0133788Y0236600D02*
X0136600Y0233788D01*
X0136600Y0231800D01*
X0131800Y0231800D01*
X0131800Y0231800D01*
X0131800Y0231800D01*
X0131800Y0236600D01*
X0133788Y0236600D01*
X0131800Y0236600D02*
X0129812Y0236600D01*
X0127000Y0233788D01*
X0127000Y0231800D01*
X0131800Y0231800D01*
X0136600Y0231800D01*
X0136600Y0229812D01*
X0133788Y0227000D01*
X0131800Y0227000D01*
X0131800Y0231800D01*
X0131800Y0231800D01*
X0131800Y0231800D01*
X0131800Y0236600D01*
X0131800Y0235796D02*
X0131800Y0235796D01*
X0131800Y0234198D02*
X0131800Y0234198D01*
X0131800Y0232599D02*
X0131800Y0232599D01*
X0131800Y0231800D02*
X0127000Y0231800D01*
X0127000Y0229812D01*
X0129812Y0227000D01*
X0131800Y0227000D01*
X0131800Y0231800D01*
X0131800Y0231001D02*
X0131800Y0231001D01*
X0131800Y0229402D02*
X0131800Y0229402D01*
X0131800Y0227803D02*
X0131800Y0227803D01*
X0134592Y0227803D02*
X0139008Y0227803D01*
X0137410Y0229402D02*
X0136190Y0229402D01*
X0136600Y0231001D02*
X0137000Y0231001D01*
X0137000Y0232599D02*
X0136600Y0232599D01*
X0136191Y0234198D02*
X0137409Y0234198D01*
X0129008Y0235796D02*
X0124756Y0235796D01*
X0122834Y0234198D02*
X0127409Y0234198D01*
X0127000Y0232599D02*
X0024000Y0232599D01*
X0024000Y0231001D02*
X0127000Y0231001D01*
X0127410Y0229402D02*
X0024000Y0229402D01*
X0024000Y0227803D02*
X0129008Y0227803D01*
X0129621Y0221409D02*
X0114757Y0221409D01*
X0114016Y0222150D02*
X0109584Y0222150D01*
X0106450Y0219016D01*
X0106450Y0215410D01*
X0100714Y0209674D01*
X0098788Y0211600D01*
X0094812Y0211600D01*
X0092000Y0208788D01*
X0092000Y0205960D01*
X0084426Y0198386D01*
X0084000Y0197357D01*
X0084000Y0187960D01*
X0081600Y0185560D01*
X0081600Y0186800D01*
X0081600Y0188788D01*
X0078788Y0191600D01*
X0076800Y0191600D01*
X0076800Y0186800D01*
X0076800Y0186800D01*
X0081600Y0186800D01*
X0076800Y0186800D01*
X0076800Y0186800D01*
X0076800Y0182000D01*
X0078040Y0182000D01*
X0071103Y0175063D01*
X0069016Y0177150D01*
X0064584Y0177150D01*
X0061608Y0174174D01*
X0061335Y0174831D01*
X0059831Y0176335D01*
X0059600Y0176431D01*
X0059600Y0180640D01*
X0079174Y0200214D01*
X0079600Y0201243D01*
X0079600Y0202812D01*
X0081600Y0204812D01*
X0081600Y0208788D01*
X0078788Y0211600D01*
X0074812Y0211600D01*
X0072000Y0208788D01*
X0072000Y0204812D01*
X0073926Y0202886D01*
X0056800Y0185760D01*
X0041898Y0200662D01*
X0041957Y0200805D01*
X0041957Y0202795D01*
X0041196Y0204632D01*
X0039790Y0206039D01*
X0037952Y0206800D01*
X0035963Y0206800D01*
X0034125Y0206039D01*
X0032719Y0204632D01*
X0031957Y0202795D01*
X0031957Y0200805D01*
X0032719Y0198968D01*
X0034125Y0197561D01*
X0035963Y0196800D01*
X0037840Y0196800D01*
X0054000Y0180640D01*
X0054000Y0176431D01*
X0053769Y0176335D01*
X0052264Y0174831D01*
X0051450Y0172864D01*
X0051450Y0170736D01*
X0052264Y0168769D01*
X0053769Y0167264D01*
X0055736Y0166450D01*
X0057864Y0166450D01*
X0059831Y0167264D01*
X0061335Y0168769D01*
X0061608Y0169426D01*
X0064584Y0166450D01*
X0069016Y0166450D01*
X0071566Y0169000D01*
X0072357Y0169000D01*
X0073386Y0169426D01*
X0088386Y0184426D01*
X0089174Y0185214D01*
X0089600Y0186243D01*
X0089600Y0195640D01*
X0095960Y0202000D01*
X0098788Y0202000D01*
X0100788Y0204000D01*
X0102357Y0204000D01*
X0103386Y0204426D01*
X0110410Y0211450D01*
X0114016Y0211450D01*
X0117150Y0214584D01*
X0117150Y0219016D01*
X0114016Y0222150D01*
X0116355Y0219811D02*
X0128023Y0219811D01*
X0127000Y0218212D02*
X0117150Y0218212D01*
X0117150Y0216614D02*
X0127000Y0216614D01*
X0127000Y0215015D02*
X0117150Y0215015D01*
X0115983Y0213417D02*
X0128395Y0213417D01*
X0129000Y0211818D02*
X0114384Y0211818D01*
X0109180Y0210220D02*
X0129000Y0210220D01*
X0129000Y0208621D02*
X0107581Y0208621D01*
X0105983Y0207023D02*
X0129000Y0207023D01*
X0129000Y0205424D02*
X0104384Y0205424D01*
X0100614Y0203826D02*
X0129000Y0203826D01*
X0129000Y0202227D02*
X0099016Y0202227D01*
X0094589Y0200629D02*
X0129000Y0200629D01*
X0129000Y0199030D02*
X0092990Y0199030D01*
X0091392Y0197432D02*
X0129000Y0197432D01*
X0129170Y0195833D02*
X0089793Y0195833D01*
X0089600Y0194235D02*
X0130405Y0194235D01*
X0132004Y0192636D02*
X0089600Y0192636D01*
X0089600Y0191038D02*
X0094250Y0191038D01*
X0094812Y0191600D02*
X0092000Y0188788D01*
X0092000Y0184812D01*
X0094812Y0182000D01*
X0098788Y0182000D01*
X0101600Y0184812D01*
X0101600Y0188788D01*
X0098788Y0191600D01*
X0094812Y0191600D01*
X0092651Y0189439D02*
X0089600Y0189439D01*
X0089600Y0187841D02*
X0092000Y0187841D01*
X0092000Y0186242D02*
X0089600Y0186242D01*
X0088603Y0184644D02*
X0092168Y0184644D01*
X0093767Y0183045D02*
X0087005Y0183045D01*
X0088386Y0184426D02*
X0088386Y0184426D01*
X0085406Y0181447D02*
X0108881Y0181447D01*
X0109584Y0182150D02*
X0106450Y0179016D01*
X0106450Y0176800D01*
X0111800Y0176800D01*
X0111800Y0176800D01*
X0111800Y0182150D01*
X0114016Y0182150D01*
X0117150Y0179016D01*
X0117150Y0176800D01*
X0111800Y0176800D01*
X0111800Y0176800D01*
X0111800Y0176800D01*
X0111800Y0182150D01*
X0109584Y0182150D01*
X0111800Y0181447D02*
X0111800Y0181447D01*
X0111800Y0179848D02*
X0111800Y0179848D01*
X0111800Y0178250D02*
X0111800Y0178250D01*
X0111800Y0176800D02*
X0106450Y0176800D01*
X0106450Y0174584D01*
X0109584Y0171450D01*
X0111800Y0171450D01*
X0114016Y0171450D01*
X0117150Y0174584D01*
X0117150Y0176800D01*
X0111800Y0176800D01*
X0111800Y0171450D01*
X0111800Y0176800D01*
X0111800Y0176800D01*
X0111800Y0176651D02*
X0111800Y0176651D01*
X0111800Y0175053D02*
X0111800Y0175053D01*
X0111800Y0173454D02*
X0111800Y0173454D01*
X0111800Y0171856D02*
X0111800Y0171856D01*
X0114422Y0171856D02*
X0117896Y0171856D01*
X0119494Y0173454D02*
X0116020Y0173454D01*
X0117150Y0175053D02*
X0150088Y0175053D01*
X0151686Y0173454D02*
X0144106Y0173454D01*
X0145704Y0171856D02*
X0152000Y0171856D01*
X0152451Y0170257D02*
X0147303Y0170257D01*
X0148901Y0168659D02*
X0153653Y0168659D01*
X0150500Y0167060D02*
X0171650Y0167060D01*
X0171502Y0165462D02*
X0152098Y0165462D01*
X0148974Y0160666D02*
X0146894Y0160666D01*
X0147376Y0162265D02*
X0145295Y0162265D01*
X0145777Y0163863D02*
X0143697Y0163863D01*
X0144179Y0165462D02*
X0140422Y0165462D01*
X0142580Y0167060D02*
X0121020Y0167060D01*
X0119600Y0165462D02*
X0133178Y0165462D01*
X0132080Y0163863D02*
X0119600Y0163863D01*
X0119600Y0162265D02*
X0131650Y0162265D01*
X0131695Y0160666D02*
X0119600Y0160666D01*
X0119600Y0159068D02*
X0132358Y0159068D01*
X0133848Y0157469D02*
X0119600Y0157469D01*
X0119600Y0155870D02*
X0133587Y0155870D01*
X0132250Y0154272D02*
X0119600Y0154272D01*
X0119600Y0152673D02*
X0131650Y0152673D01*
X0131650Y0151075D02*
X0119600Y0151075D01*
X0119600Y0149476D02*
X0132188Y0149476D01*
X0133439Y0147878D02*
X0119600Y0147878D01*
X0119600Y0146279D02*
X0134248Y0146279D01*
X0132527Y0144681D02*
X0119600Y0144681D01*
X0119600Y0143082D02*
X0131802Y0143082D01*
X0131650Y0141484D02*
X0119600Y0141484D01*
X0119600Y0139885D02*
X0132007Y0139885D01*
X0133030Y0138287D02*
X0119600Y0138287D01*
X0119600Y0136688D02*
X0132677Y0136688D01*
X0131650Y0135090D02*
X0119600Y0135090D01*
X0119600Y0133491D02*
X0131650Y0133491D01*
X0131650Y0131893D02*
X0119600Y0131893D01*
X0119600Y0130294D02*
X0131650Y0130294D01*
X0131650Y0128696D02*
X0119600Y0128696D01*
X0119600Y0127097D02*
X0132491Y0127097D01*
X0141109Y0127097D02*
X0147543Y0127097D01*
X0149141Y0125499D02*
X0119600Y0125499D01*
X0119600Y0123900D02*
X0150740Y0123900D01*
X0152000Y0122302D02*
X0119600Y0122302D01*
X0119600Y0120703D02*
X0138915Y0120703D01*
X0139812Y0121600D02*
X0137000Y0118788D01*
X0137000Y0114812D01*
X0139812Y0112000D01*
X0143788Y0112000D01*
X0146600Y0114812D01*
X0146600Y0118788D01*
X0143788Y0121600D01*
X0139812Y0121600D01*
X0137317Y0119105D02*
X0119600Y0119105D01*
X0119600Y0117506D02*
X0137000Y0117506D01*
X0137000Y0115908D02*
X0119600Y0115908D01*
X0119600Y0114309D02*
X0137503Y0114309D01*
X0139101Y0112711D02*
X0119600Y0112711D01*
X0119600Y0111112D02*
X0147152Y0111112D01*
X0145554Y0109514D02*
X0119600Y0109514D01*
X0119600Y0107915D02*
X0143955Y0107915D01*
X0142640Y0106600D02*
X0139812Y0106600D01*
X0137000Y0103788D01*
X0137000Y0099812D01*
X0139812Y0097000D01*
X0143788Y0097000D01*
X0146600Y0099812D01*
X0146600Y0102640D01*
X0152886Y0108926D01*
X0154812Y0107000D01*
X0158788Y0107000D01*
X0161600Y0109812D01*
X0161600Y0113788D01*
X0158788Y0116600D01*
X0154812Y0116600D01*
X0152812Y0114600D01*
X0151243Y0114600D01*
X0150214Y0114174D01*
X0142640Y0106600D01*
X0139528Y0106317D02*
X0119600Y0106317D01*
X0119600Y0104718D02*
X0137930Y0104718D01*
X0137000Y0103120D02*
X0119600Y0103120D01*
X0119600Y0101521D02*
X0137000Y0101521D01*
X0137000Y0099923D02*
X0119600Y0099923D01*
X0119600Y0098324D02*
X0138488Y0098324D01*
X0145112Y0098324D02*
X0147000Y0098324D01*
X0147000Y0098788D02*
X0147000Y0094812D01*
X0149812Y0092000D01*
X0153788Y0092000D01*
X0156600Y0094812D01*
X0156600Y0098788D01*
X0153788Y0101600D01*
X0149812Y0101600D01*
X0147000Y0098788D01*
X0146600Y0099923D02*
X0148134Y0099923D01*
X0146600Y0101521D02*
X0149733Y0101521D01*
X0147079Y0103120D02*
X0184000Y0103120D01*
X0184000Y0104718D02*
X0148678Y0104718D01*
X0150276Y0106317D02*
X0184000Y0106317D01*
X0184000Y0107915D02*
X0159703Y0107915D01*
X0161302Y0109514D02*
X0184000Y0109514D01*
X0184000Y0111112D02*
X0161600Y0111112D01*
X0161600Y0112711D02*
X0184000Y0112711D01*
X0184000Y0114309D02*
X0161079Y0114309D01*
X0159480Y0115908D02*
X0184000Y0115908D01*
X0184000Y0117506D02*
X0159294Y0117506D01*
X0162610Y0119105D02*
X0184000Y0119105D01*
X0184000Y0120703D02*
X0164663Y0120703D01*
X0166262Y0122302D02*
X0174202Y0122302D01*
X0172427Y0123900D02*
X0167860Y0123900D01*
X0169459Y0125499D02*
X0171765Y0125499D01*
X0171650Y0127097D02*
X0171057Y0127097D01*
X0166335Y0130294D02*
X0152265Y0130294D01*
X0150667Y0131893D02*
X0167933Y0131893D01*
X0169532Y0133491D02*
X0160280Y0133491D01*
X0161600Y0134812D02*
X0158788Y0132000D01*
X0154812Y0132000D01*
X0152000Y0134812D01*
X0152000Y0138788D01*
X0154812Y0141600D01*
X0158788Y0141600D01*
X0161600Y0138788D01*
X0161600Y0134812D01*
X0161600Y0135090D02*
X0171130Y0135090D01*
X0171699Y0135658D02*
X0160714Y0124674D01*
X0158788Y0126600D01*
X0155960Y0126600D01*
X0148386Y0134174D01*
X0147357Y0134600D01*
X0141950Y0134600D01*
X0141950Y0135661D01*
X0140661Y0136950D01*
X0138539Y0136950D01*
X0138777Y0137027D01*
X0139499Y0137395D01*
X0140155Y0137872D01*
X0140728Y0138445D01*
X0141205Y0139101D01*
X0141573Y0139823D01*
X0141823Y0140594D01*
X0141950Y0141395D01*
X0141950Y0141625D01*
X0136975Y0141625D01*
X0136975Y0141975D01*
X0141950Y0141975D01*
X0141950Y0142205D01*
X0141823Y0143006D01*
X0141573Y0143777D01*
X0141205Y0144499D01*
X0140728Y0145155D01*
X0140155Y0145728D01*
X0139499Y0146205D01*
X0138777Y0146573D01*
X0138138Y0146780D01*
X0139717Y0147434D01*
X0141166Y0148883D01*
X0141950Y0150776D01*
X0141950Y0152824D01*
X0141166Y0154717D01*
X0139717Y0156166D01*
X0138187Y0156800D01*
X0139717Y0157434D01*
X0140962Y0158679D01*
X0152000Y0147640D01*
X0152000Y0144812D01*
X0154812Y0142000D01*
X0158788Y0142000D01*
X0160788Y0144000D01*
X0172385Y0144000D01*
X0172434Y0143883D01*
X0173883Y0142434D01*
X0175413Y0141800D01*
X0173883Y0141166D01*
X0172434Y0139717D01*
X0171650Y0137824D01*
X0171650Y0135776D01*
X0171699Y0135658D01*
X0171650Y0136688D02*
X0161600Y0136688D01*
X0161600Y0138287D02*
X0171842Y0138287D01*
X0172602Y0139885D02*
X0160503Y0139885D01*
X0158904Y0141484D02*
X0174650Y0141484D01*
X0173234Y0143082D02*
X0159871Y0143082D01*
X0154696Y0141484D02*
X0141950Y0141484D01*
X0141798Y0143082D02*
X0153729Y0143082D01*
X0152131Y0144681D02*
X0141073Y0144681D01*
X0139352Y0146279D02*
X0152000Y0146279D01*
X0151762Y0147878D02*
X0140161Y0147878D01*
X0141412Y0149476D02*
X0150164Y0149476D01*
X0148565Y0151075D02*
X0141950Y0151075D01*
X0141950Y0152673D02*
X0146967Y0152673D01*
X0145368Y0154272D02*
X0141350Y0154272D01*
X0140013Y0155870D02*
X0143770Y0155870D01*
X0142171Y0157469D02*
X0139752Y0157469D01*
X0148492Y0159068D02*
X0151080Y0159068D01*
X0150091Y0157469D02*
X0171650Y0157469D01*
X0171650Y0155870D02*
X0151689Y0155870D01*
X0153288Y0154272D02*
X0172273Y0154272D01*
X0173643Y0152673D02*
X0154886Y0152673D01*
X0159313Y0151075D02*
X0173792Y0151075D01*
X0179808Y0151075D02*
X0183565Y0151075D01*
X0184000Y0149476D02*
X0181266Y0149476D01*
X0181928Y0147878D02*
X0184000Y0147878D01*
X0184000Y0146279D02*
X0181950Y0146279D01*
X0181497Y0144681D02*
X0184000Y0144681D01*
X0184000Y0143082D02*
X0180366Y0143082D01*
X0178950Y0141484D02*
X0184000Y0141484D01*
X0184000Y0139885D02*
X0180998Y0139885D01*
X0181758Y0138287D02*
X0184000Y0138287D01*
X0184000Y0136688D02*
X0181950Y0136688D01*
X0181666Y0135090D02*
X0184000Y0135090D01*
X0184000Y0133491D02*
X0180775Y0133491D01*
X0178411Y0131893D02*
X0184000Y0131893D01*
X0184000Y0130294D02*
X0180589Y0130294D01*
X0181589Y0128696D02*
X0184000Y0128696D01*
X0184000Y0127097D02*
X0181950Y0127097D01*
X0181835Y0125499D02*
X0184000Y0125499D01*
X0184000Y0123900D02*
X0181173Y0123900D01*
X0179398Y0122302D02*
X0184000Y0122302D01*
X0189600Y0122302D02*
X0202287Y0122302D01*
X0201650Y0123900D02*
X0189600Y0123900D01*
X0189600Y0125499D02*
X0201650Y0125499D01*
X0201650Y0127097D02*
X0189600Y0127097D01*
X0189600Y0128696D02*
X0201650Y0128696D01*
X0201650Y0130294D02*
X0189600Y0130294D01*
X0189600Y0131893D02*
X0202882Y0131893D01*
X0202825Y0133491D02*
X0189600Y0133491D01*
X0189600Y0135090D02*
X0201934Y0135090D01*
X0201650Y0136688D02*
X0189600Y0136688D01*
X0189600Y0138287D02*
X0201842Y0138287D01*
X0202602Y0139885D02*
X0189600Y0139885D01*
X0189600Y0141484D02*
X0204650Y0141484D01*
X0203234Y0143082D02*
X0189600Y0143082D01*
X0189600Y0144681D02*
X0202103Y0144681D01*
X0201650Y0146279D02*
X0189600Y0146279D01*
X0189600Y0147878D02*
X0201672Y0147878D01*
X0202334Y0149476D02*
X0189600Y0149476D01*
X0189600Y0151075D02*
X0203792Y0151075D01*
X0203643Y0152673D02*
X0189469Y0152673D01*
X0188288Y0154272D02*
X0202273Y0154272D01*
X0201650Y0155870D02*
X0186689Y0155870D01*
X0185091Y0157469D02*
X0201650Y0157469D01*
X0202165Y0159068D02*
X0183492Y0159068D01*
X0180217Y0160666D02*
X0203383Y0160666D01*
X0204292Y0162265D02*
X0179308Y0162265D01*
X0181146Y0163863D02*
X0202454Y0163863D01*
X0201780Y0165462D02*
X0181820Y0165462D01*
X0181950Y0167060D02*
X0201650Y0167060D01*
X0201996Y0168659D02*
X0181604Y0168659D01*
X0180626Y0170257D02*
X0202974Y0170257D01*
X0205279Y0171856D02*
X0178321Y0171856D01*
X0180737Y0173454D02*
X0202863Y0173454D01*
X0201949Y0175053D02*
X0181651Y0175053D01*
X0181950Y0176651D02*
X0201650Y0176651D01*
X0201826Y0178250D02*
X0181774Y0178250D01*
X0181035Y0179848D02*
X0202565Y0179848D01*
X0204560Y0181447D02*
X0179040Y0181447D01*
X0180328Y0183045D02*
X0203272Y0183045D01*
X0202119Y0184644D02*
X0181481Y0184644D01*
X0181950Y0186242D02*
X0201674Y0186242D01*
X0201751Y0187841D02*
X0181943Y0187841D01*
X0181281Y0189439D02*
X0202365Y0189439D01*
X0203871Y0191038D02*
X0179845Y0191038D01*
X0174924Y0192636D02*
X0214000Y0192636D01*
X0214000Y0191038D02*
X0209729Y0191038D01*
X0209499Y0191205D02*
X0208777Y0191573D01*
X0208006Y0191823D01*
X0207205Y0191950D01*
X0206975Y0191950D01*
X0206975Y0186975D01*
X0211950Y0186975D01*
X0211950Y0187205D01*
X0211823Y0188006D01*
X0211573Y0188777D01*
X0211205Y0189499D01*
X0210728Y0190155D01*
X0210155Y0190728D01*
X0209499Y0191205D01*
X0211235Y0189439D02*
X0214000Y0189439D01*
X0213881Y0187841D02*
X0211849Y0187841D01*
X0211926Y0186242D02*
X0212282Y0186242D01*
X0206975Y0187841D02*
X0206625Y0187841D01*
X0206625Y0189439D02*
X0206975Y0189439D01*
X0206975Y0191038D02*
X0206625Y0191038D01*
X0214000Y0194235D02*
X0160653Y0194235D01*
X0159600Y0195833D02*
X0214000Y0195833D01*
X0214031Y0197432D02*
X0159600Y0197432D01*
X0159600Y0199030D02*
X0215070Y0199030D01*
X0216669Y0200629D02*
X0159600Y0200629D01*
X0159600Y0202227D02*
X0169584Y0202227D01*
X0169812Y0202000D02*
X0173788Y0202000D01*
X0175788Y0204000D01*
X0197357Y0204000D01*
X0198386Y0204426D01*
X0210960Y0217000D01*
X0213788Y0217000D01*
X0216600Y0219812D01*
X0216600Y0223788D01*
X0213788Y0226600D01*
X0209812Y0226600D01*
X0207000Y0223788D01*
X0207000Y0220960D01*
X0195640Y0209600D01*
X0175788Y0209600D01*
X0173788Y0211600D01*
X0169812Y0211600D01*
X0167000Y0208788D01*
X0167000Y0204812D01*
X0169812Y0202000D01*
X0167986Y0203826D02*
X0159600Y0203826D01*
X0159600Y0205424D02*
X0167000Y0205424D01*
X0167000Y0207023D02*
X0159600Y0207023D01*
X0159600Y0208621D02*
X0167000Y0208621D01*
X0168432Y0210220D02*
X0159600Y0210220D01*
X0159600Y0211818D02*
X0197859Y0211818D01*
X0199457Y0213417D02*
X0159600Y0213417D01*
X0159600Y0215015D02*
X0201056Y0215015D01*
X0202654Y0216614D02*
X0159600Y0216614D01*
X0159600Y0218212D02*
X0168599Y0218212D01*
X0169812Y0217000D02*
X0167000Y0219812D01*
X0167000Y0223788D01*
X0169812Y0226600D01*
X0173788Y0226600D01*
X0176600Y0223788D01*
X0176600Y0219812D01*
X0173788Y0217000D01*
X0169812Y0217000D01*
X0167001Y0219811D02*
X0159600Y0219811D01*
X0159600Y0221409D02*
X0167000Y0221409D01*
X0167000Y0223008D02*
X0159600Y0223008D01*
X0159600Y0224606D02*
X0167818Y0224606D01*
X0169417Y0226205D02*
X0159600Y0226205D01*
X0159415Y0227803D02*
X0219000Y0227803D01*
X0219000Y0226205D02*
X0214183Y0226205D01*
X0215782Y0224606D02*
X0219000Y0224606D01*
X0219000Y0223008D02*
X0216600Y0223008D01*
X0216600Y0221409D02*
X0219000Y0221409D01*
X0219000Y0219811D02*
X0216599Y0219811D01*
X0215001Y0218212D02*
X0219000Y0218212D01*
X0219000Y0216614D02*
X0210574Y0216614D01*
X0208975Y0215015D02*
X0219000Y0215015D01*
X0219000Y0213417D02*
X0207377Y0213417D01*
X0205778Y0211818D02*
X0219000Y0211818D01*
X0219000Y0210220D02*
X0215168Y0210220D01*
X0213788Y0211600D02*
X0216600Y0208788D01*
X0216600Y0206800D01*
X0211800Y0206800D01*
X0211800Y0206800D01*
X0211800Y0206800D01*
X0211800Y0211600D01*
X0213788Y0211600D01*
X0211800Y0211600D02*
X0209812Y0211600D01*
X0207000Y0208788D01*
X0207000Y0206800D01*
X0211800Y0206800D01*
X0216600Y0206800D01*
X0216600Y0204812D01*
X0213788Y0202000D01*
X0211800Y0202000D01*
X0211800Y0206800D01*
X0211800Y0206800D01*
X0211800Y0206800D01*
X0211800Y0211600D01*
X0211800Y0210220D02*
X0211800Y0210220D01*
X0211800Y0208621D02*
X0211800Y0208621D01*
X0211800Y0207023D02*
X0211800Y0207023D01*
X0211800Y0206800D02*
X0207000Y0206800D01*
X0207000Y0204812D01*
X0209812Y0202000D01*
X0211800Y0202000D01*
X0211800Y0206800D01*
X0211800Y0205424D02*
X0211800Y0205424D01*
X0211800Y0203826D02*
X0211800Y0203826D01*
X0211800Y0202227D02*
X0211800Y0202227D01*
X0214016Y0202227D02*
X0218268Y0202227D01*
X0219000Y0203826D02*
X0215614Y0203826D01*
X0216600Y0205424D02*
X0219000Y0205424D01*
X0219000Y0207023D02*
X0216600Y0207023D01*
X0216600Y0208621D02*
X0219000Y0208621D01*
X0229600Y0208621D02*
X0232000Y0208621D01*
X0232000Y0207023D02*
X0229600Y0207023D01*
X0229600Y0205424D02*
X0232000Y0205424D01*
X0232986Y0203826D02*
X0229600Y0203826D01*
X0229600Y0210220D02*
X0233432Y0210220D01*
X0241600Y0227803D02*
X0254008Y0227803D01*
X0252410Y0229402D02*
X0240986Y0229402D01*
X0239388Y0231001D02*
X0252000Y0231001D01*
X0230033Y0238993D02*
X0224600Y0238993D01*
X0224600Y0237395D02*
X0228435Y0237395D01*
X0226836Y0235796D02*
X0224600Y0235796D01*
X0224600Y0234198D02*
X0225238Y0234198D01*
X0219000Y0234198D02*
X0153329Y0234198D01*
X0154961Y0232599D02*
X0219000Y0232599D01*
X0219000Y0231001D02*
X0156559Y0231001D01*
X0158158Y0229402D02*
X0219000Y0229402D01*
X0209417Y0226205D02*
X0174183Y0226205D01*
X0175782Y0224606D02*
X0207818Y0224606D01*
X0207000Y0223008D02*
X0176600Y0223008D01*
X0176600Y0221409D02*
X0207000Y0221409D01*
X0205851Y0219811D02*
X0176599Y0219811D01*
X0175001Y0218212D02*
X0204253Y0218212D01*
X0204180Y0210220D02*
X0208432Y0210220D01*
X0207000Y0208621D02*
X0202581Y0208621D01*
X0200983Y0207023D02*
X0207000Y0207023D01*
X0207000Y0205424D02*
X0199384Y0205424D01*
X0196260Y0210220D02*
X0175168Y0210220D01*
X0175614Y0203826D02*
X0207986Y0203826D01*
X0209584Y0202227D02*
X0174016Y0202227D01*
X0171657Y0187841D02*
X0160129Y0187841D01*
X0153471Y0187841D02*
X0144719Y0187841D01*
X0143121Y0189439D02*
X0152375Y0189439D01*
X0152000Y0191038D02*
X0141522Y0191038D01*
X0139924Y0192636D02*
X0152158Y0192636D01*
X0152947Y0194235D02*
X0138325Y0194235D01*
X0136727Y0195833D02*
X0154000Y0195833D01*
X0154000Y0197432D02*
X0135128Y0197432D01*
X0134600Y0199030D02*
X0154000Y0199030D01*
X0154000Y0200629D02*
X0134600Y0200629D01*
X0134600Y0202227D02*
X0154000Y0202227D01*
X0154000Y0203826D02*
X0134600Y0203826D01*
X0134600Y0205424D02*
X0154000Y0205424D01*
X0154000Y0207023D02*
X0134600Y0207023D01*
X0134600Y0208621D02*
X0154000Y0208621D01*
X0154000Y0210220D02*
X0134600Y0210220D01*
X0134600Y0211818D02*
X0154000Y0211818D01*
X0154000Y0213417D02*
X0145205Y0213417D01*
X0146600Y0214812D02*
X0146600Y0216800D01*
X0146600Y0218788D01*
X0143788Y0221600D01*
X0141800Y0221600D01*
X0141800Y0216800D01*
X0146600Y0216800D01*
X0141800Y0216800D01*
X0141800Y0216800D01*
X0141800Y0216800D01*
X0141800Y0212000D01*
X0143788Y0212000D01*
X0146600Y0214812D01*
X0146600Y0215015D02*
X0154000Y0215015D01*
X0154000Y0216614D02*
X0146600Y0216614D01*
X0146600Y0218212D02*
X0154000Y0218212D01*
X0154000Y0219811D02*
X0145577Y0219811D01*
X0143979Y0221409D02*
X0154000Y0221409D01*
X0154000Y0223008D02*
X0101600Y0223008D01*
X0101600Y0223788D02*
X0098788Y0226600D01*
X0094812Y0226600D01*
X0092000Y0223788D01*
X0092000Y0219812D01*
X0094812Y0217000D01*
X0098788Y0217000D01*
X0101600Y0219812D01*
X0101600Y0223788D01*
X0100782Y0224606D02*
X0154000Y0224606D01*
X0153435Y0226205D02*
X0099183Y0226205D01*
X0094417Y0226205D02*
X0079183Y0226205D01*
X0078788Y0226600D02*
X0076800Y0226600D01*
X0076800Y0221800D01*
X0081600Y0221800D01*
X0081600Y0223788D01*
X0078788Y0226600D01*
X0076800Y0226600D02*
X0076800Y0221800D01*
X0076800Y0221800D01*
X0076800Y0221800D01*
X0081600Y0221800D01*
X0081600Y0219812D01*
X0078788Y0217000D01*
X0076800Y0217000D01*
X0076800Y0221800D01*
X0076800Y0221800D01*
X0076800Y0221800D01*
X0072000Y0221800D01*
X0072000Y0223788D01*
X0074812Y0226600D01*
X0076800Y0226600D01*
X0076800Y0226205D02*
X0076800Y0226205D01*
X0076800Y0224606D02*
X0076800Y0224606D01*
X0076800Y0223008D02*
X0076800Y0223008D01*
X0076800Y0221800D02*
X0072000Y0221800D01*
X0072000Y0219812D01*
X0074812Y0217000D01*
X0076800Y0217000D01*
X0076800Y0221800D01*
X0076800Y0221409D02*
X0076800Y0221409D01*
X0076800Y0219811D02*
X0076800Y0219811D01*
X0076800Y0218212D02*
X0076800Y0218212D01*
X0080001Y0218212D02*
X0093599Y0218212D01*
X0092001Y0219811D02*
X0081599Y0219811D01*
X0081600Y0221409D02*
X0092000Y0221409D01*
X0092000Y0223008D02*
X0081600Y0223008D01*
X0080782Y0224606D02*
X0092818Y0224606D01*
X0101600Y0221409D02*
X0108843Y0221409D01*
X0107245Y0219811D02*
X0101599Y0219811D01*
X0100001Y0218212D02*
X0106450Y0218212D01*
X0106450Y0216614D02*
X0024000Y0216614D01*
X0024000Y0218212D02*
X0073599Y0218212D01*
X0072001Y0219811D02*
X0024000Y0219811D01*
X0024000Y0221409D02*
X0072000Y0221409D01*
X0072000Y0223008D02*
X0024000Y0223008D01*
X0024000Y0224606D02*
X0072818Y0224606D01*
X0074417Y0226205D02*
X0024000Y0226205D01*
X0024000Y0234198D02*
X0045766Y0234198D01*
X0043844Y0235796D02*
X0024000Y0235796D01*
X0024000Y0237395D02*
X0042246Y0237395D01*
X0040647Y0238993D02*
X0024000Y0238993D01*
X0024000Y0240592D02*
X0039049Y0240592D01*
X0035021Y0242190D02*
X0024000Y0242190D01*
X0024000Y0243789D02*
X0032898Y0243789D01*
X0032131Y0245387D02*
X0024000Y0245387D01*
X0024000Y0246986D02*
X0031957Y0246986D01*
X0032285Y0248584D02*
X0024000Y0248584D01*
X0024000Y0250183D02*
X0033269Y0250183D01*
X0034157Y0251781D02*
X0024000Y0251781D01*
X0024000Y0253380D02*
X0034157Y0253380D01*
X0034157Y0254978D02*
X0024000Y0254978D01*
X0024000Y0256577D02*
X0034157Y0256577D01*
X0034157Y0258175D02*
X0024000Y0258175D01*
X0024000Y0259774D02*
X0034157Y0259774D01*
X0034157Y0261372D02*
X0024000Y0261372D01*
X0024000Y0262971D02*
X0034157Y0262971D01*
X0034157Y0264569D02*
X0024000Y0264569D01*
X0024000Y0266168D02*
X0034157Y0266168D01*
X0034157Y0267766D02*
X0024000Y0267766D01*
X0024000Y0269365D02*
X0034157Y0269365D01*
X0034157Y0270963D02*
X0024000Y0270963D01*
X0024000Y0272562D02*
X0034157Y0272562D01*
X0034157Y0274160D02*
X0024000Y0274160D01*
X0024000Y0275759D02*
X0034157Y0275759D01*
X0034157Y0277357D02*
X0024000Y0277357D01*
X0024000Y0278956D02*
X0034157Y0278956D01*
X0034157Y0280554D02*
X0024000Y0280554D01*
X0024000Y0282153D02*
X0034157Y0282153D01*
X0034792Y0283751D02*
X0024000Y0283751D01*
X0024000Y0294941D02*
X0027000Y0294941D01*
X0027000Y0296539D02*
X0024000Y0296539D01*
X0024000Y0298138D02*
X0027000Y0298138D01*
X0027948Y0299737D02*
X0024000Y0299737D01*
X0024000Y0301335D02*
X0029547Y0301335D01*
X0035652Y0299737D02*
X0044904Y0299737D01*
X0046502Y0298138D02*
X0036600Y0298138D01*
X0036600Y0296539D02*
X0047000Y0296539D01*
X0045981Y0294941D02*
X0036600Y0294941D01*
X0035131Y0293342D02*
X0044383Y0293342D01*
X0059232Y0309328D02*
X0087055Y0309328D01*
X0086783Y0309703D02*
X0087347Y0308926D01*
X0088026Y0308247D01*
X0088803Y0307683D01*
X0089658Y0307247D01*
X0090572Y0306950D01*
X0091500Y0306803D01*
X0091500Y0316300D01*
X0085900Y0316300D01*
X0085900Y0312420D01*
X0086050Y0311472D01*
X0086347Y0310558D01*
X0086783Y0309703D01*
X0086227Y0310926D02*
X0057634Y0310926D01*
X0056600Y0312525D02*
X0085900Y0312525D01*
X0085900Y0314123D02*
X0056265Y0314123D01*
X0054667Y0315722D02*
X0085900Y0315722D01*
X0085900Y0317300D02*
X0091500Y0317300D01*
X0091500Y0326797D01*
X0090572Y0326650D01*
X0089658Y0326353D01*
X0088803Y0325917D01*
X0088026Y0325353D01*
X0087347Y0324674D01*
X0086783Y0323897D01*
X0086347Y0323042D01*
X0086050Y0322128D01*
X0085900Y0321180D01*
X0085900Y0317300D01*
X0085900Y0317320D02*
X0054600Y0317320D01*
X0054600Y0318919D02*
X0085900Y0318919D01*
X0085900Y0320517D02*
X0054600Y0320517D01*
X0054600Y0322116D02*
X0086048Y0322116D01*
X0086690Y0323714D02*
X0054618Y0323714D01*
X0056391Y0325313D02*
X0087986Y0325313D01*
X0091500Y0325313D02*
X0092500Y0325313D01*
X0092500Y0326797D02*
X0092500Y0317300D01*
X0091500Y0317300D01*
X0091500Y0316300D01*
X0092500Y0316300D01*
X0092500Y0317300D01*
X0098100Y0317300D01*
X0098100Y0321180D01*
X0097950Y0322128D01*
X0097653Y0323042D01*
X0097217Y0323897D01*
X0096653Y0324674D01*
X0095974Y0325353D01*
X0095197Y0325917D01*
X0094342Y0326353D01*
X0093428Y0326650D01*
X0092500Y0326797D01*
X0092500Y0323714D02*
X0091500Y0323714D01*
X0091500Y0322116D02*
X0092500Y0322116D01*
X0092500Y0320517D02*
X0091500Y0320517D01*
X0091500Y0318919D02*
X0092500Y0318919D01*
X0092500Y0317320D02*
X0091500Y0317320D01*
X0092500Y0316300D02*
X0092500Y0306803D01*
X0093428Y0306950D01*
X0094342Y0307247D01*
X0095197Y0307683D01*
X0095974Y0308247D01*
X0096653Y0308926D01*
X0097217Y0309703D01*
X0097653Y0310558D01*
X0097950Y0311472D01*
X0098100Y0312420D01*
X0098100Y0316300D01*
X0092500Y0316300D01*
X0092500Y0315722D02*
X0091500Y0315722D01*
X0091500Y0314123D02*
X0092500Y0314123D01*
X0092500Y0312525D02*
X0091500Y0312525D01*
X0091500Y0310926D02*
X0092500Y0310926D01*
X0092500Y0309328D02*
X0091500Y0309328D01*
X0091500Y0307729D02*
X0092500Y0307729D01*
X0095261Y0307729D02*
X0108244Y0307729D01*
X0106646Y0309328D02*
X0096944Y0309328D01*
X0097773Y0310926D02*
X0105915Y0310926D01*
X0105600Y0312525D02*
X0098100Y0312525D01*
X0098100Y0314123D02*
X0105600Y0314123D01*
X0105600Y0315722D02*
X0098100Y0315722D01*
X0098100Y0317320D02*
X0105600Y0317320D01*
X0105600Y0318919D02*
X0098100Y0318919D01*
X0098100Y0320517D02*
X0105600Y0320517D01*
X0105684Y0322116D02*
X0097952Y0322116D01*
X0097310Y0323714D02*
X0106346Y0323714D01*
X0107686Y0325313D02*
X0096014Y0325313D01*
X0088739Y0307729D02*
X0060831Y0307729D01*
X0064888Y0306131D02*
X0068342Y0306131D01*
X0070800Y0306131D02*
X0070800Y0306131D01*
X0070800Y0304532D02*
X0070800Y0304532D01*
X0070800Y0302934D02*
X0070800Y0302934D01*
X0070800Y0301800D02*
X0070800Y0297000D01*
X0070800Y0301800D01*
X0070800Y0301800D01*
X0070800Y0301335D02*
X0070800Y0301335D01*
X0070800Y0299737D02*
X0070800Y0299737D01*
X0070800Y0298138D02*
X0070800Y0298138D01*
X0073926Y0298138D02*
X0120937Y0298138D01*
X0119338Y0299737D02*
X0075525Y0299737D01*
X0075600Y0301335D02*
X0117739Y0301335D01*
X0116141Y0302934D02*
X0075600Y0302934D01*
X0074856Y0304532D02*
X0114542Y0304532D01*
X0112944Y0306131D02*
X0073258Y0306131D01*
X0067674Y0298138D02*
X0065926Y0298138D01*
X0048933Y0315722D02*
X0044600Y0315722D01*
X0044600Y0317320D02*
X0049000Y0317320D01*
X0049000Y0318919D02*
X0043641Y0318919D01*
X0042043Y0320517D02*
X0049000Y0320517D01*
X0042100Y0323714D02*
X0041500Y0323714D01*
X0057095Y0326911D02*
X0156450Y0326911D01*
X0156450Y0328510D02*
X0057300Y0328510D01*
X0115714Y0325313D02*
X0157721Y0325313D01*
X0159320Y0323714D02*
X0117054Y0323714D01*
X0117800Y0318919D02*
X0158353Y0318919D01*
X0157053Y0317320D02*
X0117800Y0317320D01*
X0117800Y0315722D02*
X0156450Y0315722D01*
X0156450Y0314123D02*
X0132940Y0314123D01*
X0130660Y0314123D02*
X0117800Y0314123D01*
X0117800Y0312525D02*
X0128136Y0312525D01*
X0127237Y0310926D02*
X0117485Y0310926D01*
X0118798Y0309328D02*
X0127000Y0309328D01*
X0127000Y0307729D02*
X0120396Y0307729D01*
X0121995Y0306131D02*
X0127000Y0306131D01*
X0127000Y0304532D02*
X0123593Y0304532D01*
X0125192Y0302934D02*
X0127129Y0302934D01*
X0126790Y0301335D02*
X0127877Y0301335D01*
X0128389Y0299737D02*
X0130033Y0299737D01*
X0129987Y0298138D02*
X0158600Y0298138D01*
X0158600Y0299737D02*
X0133567Y0299737D01*
X0135723Y0301335D02*
X0158600Y0301335D01*
X0158600Y0302934D02*
X0136471Y0302934D01*
X0136363Y0310926D02*
X0156401Y0310926D01*
X0156952Y0312525D02*
X0135464Y0312525D01*
X0131586Y0296539D02*
X0158600Y0296539D01*
X0158600Y0294941D02*
X0133184Y0294941D01*
X0134783Y0293342D02*
X0158600Y0293342D01*
X0158600Y0291744D02*
X0136382Y0291744D01*
X0137980Y0290145D02*
X0158600Y0290145D01*
X0158600Y0288547D02*
X0139579Y0288547D01*
X0155446Y0286948D02*
X0158600Y0286948D01*
X0158600Y0285350D02*
X0156925Y0285350D01*
X0157588Y0283751D02*
X0158600Y0283751D01*
X0158600Y0282153D02*
X0157850Y0282153D01*
X0157850Y0280554D02*
X0158600Y0280554D01*
X0158600Y0278956D02*
X0157218Y0278956D01*
X0156152Y0277357D02*
X0158600Y0277357D01*
X0158600Y0275759D02*
X0153952Y0275759D01*
X0158600Y0274160D02*
X0132302Y0274160D01*
X0131324Y0272562D02*
X0158036Y0272562D01*
X0171600Y0261372D02*
X0213268Y0261372D01*
X0213419Y0259774D02*
X0171562Y0259774D01*
X0163637Y0258175D02*
X0149963Y0258175D01*
X0155206Y0250183D02*
X0158394Y0250183D01*
X0157000Y0248584D02*
X0156600Y0248584D01*
X0156600Y0246986D02*
X0157000Y0246986D01*
X0157000Y0245387D02*
X0156600Y0245387D01*
X0155577Y0243789D02*
X0158023Y0243789D01*
X0159622Y0242190D02*
X0153978Y0242190D01*
X0151837Y0227803D02*
X0144592Y0227803D01*
X0141800Y0221600D02*
X0139812Y0221600D01*
X0137000Y0218788D01*
X0137000Y0216800D01*
X0141800Y0216800D01*
X0141800Y0216800D01*
X0141800Y0216800D01*
X0141800Y0221600D01*
X0141800Y0221409D02*
X0141800Y0221409D01*
X0141800Y0219811D02*
X0141800Y0219811D01*
X0141800Y0218212D02*
X0141800Y0218212D01*
X0141800Y0216800D02*
X0137000Y0216800D01*
X0137000Y0214812D01*
X0139812Y0212000D01*
X0141800Y0212000D01*
X0141800Y0216800D01*
X0141800Y0216614D02*
X0141800Y0216614D01*
X0141800Y0215015D02*
X0141800Y0215015D01*
X0141800Y0213417D02*
X0141800Y0213417D01*
X0138395Y0213417D02*
X0135205Y0213417D01*
X0136600Y0215015D02*
X0137000Y0215015D01*
X0137000Y0216614D02*
X0136600Y0216614D01*
X0136600Y0218212D02*
X0137000Y0218212D01*
X0138023Y0219811D02*
X0135577Y0219811D01*
X0133979Y0221409D02*
X0139621Y0221409D01*
X0133602Y0191038D02*
X0099350Y0191038D01*
X0100949Y0189439D02*
X0135201Y0189439D01*
X0136799Y0187841D02*
X0101600Y0187841D01*
X0101600Y0186242D02*
X0138398Y0186242D01*
X0139997Y0184644D02*
X0101432Y0184644D01*
X0099833Y0183045D02*
X0141595Y0183045D01*
X0143194Y0181447D02*
X0114719Y0181447D01*
X0116318Y0179848D02*
X0144792Y0179848D01*
X0146891Y0178250D02*
X0117150Y0178250D01*
X0117150Y0176651D02*
X0148489Y0176651D01*
X0153212Y0179848D02*
X0172565Y0179848D01*
X0171826Y0178250D02*
X0154810Y0178250D01*
X0158838Y0176651D02*
X0171650Y0176651D01*
X0171996Y0168659D02*
X0159947Y0168659D01*
X0151613Y0181447D02*
X0174560Y0181447D01*
X0173272Y0183045D02*
X0150015Y0183045D01*
X0147916Y0184644D02*
X0172119Y0184644D01*
X0171650Y0186242D02*
X0146318Y0186242D01*
X0140982Y0168659D02*
X0122618Y0168659D01*
X0116297Y0170257D02*
X0074217Y0170257D01*
X0075815Y0171856D02*
X0109178Y0171856D01*
X0107580Y0173454D02*
X0077414Y0173454D01*
X0079012Y0175053D02*
X0106450Y0175053D01*
X0106450Y0176651D02*
X0080611Y0176651D01*
X0082209Y0178250D02*
X0106450Y0178250D01*
X0107282Y0179848D02*
X0083808Y0179848D01*
X0077487Y0181447D02*
X0060406Y0181447D01*
X0059600Y0179848D02*
X0075888Y0179848D01*
X0074290Y0178250D02*
X0059600Y0178250D01*
X0059600Y0176651D02*
X0064085Y0176651D01*
X0062487Y0175053D02*
X0061113Y0175053D01*
X0061225Y0168659D02*
X0062375Y0168659D01*
X0063974Y0167060D02*
X0059337Y0167060D01*
X0054263Y0167060D02*
X0044626Y0167060D01*
X0044016Y0166450D02*
X0047150Y0169584D01*
X0047150Y0171800D01*
X0047150Y0174016D01*
X0044016Y0177150D01*
X0041800Y0177150D01*
X0041800Y0171800D01*
X0047150Y0171800D01*
X0041800Y0171800D01*
X0041800Y0171800D01*
X0041800Y0171800D01*
X0041800Y0166450D01*
X0044016Y0166450D01*
X0041800Y0166450D02*
X0041800Y0171800D01*
X0041800Y0171800D01*
X0041800Y0177150D01*
X0039584Y0177150D01*
X0036608Y0174174D01*
X0036335Y0174831D01*
X0034831Y0176335D01*
X0032864Y0177150D01*
X0030736Y0177150D01*
X0028769Y0176335D01*
X0027264Y0174831D01*
X0026450Y0172864D01*
X0026450Y0170736D01*
X0027264Y0168769D01*
X0028769Y0167264D01*
X0030736Y0166450D01*
X0032864Y0166450D01*
X0034831Y0167264D01*
X0036335Y0168769D01*
X0036608Y0169426D01*
X0039584Y0166450D01*
X0041800Y0166450D01*
X0041800Y0167060D02*
X0041800Y0167060D01*
X0041800Y0168659D02*
X0041800Y0168659D01*
X0041800Y0170257D02*
X0041800Y0170257D01*
X0041800Y0171856D02*
X0041800Y0171856D01*
X0041800Y0173454D02*
X0041800Y0173454D01*
X0041800Y0175053D02*
X0041800Y0175053D01*
X0041800Y0176651D02*
X0041800Y0176651D01*
X0039085Y0176651D02*
X0034069Y0176651D01*
X0036113Y0175053D02*
X0037487Y0175053D01*
X0037375Y0168659D02*
X0036225Y0168659D01*
X0034337Y0167060D02*
X0038974Y0167060D01*
X0046225Y0168659D02*
X0052375Y0168659D01*
X0051648Y0170257D02*
X0047150Y0170257D01*
X0047150Y0171856D02*
X0051450Y0171856D01*
X0051694Y0173454D02*
X0047150Y0173454D01*
X0046113Y0175053D02*
X0052487Y0175053D01*
X0054000Y0176651D02*
X0044515Y0176651D01*
X0051595Y0183045D02*
X0024000Y0183045D01*
X0024000Y0181447D02*
X0053194Y0181447D01*
X0054000Y0179848D02*
X0024000Y0179848D01*
X0024000Y0178250D02*
X0054000Y0178250D01*
X0049997Y0184644D02*
X0024000Y0184644D01*
X0024000Y0186242D02*
X0048398Y0186242D01*
X0046799Y0187841D02*
X0024000Y0187841D01*
X0024000Y0189439D02*
X0045201Y0189439D01*
X0043602Y0191038D02*
X0024000Y0191038D01*
X0024000Y0192636D02*
X0042004Y0192636D01*
X0040405Y0194235D02*
X0024000Y0194235D01*
X0024000Y0195833D02*
X0038807Y0195833D01*
X0034438Y0197432D02*
X0024000Y0197432D01*
X0024000Y0199030D02*
X0032693Y0199030D01*
X0032031Y0200629D02*
X0024000Y0200629D01*
X0024000Y0202227D02*
X0031957Y0202227D01*
X0032385Y0203826D02*
X0024000Y0203826D01*
X0024000Y0205424D02*
X0033511Y0205424D01*
X0040404Y0205424D02*
X0053196Y0205424D01*
X0053810Y0206039D02*
X0052404Y0204632D01*
X0051643Y0202795D01*
X0051643Y0200805D01*
X0052404Y0198968D01*
X0053810Y0197561D01*
X0055648Y0196800D01*
X0057637Y0196800D01*
X0059475Y0197561D01*
X0060881Y0198968D01*
X0061643Y0200805D01*
X0061643Y0202795D01*
X0060881Y0204632D01*
X0059475Y0206039D01*
X0057637Y0206800D01*
X0055648Y0206800D01*
X0053810Y0206039D01*
X0052070Y0203826D02*
X0041530Y0203826D01*
X0041957Y0202227D02*
X0051643Y0202227D01*
X0051716Y0200629D02*
X0041931Y0200629D01*
X0043529Y0199030D02*
X0052378Y0199030D01*
X0054123Y0197432D02*
X0045128Y0197432D01*
X0046727Y0195833D02*
X0066873Y0195833D01*
X0065275Y0194235D02*
X0048325Y0194235D01*
X0049924Y0192636D02*
X0063676Y0192636D01*
X0062078Y0191038D02*
X0051522Y0191038D01*
X0053121Y0189439D02*
X0060479Y0189439D01*
X0058881Y0187841D02*
X0054719Y0187841D01*
X0056318Y0186242D02*
X0057282Y0186242D01*
X0062005Y0183045D02*
X0073767Y0183045D01*
X0074812Y0182000D02*
X0076800Y0182000D01*
X0076800Y0186800D01*
X0076800Y0186800D01*
X0076800Y0186800D01*
X0072000Y0186800D01*
X0072000Y0188788D01*
X0074812Y0191600D01*
X0076800Y0191600D01*
X0076800Y0186800D01*
X0072000Y0186800D01*
X0072000Y0184812D01*
X0074812Y0182000D01*
X0076800Y0183045D02*
X0076800Y0183045D01*
X0076800Y0184644D02*
X0076800Y0184644D01*
X0076800Y0186242D02*
X0076800Y0186242D01*
X0076800Y0187841D02*
X0076800Y0187841D01*
X0076800Y0189439D02*
X0076800Y0189439D01*
X0076800Y0191038D02*
X0076800Y0191038D01*
X0079350Y0191038D02*
X0084000Y0191038D01*
X0084000Y0192636D02*
X0071596Y0192636D01*
X0069998Y0191038D02*
X0074250Y0191038D01*
X0072651Y0189439D02*
X0068399Y0189439D01*
X0066801Y0187841D02*
X0072000Y0187841D01*
X0072000Y0186242D02*
X0065202Y0186242D01*
X0063603Y0184644D02*
X0072168Y0184644D01*
X0072691Y0176651D02*
X0069515Y0176651D01*
X0071225Y0168659D02*
X0114699Y0168659D01*
X0114000Y0167060D02*
X0069626Y0167060D01*
X0059155Y0151871D02*
X0056913Y0152800D01*
X0046687Y0152800D01*
X0044445Y0151871D01*
X0042729Y0150155D01*
X0042457Y0149500D01*
X0041143Y0149500D01*
X0040114Y0149074D01*
X0035214Y0144174D01*
X0034426Y0143386D01*
X0034000Y0142357D01*
X0034000Y0121243D01*
X0034426Y0120214D01*
X0039426Y0115214D01*
X0040214Y0114426D01*
X0041243Y0114000D01*
X0087357Y0114000D01*
X0088386Y0114426D01*
X0089174Y0115214D01*
X0090960Y0117000D01*
X0093788Y0117000D01*
X0096600Y0119812D01*
X0096600Y0123788D01*
X0094600Y0125788D01*
X0094600Y0130640D01*
X0102638Y0138679D01*
X0103883Y0137434D01*
X0105413Y0136800D01*
X0103883Y0136166D01*
X0102434Y0134717D01*
X0101650Y0132824D01*
X0101650Y0130776D01*
X0102434Y0128883D01*
X0103883Y0127434D01*
X0105776Y0126650D01*
X0107824Y0126650D01*
X0109717Y0127434D01*
X0111166Y0128883D01*
X0111950Y0130776D01*
X0111950Y0132824D01*
X0111166Y0134717D01*
X0109717Y0136166D01*
X0108187Y0136800D01*
X0109717Y0137434D01*
X0111166Y0138883D01*
X0111950Y0140776D01*
X0111950Y0142824D01*
X0111166Y0144717D01*
X0109717Y0146166D01*
X0108187Y0146800D01*
X0109717Y0147434D01*
X0111166Y0148883D01*
X0111950Y0150776D01*
X0111950Y0152824D01*
X0111166Y0154717D01*
X0109717Y0156166D01*
X0108187Y0156800D01*
X0109717Y0157434D01*
X0111166Y0158883D01*
X0111950Y0160776D01*
X0111950Y0162824D01*
X0111166Y0164717D01*
X0109717Y0166166D01*
X0107824Y0166950D01*
X0105776Y0166950D01*
X0103883Y0166166D01*
X0102434Y0164717D01*
X0101650Y0162824D01*
X0101650Y0160776D01*
X0102434Y0158883D01*
X0103883Y0157434D01*
X0105413Y0156800D01*
X0103883Y0156166D01*
X0102638Y0154921D01*
X0096600Y0160960D01*
X0096600Y0163788D01*
X0093788Y0166600D01*
X0089812Y0166600D01*
X0087000Y0163788D01*
X0087000Y0159812D01*
X0089000Y0157812D01*
X0089000Y0152960D01*
X0065640Y0129600D01*
X0061226Y0129600D01*
X0060871Y0130455D01*
X0059155Y0132171D01*
X0056913Y0133100D01*
X0046687Y0133100D01*
X0044445Y0132171D01*
X0042729Y0130455D01*
X0041800Y0128213D01*
X0041800Y0125787D01*
X0042729Y0123545D01*
X0044445Y0121829D01*
X0046687Y0120900D01*
X0056913Y0120900D01*
X0059155Y0121829D01*
X0060871Y0123545D01*
X0061060Y0124000D01*
X0067357Y0124000D01*
X0068386Y0124426D01*
X0093386Y0149426D01*
X0094174Y0150214D01*
X0094600Y0151243D01*
X0094600Y0155040D01*
X0100214Y0149426D01*
X0101243Y0149000D01*
X0102385Y0149000D01*
X0102434Y0148883D01*
X0103883Y0147434D01*
X0105413Y0146800D01*
X0103883Y0146166D01*
X0102434Y0144717D01*
X0102385Y0144600D01*
X0101243Y0144600D01*
X0100214Y0144174D01*
X0090214Y0134174D01*
X0089426Y0133386D01*
X0089000Y0132357D01*
X0089000Y0125788D01*
X0087000Y0123788D01*
X0087000Y0120960D01*
X0085640Y0119600D01*
X0042960Y0119600D01*
X0039600Y0122960D01*
X0039600Y0140640D01*
X0042575Y0143615D01*
X0042729Y0143245D01*
X0044445Y0141529D01*
X0046687Y0140600D01*
X0056913Y0140600D01*
X0059155Y0141529D01*
X0060871Y0143245D01*
X0061800Y0145487D01*
X0061800Y0147913D01*
X0060871Y0150155D01*
X0059155Y0151871D01*
X0059952Y0151075D02*
X0087115Y0151075D01*
X0085517Y0149476D02*
X0061153Y0149476D01*
X0061800Y0147878D02*
X0083918Y0147878D01*
X0082320Y0146279D02*
X0061800Y0146279D01*
X0061466Y0144681D02*
X0080721Y0144681D01*
X0079123Y0143082D02*
X0060709Y0143082D01*
X0059047Y0141484D02*
X0077524Y0141484D01*
X0075926Y0139885D02*
X0039600Y0139885D01*
X0039600Y0138287D02*
X0074327Y0138287D01*
X0072729Y0136688D02*
X0039600Y0136688D01*
X0039600Y0135090D02*
X0071130Y0135090D01*
X0069532Y0133491D02*
X0039600Y0133491D01*
X0039600Y0131893D02*
X0044166Y0131893D01*
X0042662Y0130294D02*
X0039600Y0130294D01*
X0039600Y0128696D02*
X0042000Y0128696D01*
X0041800Y0127097D02*
X0039600Y0127097D01*
X0039600Y0125499D02*
X0041919Y0125499D01*
X0042581Y0123900D02*
X0039600Y0123900D01*
X0040258Y0122302D02*
X0043972Y0122302D01*
X0041857Y0120703D02*
X0086743Y0120703D01*
X0087000Y0122302D02*
X0059628Y0122302D01*
X0061019Y0123900D02*
X0087112Y0123900D01*
X0088711Y0125499D02*
X0069459Y0125499D01*
X0071057Y0127097D02*
X0089000Y0127097D01*
X0089000Y0128696D02*
X0072656Y0128696D01*
X0074254Y0130294D02*
X0089000Y0130294D01*
X0089000Y0131893D02*
X0075853Y0131893D01*
X0077451Y0133491D02*
X0089532Y0133491D01*
X0091130Y0135090D02*
X0079050Y0135090D01*
X0080648Y0136688D02*
X0092729Y0136688D01*
X0094327Y0138287D02*
X0082247Y0138287D01*
X0083845Y0139885D02*
X0095926Y0139885D01*
X0097524Y0141484D02*
X0085444Y0141484D01*
X0087042Y0143082D02*
X0099123Y0143082D01*
X0102419Y0144681D02*
X0088641Y0144681D01*
X0090239Y0146279D02*
X0104157Y0146279D01*
X0103439Y0147878D02*
X0091838Y0147878D01*
X0093436Y0149476D02*
X0100164Y0149476D01*
X0098565Y0151075D02*
X0094530Y0151075D01*
X0094600Y0152673D02*
X0096967Y0152673D01*
X0095368Y0154272D02*
X0094600Y0154272D01*
X0089000Y0154272D02*
X0024000Y0154272D01*
X0024000Y0155870D02*
X0089000Y0155870D01*
X0089000Y0157469D02*
X0024000Y0157469D01*
X0024000Y0159068D02*
X0087744Y0159068D01*
X0087000Y0160666D02*
X0024000Y0160666D01*
X0024000Y0162265D02*
X0087000Y0162265D01*
X0087075Y0163863D02*
X0024000Y0163863D01*
X0024000Y0165462D02*
X0088673Y0165462D01*
X0094927Y0165462D02*
X0103178Y0165462D01*
X0102080Y0163863D02*
X0096525Y0163863D01*
X0096600Y0162265D02*
X0101650Y0162265D01*
X0101695Y0160666D02*
X0096894Y0160666D01*
X0098492Y0159068D02*
X0102358Y0159068D01*
X0103848Y0157469D02*
X0100091Y0157469D01*
X0101689Y0155870D02*
X0103587Y0155870D01*
X0109752Y0157469D02*
X0114000Y0157469D01*
X0114000Y0159068D02*
X0111242Y0159068D01*
X0111905Y0160666D02*
X0114000Y0160666D01*
X0114000Y0162265D02*
X0111950Y0162265D01*
X0111520Y0163863D02*
X0114000Y0163863D01*
X0114000Y0165462D02*
X0110422Y0165462D01*
X0110013Y0155870D02*
X0114000Y0155870D01*
X0114000Y0154272D02*
X0111350Y0154272D01*
X0111950Y0152673D02*
X0114000Y0152673D01*
X0114000Y0151075D02*
X0111950Y0151075D01*
X0111412Y0149476D02*
X0114000Y0149476D01*
X0114000Y0147878D02*
X0110161Y0147878D01*
X0109443Y0146279D02*
X0114000Y0146279D01*
X0114000Y0144681D02*
X0111181Y0144681D01*
X0111843Y0143082D02*
X0114000Y0143082D01*
X0114000Y0141484D02*
X0111950Y0141484D01*
X0111581Y0139885D02*
X0114000Y0139885D01*
X0114000Y0138287D02*
X0110570Y0138287D01*
X0108456Y0136688D02*
X0114000Y0136688D01*
X0114000Y0135090D02*
X0110793Y0135090D01*
X0111674Y0133491D02*
X0114000Y0133491D01*
X0114000Y0131893D02*
X0111950Y0131893D01*
X0111751Y0130294D02*
X0114000Y0130294D01*
X0114000Y0128696D02*
X0110979Y0128696D01*
X0108904Y0127097D02*
X0114000Y0127097D01*
X0114000Y0125499D02*
X0094889Y0125499D01*
X0094600Y0127097D02*
X0104696Y0127097D01*
X0102621Y0128696D02*
X0094600Y0128696D01*
X0094600Y0130294D02*
X0101849Y0130294D01*
X0101650Y0131893D02*
X0095853Y0131893D01*
X0097451Y0133491D02*
X0101926Y0133491D01*
X0102807Y0135090D02*
X0099050Y0135090D01*
X0100648Y0136688D02*
X0105144Y0136688D01*
X0103030Y0138287D02*
X0102247Y0138287D01*
X0088714Y0152673D02*
X0057219Y0152673D01*
X0046381Y0152673D02*
X0024000Y0152673D01*
X0024000Y0151075D02*
X0043648Y0151075D01*
X0041086Y0149476D02*
X0024000Y0149476D01*
X0024000Y0147878D02*
X0038918Y0147878D01*
X0037320Y0146279D02*
X0024000Y0146279D01*
X0024000Y0144681D02*
X0035721Y0144681D01*
X0034300Y0143082D02*
X0024000Y0143082D01*
X0024000Y0141484D02*
X0034000Y0141484D01*
X0034000Y0139885D02*
X0024000Y0139885D01*
X0024000Y0138287D02*
X0034000Y0138287D01*
X0034000Y0136688D02*
X0024000Y0136688D01*
X0024000Y0135090D02*
X0034000Y0135090D01*
X0034000Y0133491D02*
X0024000Y0133491D01*
X0024000Y0131893D02*
X0034000Y0131893D01*
X0034000Y0130294D02*
X0024000Y0130294D01*
X0024000Y0128696D02*
X0034000Y0128696D01*
X0034000Y0127097D02*
X0024000Y0127097D01*
X0024000Y0125499D02*
X0034000Y0125499D01*
X0034000Y0123900D02*
X0024000Y0123900D01*
X0024000Y0122302D02*
X0034000Y0122302D01*
X0034224Y0120703D02*
X0024000Y0120703D01*
X0024000Y0119105D02*
X0035535Y0119105D01*
X0037134Y0117506D02*
X0024000Y0117506D01*
X0024000Y0115908D02*
X0038732Y0115908D01*
X0040497Y0114309D02*
X0024000Y0114309D01*
X0024000Y0112711D02*
X0099101Y0112711D01*
X0099812Y0112000D02*
X0097000Y0114812D01*
X0097000Y0118788D01*
X0099812Y0121600D01*
X0103788Y0121600D01*
X0106600Y0118788D01*
X0106600Y0114812D01*
X0103788Y0112000D01*
X0099812Y0112000D01*
X0097503Y0114309D02*
X0088103Y0114309D01*
X0089174Y0115214D02*
X0089174Y0115214D01*
X0089867Y0115908D02*
X0097000Y0115908D01*
X0097000Y0117506D02*
X0094294Y0117506D01*
X0095893Y0119105D02*
X0097317Y0119105D01*
X0096600Y0120703D02*
X0098915Y0120703D01*
X0096600Y0122302D02*
X0114000Y0122302D01*
X0114000Y0123900D02*
X0096488Y0123900D01*
X0104685Y0120703D02*
X0114000Y0120703D01*
X0114000Y0119105D02*
X0106283Y0119105D01*
X0106600Y0117506D02*
X0114000Y0117506D01*
X0114000Y0115908D02*
X0106600Y0115908D01*
X0106097Y0114309D02*
X0114000Y0114309D01*
X0114000Y0112711D02*
X0104499Y0112711D01*
X0103788Y0106600D02*
X0099812Y0106600D01*
X0097000Y0103788D01*
X0097000Y0099812D01*
X0099812Y0097000D01*
X0103788Y0097000D01*
X0106600Y0099812D01*
X0106600Y0103788D01*
X0103788Y0106600D01*
X0104072Y0106317D02*
X0114000Y0106317D01*
X0114000Y0107915D02*
X0024000Y0107915D01*
X0024000Y0106317D02*
X0099528Y0106317D01*
X0097930Y0104718D02*
X0024000Y0104718D01*
X0024000Y0103120D02*
X0097000Y0103120D01*
X0097000Y0101521D02*
X0093867Y0101521D01*
X0095466Y0099923D02*
X0097000Y0099923D01*
X0096600Y0098324D02*
X0098488Y0098324D01*
X0096600Y0096726D02*
X0114000Y0096726D01*
X0114000Y0098324D02*
X0105112Y0098324D01*
X0106600Y0099923D02*
X0114000Y0099923D01*
X0114000Y0101521D02*
X0106600Y0101521D01*
X0106600Y0103120D02*
X0114000Y0103120D01*
X0114000Y0104718D02*
X0105670Y0104718D01*
X0114000Y0109514D02*
X0024000Y0109514D01*
X0024000Y0111112D02*
X0114000Y0111112D01*
X0119600Y0096726D02*
X0147000Y0096726D01*
X0147000Y0095127D02*
X0119600Y0095127D01*
X0119600Y0093529D02*
X0148283Y0093529D01*
X0155317Y0093529D02*
X0188283Y0093529D01*
X0187000Y0095127D02*
X0156600Y0095127D01*
X0156600Y0096726D02*
X0187000Y0096726D01*
X0186316Y0098324D02*
X0156600Y0098324D01*
X0155466Y0099923D02*
X0184718Y0099923D01*
X0184000Y0101521D02*
X0153867Y0101521D01*
X0153897Y0107915D02*
X0151875Y0107915D01*
X0148751Y0112711D02*
X0144499Y0112711D01*
X0146097Y0114309D02*
X0150541Y0114309D01*
X0154119Y0115908D02*
X0146600Y0115908D01*
X0146600Y0117506D02*
X0154306Y0117506D01*
X0152707Y0119105D02*
X0146283Y0119105D01*
X0144685Y0120703D02*
X0152000Y0120703D01*
X0155463Y0127097D02*
X0163138Y0127097D01*
X0164736Y0128696D02*
X0153864Y0128696D01*
X0153320Y0133491D02*
X0149068Y0133491D01*
X0152000Y0135090D02*
X0141950Y0135090D01*
X0140923Y0136688D02*
X0152000Y0136688D01*
X0152000Y0138287D02*
X0140570Y0138287D01*
X0141593Y0139885D02*
X0153097Y0139885D01*
X0145944Y0128696D02*
X0141950Y0128696D01*
X0159889Y0125499D02*
X0161539Y0125499D01*
X0189600Y0120703D02*
X0213937Y0120703D01*
X0214000Y0119105D02*
X0189600Y0119105D01*
X0189600Y0117506D02*
X0214000Y0117506D01*
X0214000Y0115908D02*
X0189600Y0115908D01*
X0189600Y0114309D02*
X0214000Y0114309D01*
X0214000Y0112711D02*
X0189600Y0112711D01*
X0189600Y0111112D02*
X0214000Y0111112D01*
X0214000Y0109514D02*
X0189600Y0109514D01*
X0189600Y0107915D02*
X0214000Y0107915D01*
X0214000Y0106317D02*
X0189600Y0106317D01*
X0189600Y0104718D02*
X0214000Y0104718D01*
X0214000Y0103120D02*
X0189600Y0103120D01*
X0193867Y0101521D02*
X0214000Y0101521D01*
X0214000Y0099923D02*
X0195466Y0099923D01*
X0195317Y0093529D02*
X0201112Y0093529D01*
X0202710Y0091930D02*
X0119600Y0091930D01*
X0120057Y0090332D02*
X0204309Y0090332D01*
X0205907Y0088733D02*
X0121600Y0088733D01*
X0121600Y0087134D02*
X0207000Y0087134D01*
X0209100Y0082339D02*
X0209473Y0082339D01*
X0211800Y0080740D02*
X0211800Y0080740D01*
X0211800Y0079142D02*
X0211800Y0079142D01*
X0211800Y0077543D02*
X0211800Y0077543D01*
X0211800Y0076800D02*
X0211800Y0076800D01*
X0216600Y0076800D01*
X0216600Y0074812D01*
X0213788Y0072000D01*
X0211800Y0072000D01*
X0211800Y0076800D01*
X0211800Y0076800D01*
X0211800Y0072000D01*
X0209812Y0072000D01*
X0207000Y0074812D01*
X0207000Y0076800D01*
X0211800Y0076800D01*
X0211800Y0075945D02*
X0211800Y0075945D01*
X0211800Y0074346D02*
X0211800Y0074346D01*
X0211800Y0072748D02*
X0211800Y0072748D01*
X0214536Y0072748D02*
X0219000Y0072748D01*
X0219000Y0074346D02*
X0216135Y0074346D01*
X0216600Y0075945D02*
X0219000Y0075945D01*
X0219000Y0077543D02*
X0216600Y0077543D01*
X0216246Y0079142D02*
X0219000Y0079142D01*
X0219000Y0080740D02*
X0214648Y0080740D01*
X0214127Y0082339D02*
X0219000Y0082339D01*
X0219000Y0083937D02*
X0215726Y0083937D01*
X0216600Y0085536D02*
X0219000Y0085536D01*
X0217506Y0087134D02*
X0216600Y0087134D01*
X0214000Y0091930D02*
X0210630Y0091930D01*
X0209031Y0093529D02*
X0214000Y0093529D01*
X0214000Y0095127D02*
X0207433Y0095127D01*
X0205834Y0096726D02*
X0214000Y0096726D01*
X0214000Y0098324D02*
X0204236Y0098324D01*
X0201248Y0085536D02*
X0194852Y0085536D01*
X0188748Y0085536D02*
X0154852Y0085536D01*
X0153788Y0086600D02*
X0149812Y0086600D01*
X0147000Y0083788D01*
X0147000Y0079812D01*
X0149812Y0077000D01*
X0153788Y0077000D01*
X0156600Y0079812D01*
X0156600Y0083788D01*
X0153788Y0086600D01*
X0156451Y0083937D02*
X0187149Y0083937D01*
X0187000Y0082339D02*
X0156600Y0082339D01*
X0156600Y0080740D02*
X0186781Y0080740D01*
X0185182Y0079142D02*
X0155930Y0079142D01*
X0154332Y0077543D02*
X0184077Y0077543D01*
X0184000Y0075945D02*
X0121600Y0075945D01*
X0121600Y0076800D02*
X0116800Y0076800D01*
X0116800Y0072000D01*
X0118788Y0072000D01*
X0121600Y0074812D01*
X0121600Y0076800D01*
X0121600Y0077543D02*
X0149268Y0077543D01*
X0147670Y0079142D02*
X0121246Y0079142D01*
X0119648Y0080740D02*
X0147000Y0080740D01*
X0147000Y0082339D02*
X0119127Y0082339D01*
X0120726Y0083937D02*
X0147149Y0083937D01*
X0148748Y0085536D02*
X0121600Y0085536D01*
X0116800Y0080740D02*
X0116800Y0080740D01*
X0116800Y0079142D02*
X0116800Y0079142D01*
X0116800Y0077543D02*
X0116800Y0077543D01*
X0116800Y0076800D02*
X0116800Y0076800D01*
X0116800Y0076800D01*
X0116800Y0072000D01*
X0114812Y0072000D01*
X0112000Y0074812D01*
X0112000Y0076800D01*
X0116800Y0076800D01*
X0116800Y0075945D02*
X0116800Y0075945D01*
X0116800Y0074346D02*
X0116800Y0074346D01*
X0116800Y0072748D02*
X0116800Y0072748D01*
X0119536Y0072748D02*
X0184000Y0072748D01*
X0184000Y0074346D02*
X0121135Y0074346D01*
X0114064Y0072748D02*
X0089600Y0072748D01*
X0089600Y0074346D02*
X0112465Y0074346D01*
X0112000Y0075945D02*
X0089905Y0075945D01*
X0094332Y0077543D02*
X0106768Y0077543D01*
X0111832Y0077543D02*
X0112000Y0077543D01*
X0114100Y0082339D02*
X0114473Y0082339D01*
X0112000Y0087134D02*
X0024000Y0087134D01*
X0024000Y0085536D02*
X0048748Y0085536D01*
X0049812Y0086600D02*
X0047000Y0083788D01*
X0047000Y0079812D01*
X0049812Y0077000D01*
X0053788Y0077000D01*
X0056600Y0079812D01*
X0056600Y0083788D01*
X0053788Y0086600D01*
X0049812Y0086600D01*
X0047149Y0083937D02*
X0024000Y0083937D01*
X0024000Y0082339D02*
X0047000Y0082339D01*
X0047000Y0080740D02*
X0024000Y0080740D01*
X0024000Y0079142D02*
X0047670Y0079142D01*
X0049268Y0077543D02*
X0024000Y0077543D01*
X0024000Y0075945D02*
X0084000Y0075945D01*
X0084000Y0074346D02*
X0024000Y0074346D01*
X0024000Y0072748D02*
X0084000Y0072748D01*
X0084000Y0071149D02*
X0058843Y0071149D01*
X0059519Y0070869D02*
X0057755Y0071600D01*
X0050645Y0071600D01*
X0048881Y0070869D01*
X0047612Y0069600D01*
X0041243Y0069600D01*
X0040214Y0069174D01*
X0037640Y0066600D01*
X0034812Y0066600D01*
X0032000Y0063788D01*
X0032000Y0059812D01*
X0034812Y0057000D01*
X0038788Y0057000D01*
X0041600Y0059812D01*
X0041600Y0062640D01*
X0042960Y0064000D01*
X0047612Y0064000D01*
X0048881Y0062731D01*
X0050645Y0062000D01*
X0057755Y0062000D01*
X0059519Y0062731D01*
X0060869Y0064081D01*
X0061600Y0065845D01*
X0061600Y0067755D01*
X0060869Y0069519D01*
X0059519Y0070869D01*
X0060837Y0069551D02*
X0082763Y0069551D01*
X0082082Y0067952D02*
X0061518Y0067952D01*
X0061600Y0066354D02*
X0082000Y0066354D01*
X0082451Y0064755D02*
X0061149Y0064755D01*
X0059945Y0063157D02*
X0083655Y0063157D01*
X0084957Y0061248D02*
X0084284Y0060905D01*
X0083673Y0060461D01*
X0083139Y0059927D01*
X0082695Y0059316D01*
X0082352Y0058643D01*
X0082118Y0057924D01*
X0082000Y0057178D01*
X0082000Y0056800D01*
X0086800Y0056800D01*
X0086800Y0056800D01*
X0086800Y0061600D01*
X0092378Y0061600D01*
X0093124Y0061482D01*
X0093843Y0061248D01*
X0094516Y0060905D01*
X0095127Y0060461D01*
X0095661Y0059927D01*
X0096105Y0059316D01*
X0096448Y0058643D01*
X0096682Y0057924D01*
X0096800Y0057178D01*
X0096800Y0056800D01*
X0086800Y0056800D01*
X0086800Y0056800D01*
X0086800Y0056800D01*
X0086800Y0061600D01*
X0086422Y0061600D01*
X0085676Y0061482D01*
X0084957Y0061248D01*
X0086159Y0061558D02*
X0057855Y0061558D01*
X0057755Y0061600D02*
X0050645Y0061600D01*
X0048881Y0060869D01*
X0047531Y0059519D01*
X0046800Y0057755D01*
X0046800Y0055845D01*
X0047531Y0054081D01*
X0048881Y0052731D01*
X0050645Y0052000D01*
X0057755Y0052000D01*
X0059519Y0052731D01*
X0060788Y0054000D01*
X0070640Y0054000D01*
X0075214Y0049426D01*
X0076243Y0049000D01*
X0080640Y0049000D01*
X0083815Y0045825D01*
X0083634Y0045900D01*
X0075566Y0045900D01*
X0073654Y0045108D01*
X0072192Y0043646D01*
X0071400Y0041734D01*
X0071400Y0039666D01*
X0072192Y0037754D01*
X0073654Y0036292D01*
X0075566Y0035500D01*
X0083634Y0035500D01*
X0085546Y0036292D01*
X0087008Y0037754D01*
X0087800Y0039666D01*
X0087800Y0041734D01*
X0087725Y0041915D01*
X0089000Y0040640D01*
X0089000Y0036243D01*
X0089426Y0035214D01*
X0097000Y0027640D01*
X0097000Y0024812D01*
X0099812Y0022000D01*
X0103788Y0022000D01*
X0106600Y0024812D01*
X0106600Y0028788D01*
X0103788Y0031600D01*
X0100960Y0031600D01*
X0100560Y0032000D01*
X0101800Y0032000D01*
X0103788Y0032000D01*
X0106600Y0034812D01*
X0106600Y0036800D01*
X0106600Y0038788D01*
X0103788Y0041600D01*
X0101800Y0041600D01*
X0101800Y0036800D01*
X0101800Y0036800D01*
X0106600Y0036800D01*
X0101800Y0036800D01*
X0101800Y0036800D01*
X0101800Y0036800D01*
X0097000Y0036800D01*
X0097000Y0038788D01*
X0099812Y0041600D01*
X0101800Y0041600D01*
X0101800Y0036800D01*
X0101800Y0032000D01*
X0101800Y0036800D01*
X0101800Y0036800D01*
X0097000Y0036800D01*
X0097000Y0035560D01*
X0094600Y0037960D01*
X0094600Y0042357D01*
X0094174Y0043386D01*
X0093386Y0044174D01*
X0085329Y0052231D01*
X0085676Y0052118D01*
X0086422Y0052000D01*
X0086800Y0052000D01*
X0092378Y0052000D01*
X0093124Y0052118D01*
X0093843Y0052352D01*
X0094516Y0052695D01*
X0095127Y0053139D01*
X0095661Y0053673D01*
X0096105Y0054284D01*
X0096448Y0054957D01*
X0096682Y0055676D01*
X0096800Y0056422D01*
X0096800Y0056800D01*
X0086800Y0056800D01*
X0086800Y0052000D01*
X0086800Y0056800D01*
X0086800Y0056800D01*
X0082000Y0056800D01*
X0082000Y0056422D01*
X0082118Y0055676D01*
X0082352Y0054957D01*
X0082581Y0054507D01*
X0082357Y0054600D01*
X0077960Y0054600D01*
X0073386Y0059174D01*
X0072357Y0059600D01*
X0060788Y0059600D01*
X0059519Y0060869D01*
X0057755Y0061600D01*
X0060428Y0059960D02*
X0083172Y0059960D01*
X0082260Y0058361D02*
X0074198Y0058361D01*
X0075797Y0056763D02*
X0082000Y0056763D01*
X0082284Y0055164D02*
X0077396Y0055164D01*
X0072673Y0051967D02*
X0024000Y0051967D01*
X0024000Y0050369D02*
X0074271Y0050369D01*
X0071074Y0053566D02*
X0060354Y0053566D01*
X0058034Y0045900D02*
X0049966Y0045900D01*
X0048054Y0045108D01*
X0046592Y0043646D01*
X0045800Y0041734D01*
X0045800Y0039666D01*
X0046592Y0037754D01*
X0048054Y0036292D01*
X0049966Y0035500D01*
X0058034Y0035500D01*
X0059946Y0036292D01*
X0061408Y0037754D01*
X0062200Y0039666D01*
X0062200Y0041734D01*
X0061408Y0043646D01*
X0059946Y0045108D01*
X0058034Y0045900D01*
X0058823Y0045573D02*
X0074777Y0045573D01*
X0072521Y0043975D02*
X0061079Y0043975D01*
X0061934Y0042376D02*
X0071666Y0042376D01*
X0071400Y0040778D02*
X0062200Y0040778D01*
X0061998Y0039179D02*
X0071602Y0039179D01*
X0072365Y0037581D02*
X0061235Y0037581D01*
X0059198Y0035982D02*
X0074402Y0035982D01*
X0075299Y0027990D02*
X0058301Y0027990D01*
X0060863Y0026391D02*
X0072737Y0026391D01*
X0083901Y0027990D02*
X0096651Y0027990D01*
X0097000Y0026391D02*
X0086463Y0026391D01*
X0087445Y0024793D02*
X0097019Y0024793D01*
X0098618Y0023194D02*
X0087800Y0023194D01*
X0087688Y0021596D02*
X0127000Y0021596D01*
X0127000Y0023194D02*
X0104982Y0023194D01*
X0106581Y0024793D02*
X0128004Y0024793D01*
X0129603Y0026391D02*
X0106600Y0026391D01*
X0106600Y0027990D02*
X0149699Y0027990D01*
X0147137Y0026391D02*
X0133997Y0026391D01*
X0135596Y0024793D02*
X0146155Y0024793D01*
X0149966Y0035500D02*
X0158034Y0035500D01*
X0159946Y0036292D01*
X0161408Y0037754D01*
X0162200Y0039666D01*
X0162200Y0041734D01*
X0161408Y0043646D01*
X0159946Y0045108D01*
X0158034Y0045900D01*
X0149966Y0045900D01*
X0148054Y0045108D01*
X0146592Y0043646D01*
X0145800Y0041734D01*
X0145800Y0039666D01*
X0146592Y0037754D01*
X0148054Y0036292D01*
X0149966Y0035500D01*
X0148802Y0035982D02*
X0106600Y0035982D01*
X0106600Y0037581D02*
X0146765Y0037581D01*
X0146002Y0039179D02*
X0106209Y0039179D01*
X0104611Y0040778D02*
X0145800Y0040778D01*
X0146066Y0042376D02*
X0094592Y0042376D01*
X0094600Y0040778D02*
X0098989Y0040778D01*
X0097391Y0039179D02*
X0094600Y0039179D01*
X0094979Y0037581D02*
X0097000Y0037581D01*
X0097000Y0035982D02*
X0096578Y0035982D01*
X0101800Y0035982D02*
X0101800Y0035982D01*
X0101800Y0034384D02*
X0101800Y0034384D01*
X0101800Y0032785D02*
X0101800Y0032785D01*
X0104573Y0032785D02*
X0191855Y0032785D01*
X0193454Y0031187D02*
X0104202Y0031187D01*
X0105800Y0029588D02*
X0195052Y0029588D01*
X0196651Y0027990D02*
X0183901Y0027990D01*
X0186463Y0026391D02*
X0197000Y0026391D01*
X0197000Y0027640D02*
X0197000Y0024812D01*
X0199812Y0022000D01*
X0203788Y0022000D01*
X0206600Y0024812D01*
X0206600Y0028788D01*
X0203788Y0031600D01*
X0200960Y0031600D01*
X0200560Y0032000D01*
X0201800Y0032000D01*
X0203788Y0032000D01*
X0206600Y0034812D01*
X0206600Y0036800D01*
X0206600Y0038788D01*
X0203788Y0041600D01*
X0201800Y0041600D01*
X0201800Y0036800D01*
X0201800Y0036800D01*
X0206600Y0036800D01*
X0201800Y0036800D01*
X0201800Y0036800D01*
X0201800Y0036800D01*
X0197000Y0036800D01*
X0197000Y0038788D01*
X0199812Y0041600D01*
X0201800Y0041600D01*
X0201800Y0036800D01*
X0201800Y0032000D01*
X0201800Y0036800D01*
X0201800Y0036800D01*
X0197000Y0036800D01*
X0197000Y0035560D01*
X0194600Y0037960D01*
X0194600Y0042357D01*
X0194174Y0043386D01*
X0193386Y0044174D01*
X0185329Y0052231D01*
X0185676Y0052118D01*
X0186422Y0052000D01*
X0186800Y0052000D01*
X0192378Y0052000D01*
X0193124Y0052118D01*
X0193843Y0052352D01*
X0194516Y0052695D01*
X0195127Y0053139D01*
X0195661Y0053673D01*
X0196105Y0054284D01*
X0196448Y0054957D01*
X0196682Y0055676D01*
X0196800Y0056422D01*
X0196800Y0056800D01*
X0196800Y0057178D01*
X0196682Y0057924D01*
X0196448Y0058643D01*
X0196105Y0059316D01*
X0195661Y0059927D01*
X0195127Y0060461D01*
X0194516Y0060905D01*
X0193843Y0061248D01*
X0193124Y0061482D01*
X0192378Y0061600D01*
X0186800Y0061600D01*
X0186800Y0056800D01*
X0186800Y0056800D01*
X0196800Y0056800D01*
X0186800Y0056800D01*
X0186800Y0056800D01*
X0186800Y0056800D01*
X0182000Y0056800D01*
X0182000Y0057178D01*
X0182118Y0057924D01*
X0182352Y0058643D01*
X0182695Y0059316D01*
X0183139Y0059927D01*
X0183673Y0060461D01*
X0184284Y0060905D01*
X0184957Y0061248D01*
X0185676Y0061482D01*
X0186422Y0061600D01*
X0186800Y0061600D01*
X0186800Y0056800D01*
X0186800Y0052000D01*
X0186800Y0056800D01*
X0186800Y0056800D01*
X0182000Y0056800D01*
X0182000Y0056422D01*
X0182118Y0055676D01*
X0182352Y0054957D01*
X0182581Y0054507D01*
X0182357Y0054600D01*
X0177960Y0054600D01*
X0173386Y0059174D01*
X0172357Y0059600D01*
X0160788Y0059600D01*
X0159519Y0060869D01*
X0157755Y0061600D01*
X0150645Y0061600D01*
X0148881Y0060869D01*
X0147531Y0059519D01*
X0146800Y0057755D01*
X0146800Y0055845D01*
X0147531Y0054081D01*
X0148881Y0052731D01*
X0150645Y0052000D01*
X0157755Y0052000D01*
X0159519Y0052731D01*
X0160788Y0054000D01*
X0170640Y0054000D01*
X0174426Y0050214D01*
X0175214Y0049426D01*
X0176243Y0049000D01*
X0180640Y0049000D01*
X0183815Y0045825D01*
X0183634Y0045900D01*
X0175566Y0045900D01*
X0173654Y0045108D01*
X0172192Y0043646D01*
X0171400Y0041734D01*
X0171400Y0039666D01*
X0172192Y0037754D01*
X0173654Y0036292D01*
X0175566Y0035500D01*
X0183634Y0035500D01*
X0185546Y0036292D01*
X0187008Y0037754D01*
X0187800Y0039666D01*
X0187800Y0041734D01*
X0187725Y0041915D01*
X0189000Y0040640D01*
X0189000Y0036243D01*
X0189426Y0035214D01*
X0197000Y0027640D01*
X0197019Y0024793D02*
X0187445Y0024793D01*
X0187800Y0023194D02*
X0198618Y0023194D01*
X0204982Y0023194D02*
X0409521Y0023194D01*
X0409521Y0021596D02*
X0187688Y0021596D01*
X0187026Y0019997D02*
X0409521Y0019997D01*
X0409521Y0024793D02*
X0206581Y0024793D01*
X0206600Y0026391D02*
X0409521Y0026391D01*
X0409521Y0027990D02*
X0299778Y0027990D01*
X0298788Y0027000D02*
X0301600Y0029812D01*
X0301600Y0033788D01*
X0298788Y0036600D01*
X0295960Y0036600D01*
X0288386Y0044174D01*
X0287357Y0044600D01*
X0252960Y0044600D01*
X0249100Y0048460D01*
X0249100Y0048788D01*
X0246288Y0051600D01*
X0242312Y0051600D01*
X0241600Y0050888D01*
X0241600Y0051800D01*
X0241600Y0053788D01*
X0238788Y0056600D01*
X0236800Y0056600D01*
X0236800Y0051800D01*
X0236800Y0051800D01*
X0241600Y0051800D01*
X0236800Y0051800D01*
X0236800Y0051800D01*
X0236800Y0047000D01*
X0238788Y0047000D01*
X0239500Y0047712D01*
X0239500Y0045888D01*
X0238788Y0046600D01*
X0234812Y0046600D01*
X0232000Y0043788D01*
X0232000Y0039812D01*
X0234812Y0037000D01*
X0238788Y0037000D01*
X0241600Y0039812D01*
X0241600Y0042712D01*
X0242312Y0042000D01*
X0246288Y0042000D01*
X0246964Y0042676D01*
X0249426Y0040214D01*
X0250214Y0039426D01*
X0251243Y0039000D01*
X0285640Y0039000D01*
X0292000Y0032640D01*
X0292000Y0029812D01*
X0294812Y0027000D01*
X0298788Y0027000D01*
X0301376Y0029588D02*
X0409521Y0029588D01*
X0409521Y0031187D02*
X0301600Y0031187D01*
X0301600Y0032785D02*
X0409521Y0032785D01*
X0409521Y0034384D02*
X0301005Y0034384D01*
X0299406Y0035982D02*
X0409521Y0035982D01*
X0409521Y0037581D02*
X0294979Y0037581D01*
X0293381Y0039179D02*
X0409521Y0039179D01*
X0409521Y0040778D02*
X0291782Y0040778D01*
X0290184Y0042376D02*
X0409521Y0042376D01*
X0409521Y0043975D02*
X0288585Y0043975D01*
X0293042Y0048770D02*
X0260558Y0048770D01*
X0261600Y0050369D02*
X0292000Y0050369D01*
X0292000Y0051967D02*
X0261600Y0051967D01*
X0261600Y0053566D02*
X0292000Y0053566D01*
X0293376Y0055164D02*
X0260224Y0055164D01*
X0259600Y0056763D02*
X0297803Y0056763D01*
X0299402Y0058361D02*
X0259184Y0058361D01*
X0257600Y0059960D02*
X0301000Y0059960D01*
X0302599Y0061558D02*
X0256001Y0061558D01*
X0259945Y0063157D02*
X0293655Y0063157D01*
X0292056Y0064755D02*
X0261544Y0064755D01*
X0261600Y0066354D02*
X0292000Y0066354D01*
X0292000Y0067952D02*
X0261600Y0067952D01*
X0260837Y0069551D02*
X0292763Y0069551D01*
X0294361Y0071149D02*
X0259239Y0071149D01*
X0251279Y0058361D02*
X0240149Y0058361D01*
X0240224Y0055164D02*
X0253376Y0055164D01*
X0252877Y0056763D02*
X0224600Y0056763D01*
X0224600Y0058361D02*
X0233450Y0058361D01*
X0232000Y0059960D02*
X0224600Y0059960D01*
X0224600Y0061558D02*
X0232000Y0061558D01*
X0232000Y0063157D02*
X0224600Y0063157D01*
X0224600Y0064755D02*
X0232967Y0064755D01*
X0234812Y0056600D02*
X0232000Y0053788D01*
X0232000Y0051800D01*
X0236800Y0051800D01*
X0236800Y0051800D01*
X0236800Y0051800D01*
X0236800Y0056600D01*
X0234812Y0056600D01*
X0233376Y0055164D02*
X0224600Y0055164D01*
X0224600Y0053566D02*
X0232000Y0053566D01*
X0232000Y0051967D02*
X0224600Y0051967D01*
X0224600Y0050369D02*
X0232000Y0050369D01*
X0232000Y0049812D02*
X0234812Y0047000D01*
X0236800Y0047000D01*
X0236800Y0051800D01*
X0232000Y0051800D01*
X0232000Y0049812D01*
X0233042Y0048770D02*
X0224600Y0048770D01*
X0224600Y0047172D02*
X0234640Y0047172D01*
X0233785Y0045573D02*
X0224600Y0045573D01*
X0224600Y0043975D02*
X0232186Y0043975D01*
X0232000Y0042376D02*
X0225184Y0042376D01*
X0226782Y0040778D02*
X0232000Y0040778D01*
X0232633Y0039179D02*
X0228381Y0039179D01*
X0229979Y0037581D02*
X0234231Y0037581D01*
X0231578Y0035982D02*
X0254194Y0035982D01*
X0250810Y0039179D02*
X0240967Y0039179D01*
X0241600Y0040778D02*
X0248863Y0040778D01*
X0247264Y0042376D02*
X0246664Y0042376D01*
X0241936Y0042376D02*
X0241600Y0042376D01*
X0239500Y0047172D02*
X0238960Y0047172D01*
X0236800Y0047172D02*
X0236800Y0047172D01*
X0236800Y0048770D02*
X0236800Y0048770D01*
X0236800Y0050369D02*
X0236800Y0050369D01*
X0236800Y0051967D02*
X0236800Y0051967D01*
X0236800Y0053566D02*
X0236800Y0053566D01*
X0236800Y0055164D02*
X0236800Y0055164D01*
X0241600Y0053566D02*
X0252000Y0053566D01*
X0252000Y0051967D02*
X0241600Y0051967D01*
X0247519Y0050369D02*
X0252000Y0050369D01*
X0253042Y0048770D02*
X0249100Y0048770D01*
X0250388Y0047172D02*
X0254640Y0047172D01*
X0251987Y0045573D02*
X0409521Y0045573D01*
X0409521Y0066354D02*
X0388975Y0066354D01*
X0390679Y0067952D02*
X0409521Y0067952D01*
X0409521Y0069551D02*
X0391454Y0069551D01*
X0391800Y0071149D02*
X0409521Y0071149D01*
X0409521Y0072748D02*
X0391800Y0072748D01*
X0391165Y0074346D02*
X0409521Y0074346D01*
X0409521Y0075945D02*
X0389982Y0075945D01*
X0387291Y0077543D02*
X0409521Y0077543D01*
X0409521Y0079142D02*
X0224600Y0079142D01*
X0224600Y0080740D02*
X0409521Y0080740D01*
X0374136Y0056763D02*
X0305723Y0056763D01*
X0305776Y0055164D02*
X0304124Y0055164D01*
X0304736Y0053566D02*
X0302526Y0053566D01*
X0301600Y0051967D02*
X0304400Y0051967D01*
X0304597Y0050369D02*
X0301600Y0050369D01*
X0300558Y0048770D02*
X0305442Y0048770D01*
X0307831Y0047172D02*
X0298960Y0047172D01*
X0294640Y0047172D02*
X0258960Y0047172D01*
X0259406Y0035982D02*
X0288658Y0035982D01*
X0290257Y0034384D02*
X0261005Y0034384D01*
X0261600Y0032785D02*
X0291855Y0032785D01*
X0292000Y0031187D02*
X0261600Y0031187D01*
X0261376Y0029588D02*
X0292224Y0029588D01*
X0293822Y0027990D02*
X0259778Y0027990D01*
X0253822Y0027990D02*
X0206600Y0027990D01*
X0205800Y0029588D02*
X0230052Y0029588D01*
X0229426Y0030214D02*
X0229426Y0030214D01*
X0228454Y0031187D02*
X0204202Y0031187D01*
X0204573Y0032785D02*
X0226855Y0032785D01*
X0225257Y0034384D02*
X0206172Y0034384D01*
X0206600Y0035982D02*
X0223658Y0035982D01*
X0222060Y0037581D02*
X0206600Y0037581D01*
X0206209Y0039179D02*
X0220461Y0039179D01*
X0219193Y0040778D02*
X0204611Y0040778D01*
X0201800Y0040778D02*
X0201800Y0040778D01*
X0201800Y0039179D02*
X0201800Y0039179D01*
X0201800Y0037581D02*
X0201800Y0037581D01*
X0201800Y0035982D02*
X0201800Y0035982D01*
X0201800Y0034384D02*
X0201800Y0034384D01*
X0201800Y0032785D02*
X0201800Y0032785D01*
X0197000Y0035982D02*
X0196578Y0035982D01*
X0197000Y0037581D02*
X0194979Y0037581D01*
X0194600Y0039179D02*
X0197391Y0039179D01*
X0198989Y0040778D02*
X0194600Y0040778D01*
X0194592Y0042376D02*
X0219000Y0042376D01*
X0219000Y0043975D02*
X0193585Y0043975D01*
X0191987Y0045573D02*
X0219000Y0045573D01*
X0219000Y0047172D02*
X0190388Y0047172D01*
X0188790Y0048770D02*
X0219000Y0048770D01*
X0219000Y0050369D02*
X0187191Y0050369D01*
X0185593Y0051967D02*
X0219000Y0051967D01*
X0219000Y0053566D02*
X0195554Y0053566D01*
X0196516Y0055164D02*
X0219000Y0055164D01*
X0219000Y0056763D02*
X0196800Y0056763D01*
X0196540Y0058361D02*
X0219000Y0058361D01*
X0219000Y0059960D02*
X0195628Y0059960D01*
X0195145Y0063157D02*
X0219000Y0063157D01*
X0219000Y0064755D02*
X0196349Y0064755D01*
X0196800Y0066354D02*
X0219000Y0066354D01*
X0219000Y0067952D02*
X0196718Y0067952D01*
X0196037Y0069551D02*
X0219000Y0069551D01*
X0219000Y0071149D02*
X0194043Y0071149D01*
X0189600Y0072748D02*
X0209064Y0072748D01*
X0207465Y0074346D02*
X0189600Y0074346D01*
X0189905Y0075945D02*
X0207000Y0075945D01*
X0207000Y0077543D02*
X0206832Y0077543D01*
X0201768Y0077543D02*
X0194332Y0077543D01*
X0184000Y0071149D02*
X0158843Y0071149D01*
X0159519Y0070869D02*
X0157755Y0071600D01*
X0150645Y0071600D01*
X0148881Y0070869D01*
X0147612Y0069600D01*
X0136243Y0069600D01*
X0135214Y0069174D01*
X0134426Y0068386D01*
X0132640Y0066600D01*
X0129812Y0066600D01*
X0127000Y0063788D01*
X0127000Y0059812D01*
X0129812Y0057000D01*
X0133788Y0057000D01*
X0136600Y0059812D01*
X0136600Y0062640D01*
X0137960Y0064000D01*
X0147612Y0064000D01*
X0148881Y0062731D01*
X0150645Y0062000D01*
X0157755Y0062000D01*
X0159519Y0062731D01*
X0160869Y0064081D01*
X0161600Y0065845D01*
X0161600Y0067755D01*
X0160869Y0069519D01*
X0159519Y0070869D01*
X0160837Y0069551D02*
X0182763Y0069551D01*
X0182082Y0067952D02*
X0161518Y0067952D01*
X0161600Y0066354D02*
X0182000Y0066354D01*
X0182451Y0064755D02*
X0161149Y0064755D01*
X0159945Y0063157D02*
X0183655Y0063157D01*
X0186159Y0061558D02*
X0157855Y0061558D01*
X0160428Y0059960D02*
X0183172Y0059960D01*
X0182260Y0058361D02*
X0174198Y0058361D01*
X0175797Y0056763D02*
X0182000Y0056763D01*
X0182284Y0055164D02*
X0177396Y0055164D01*
X0172673Y0051967D02*
X0085593Y0051967D01*
X0086800Y0053566D02*
X0086800Y0053566D01*
X0086800Y0055164D02*
X0086800Y0055164D01*
X0086800Y0056763D02*
X0086800Y0056763D01*
X0086800Y0058361D02*
X0086800Y0058361D01*
X0086800Y0059960D02*
X0086800Y0059960D01*
X0086800Y0061558D02*
X0086800Y0061558D01*
X0092641Y0061558D02*
X0127000Y0061558D01*
X0127000Y0059960D02*
X0095628Y0059960D01*
X0096540Y0058361D02*
X0128450Y0058361D01*
X0127000Y0063157D02*
X0095145Y0063157D01*
X0096349Y0064755D02*
X0127967Y0064755D01*
X0129566Y0066354D02*
X0096800Y0066354D01*
X0096718Y0067952D02*
X0133993Y0067952D01*
X0136124Y0069551D02*
X0096037Y0069551D01*
X0094043Y0071149D02*
X0149557Y0071149D01*
X0148455Y0063157D02*
X0137117Y0063157D01*
X0136600Y0061558D02*
X0150545Y0061558D01*
X0147972Y0059960D02*
X0136600Y0059960D01*
X0135150Y0058361D02*
X0147051Y0058361D01*
X0146800Y0056763D02*
X0096800Y0056763D01*
X0096516Y0055164D02*
X0147082Y0055164D01*
X0148046Y0053566D02*
X0095554Y0053566D01*
X0090388Y0047172D02*
X0182468Y0047172D01*
X0180870Y0048770D02*
X0088790Y0048770D01*
X0087191Y0050369D02*
X0174271Y0050369D01*
X0171074Y0053566D02*
X0160354Y0053566D01*
X0158823Y0045573D02*
X0174777Y0045573D01*
X0172521Y0043975D02*
X0161079Y0043975D01*
X0161934Y0042376D02*
X0171666Y0042376D01*
X0171400Y0040778D02*
X0162200Y0040778D01*
X0161998Y0039179D02*
X0171602Y0039179D01*
X0172365Y0037581D02*
X0161235Y0037581D01*
X0159198Y0035982D02*
X0174402Y0035982D01*
X0175299Y0027990D02*
X0158301Y0027990D01*
X0160863Y0026391D02*
X0172737Y0026391D01*
X0184798Y0035982D02*
X0189108Y0035982D01*
X0189000Y0037581D02*
X0186835Y0037581D01*
X0187598Y0039179D02*
X0189000Y0039179D01*
X0188863Y0040778D02*
X0187800Y0040778D01*
X0190257Y0034384D02*
X0106172Y0034384D01*
X0101800Y0037581D02*
X0101800Y0037581D01*
X0101800Y0039179D02*
X0101800Y0039179D01*
X0101800Y0040778D02*
X0101800Y0040778D01*
X0093585Y0043975D02*
X0146921Y0043975D01*
X0149177Y0045573D02*
X0091987Y0045573D01*
X0093386Y0044174D02*
X0093386Y0044174D01*
X0088863Y0040778D02*
X0087800Y0040778D01*
X0087598Y0039179D02*
X0089000Y0039179D01*
X0089000Y0037581D02*
X0086835Y0037581D01*
X0084798Y0035982D02*
X0089108Y0035982D01*
X0090257Y0034384D02*
X0024000Y0034384D01*
X0024000Y0035982D02*
X0048802Y0035982D01*
X0046765Y0037581D02*
X0024000Y0037581D01*
X0024000Y0039179D02*
X0046002Y0039179D01*
X0045800Y0040778D02*
X0024000Y0040778D01*
X0024000Y0042376D02*
X0046066Y0042376D01*
X0046921Y0043975D02*
X0024000Y0043975D01*
X0024000Y0045573D02*
X0049177Y0045573D01*
X0048046Y0053566D02*
X0024000Y0053566D01*
X0024000Y0055164D02*
X0047082Y0055164D01*
X0046800Y0056763D02*
X0024000Y0056763D01*
X0024000Y0058361D02*
X0033450Y0058361D01*
X0032000Y0059960D02*
X0024000Y0059960D01*
X0024000Y0061558D02*
X0032000Y0061558D01*
X0032000Y0063157D02*
X0024000Y0063157D01*
X0024000Y0064755D02*
X0032967Y0064755D01*
X0034566Y0066354D02*
X0024000Y0066354D01*
X0024000Y0067952D02*
X0038993Y0067952D01*
X0041124Y0069551D02*
X0024000Y0069551D01*
X0024000Y0071149D02*
X0049557Y0071149D01*
X0054332Y0077543D02*
X0084077Y0077543D01*
X0085182Y0079142D02*
X0055930Y0079142D01*
X0056600Y0080740D02*
X0086781Y0080740D01*
X0087000Y0082339D02*
X0056600Y0082339D01*
X0056451Y0083937D02*
X0087149Y0083937D01*
X0088748Y0085536D02*
X0054852Y0085536D01*
X0053788Y0092000D02*
X0049812Y0092000D01*
X0047000Y0094812D01*
X0047000Y0098788D01*
X0049812Y0101600D01*
X0053788Y0101600D01*
X0056600Y0098788D01*
X0056600Y0094812D01*
X0053788Y0092000D01*
X0055317Y0093529D02*
X0088283Y0093529D01*
X0087000Y0095127D02*
X0056600Y0095127D01*
X0056600Y0096726D02*
X0087000Y0096726D01*
X0087000Y0098324D02*
X0056600Y0098324D01*
X0055466Y0099923D02*
X0088134Y0099923D01*
X0089733Y0101521D02*
X0053867Y0101521D01*
X0049733Y0101521D02*
X0024000Y0101521D01*
X0024000Y0099923D02*
X0048134Y0099923D01*
X0047000Y0098324D02*
X0024000Y0098324D01*
X0024000Y0096726D02*
X0047000Y0096726D01*
X0047000Y0095127D02*
X0024000Y0095127D01*
X0024000Y0093529D02*
X0048283Y0093529D01*
X0024000Y0091930D02*
X0092710Y0091930D01*
X0094309Y0090332D02*
X0024000Y0090332D01*
X0024000Y0088733D02*
X0110907Y0088733D01*
X0106248Y0085536D02*
X0094852Y0085536D01*
X0097433Y0095127D02*
X0114000Y0095127D01*
X0080870Y0048770D02*
X0024000Y0048770D01*
X0024000Y0047172D02*
X0082468Y0047172D01*
X0091855Y0032785D02*
X0024000Y0032785D01*
X0024000Y0031187D02*
X0093454Y0031187D01*
X0095052Y0029588D02*
X0024000Y0029588D01*
X0024000Y0027990D02*
X0049699Y0027990D01*
X0047137Y0026391D02*
X0038997Y0026391D01*
X0034603Y0026391D02*
X0024000Y0026391D01*
X0024000Y0024793D02*
X0033004Y0024793D01*
X0032000Y0023194D02*
X0024000Y0023194D01*
X0024000Y0021596D02*
X0032000Y0021596D01*
X0032000Y0019997D02*
X0024000Y0019997D01*
X0040150Y0058361D02*
X0047051Y0058361D01*
X0047972Y0059960D02*
X0041600Y0059960D01*
X0041600Y0061558D02*
X0050545Y0061558D01*
X0048455Y0063157D02*
X0042117Y0063157D01*
X0087026Y0019997D02*
X0127000Y0019997D01*
X0186800Y0053566D02*
X0186800Y0053566D01*
X0186800Y0055164D02*
X0186800Y0055164D01*
X0186800Y0056763D02*
X0186800Y0056763D01*
X0186800Y0058361D02*
X0186800Y0058361D01*
X0186800Y0059960D02*
X0186800Y0059960D01*
X0186800Y0061558D02*
X0186800Y0061558D01*
X0192641Y0061558D02*
X0219000Y0061558D01*
X0224600Y0085536D02*
X0229104Y0085536D01*
X0227506Y0087134D02*
X0224600Y0087134D01*
X0223827Y0088733D02*
X0225907Y0088733D01*
X0224309Y0090332D02*
X0222228Y0090332D01*
X0222710Y0091930D02*
X0220630Y0091930D01*
X0221112Y0093529D02*
X0219600Y0093529D01*
X0224600Y0098324D02*
X0232000Y0098324D01*
X0232000Y0096726D02*
X0225834Y0096726D01*
X0227433Y0095127D02*
X0232000Y0095127D01*
X0233283Y0093529D02*
X0229031Y0093529D01*
X0233134Y0099923D02*
X0224600Y0099923D01*
X0224600Y0101521D02*
X0234733Y0101521D01*
X0234812Y0102000D02*
X0232000Y0104812D01*
X0232000Y0106800D01*
X0236800Y0106800D01*
X0236800Y0106800D01*
X0236800Y0102000D01*
X0234812Y0102000D01*
X0233692Y0103120D02*
X0224600Y0103120D01*
X0224600Y0104718D02*
X0232094Y0104718D01*
X0232000Y0106317D02*
X0224600Y0106317D01*
X0224600Y0107915D02*
X0232000Y0107915D01*
X0232725Y0109514D02*
X0224600Y0109514D01*
X0224600Y0111112D02*
X0234324Y0111112D01*
X0234101Y0112711D02*
X0224600Y0112711D01*
X0224600Y0114309D02*
X0232503Y0114309D01*
X0232000Y0115908D02*
X0224600Y0115908D01*
X0224600Y0117506D02*
X0232000Y0117506D01*
X0232317Y0119105D02*
X0224600Y0119105D01*
X0224600Y0120703D02*
X0233915Y0120703D01*
X0234510Y0122302D02*
X0224600Y0122302D01*
X0224600Y0123900D02*
X0232912Y0123900D01*
X0232000Y0125499D02*
X0224600Y0125499D01*
X0224600Y0127097D02*
X0232000Y0127097D01*
X0232000Y0128696D02*
X0224600Y0128696D01*
X0224600Y0130294D02*
X0233506Y0130294D01*
X0229550Y0135090D02*
X0222470Y0135090D01*
X0220871Y0136688D02*
X0227952Y0136688D01*
X0226353Y0138287D02*
X0219273Y0138287D01*
X0223156Y0141484D02*
X0208950Y0141484D01*
X0210366Y0143082D02*
X0221558Y0143082D01*
X0224755Y0139885D02*
X0210998Y0139885D01*
X0211327Y0154272D02*
X0232540Y0154272D01*
X0232000Y0155870D02*
X0211950Y0155870D01*
X0211950Y0157469D02*
X0232000Y0157469D01*
X0232279Y0159068D02*
X0213027Y0159068D01*
X0214626Y0160666D02*
X0233878Y0160666D01*
X0234547Y0162265D02*
X0216224Y0162265D01*
X0217823Y0163863D02*
X0232949Y0163863D01*
X0232000Y0165462D02*
X0219421Y0165462D01*
X0221020Y0167060D02*
X0232000Y0167060D01*
X0232000Y0168659D02*
X0222618Y0168659D01*
X0224217Y0170257D02*
X0233469Y0170257D01*
X0240651Y0163863D02*
X0250777Y0163863D01*
X0254658Y0181447D02*
X0238942Y0181447D01*
X0230855Y0189439D02*
X0224600Y0189439D01*
X0224600Y0187841D02*
X0228881Y0187841D01*
X0227282Y0186242D02*
X0224600Y0186242D01*
X0224600Y0184644D02*
X0225684Y0184644D01*
X0232674Y0139885D02*
X0250926Y0139885D01*
X0241600Y0127097D02*
X0375232Y0127097D01*
X0373172Y0125499D02*
X0347489Y0125499D01*
X0336334Y0147878D02*
X0317266Y0147878D01*
X0318633Y0149476D02*
X0334967Y0149476D01*
X0334400Y0151075D02*
X0319200Y0151075D01*
X0319200Y0152673D02*
X0334400Y0152673D01*
X0335028Y0154272D02*
X0318572Y0154272D01*
X0317116Y0155870D02*
X0336484Y0155870D01*
X0337113Y0157469D02*
X0316487Y0157469D01*
X0318456Y0159068D02*
X0335144Y0159068D01*
X0334474Y0160666D02*
X0319126Y0160666D01*
X0319200Y0162265D02*
X0334400Y0162265D01*
X0334859Y0163863D02*
X0318741Y0163863D01*
X0317527Y0165462D02*
X0336073Y0165462D01*
X0338100Y0167060D02*
X0315500Y0167060D01*
X0318047Y0168659D02*
X0335553Y0168659D01*
X0334644Y0170257D02*
X0318956Y0170257D01*
X0319200Y0171856D02*
X0334400Y0171856D01*
X0334690Y0173454D02*
X0318910Y0173454D01*
X0317936Y0175053D02*
X0335664Y0175053D01*
X0305028Y0154272D02*
X0288149Y0154272D01*
X0289886Y0152673D02*
X0304400Y0152673D01*
X0304400Y0151075D02*
X0291485Y0151075D01*
X0293083Y0149476D02*
X0304967Y0149476D01*
X0306334Y0147878D02*
X0294682Y0147878D01*
X0242028Y0106317D02*
X0241600Y0106317D01*
X0236800Y0106317D02*
X0236800Y0106317D01*
X0236800Y0107915D02*
X0236800Y0107915D01*
X0236800Y0109514D02*
X0236800Y0109514D01*
X0236800Y0111112D02*
X0236800Y0111112D01*
X0236800Y0104718D02*
X0236800Y0104718D01*
X0236800Y0103120D02*
X0236800Y0103120D01*
X0238867Y0101521D02*
X0239500Y0101521D01*
X0239443Y0075945D02*
X0306664Y0075945D01*
X0300631Y0074346D02*
X0241042Y0074346D01*
X0241600Y0072748D02*
X0298788Y0072748D01*
X0301912Y0067952D02*
X0306259Y0067952D01*
X0307651Y0066354D02*
X0301600Y0066354D01*
X0301544Y0064755D02*
X0305367Y0064755D01*
X0304197Y0063157D02*
X0299945Y0063157D01*
X0287060Y0037581D02*
X0239369Y0037581D01*
X0212338Y0122302D02*
X0211313Y0122302D01*
X0181967Y0152673D02*
X0179957Y0152673D01*
X0106056Y0215015D02*
X0024000Y0215015D01*
X0024000Y0213417D02*
X0104457Y0213417D01*
X0102859Y0211818D02*
X0024000Y0211818D01*
X0024000Y0210220D02*
X0073432Y0210220D01*
X0072000Y0208621D02*
X0024000Y0208621D01*
X0024000Y0207023D02*
X0072000Y0207023D01*
X0072000Y0205424D02*
X0060089Y0205424D01*
X0061215Y0203826D02*
X0072986Y0203826D01*
X0073268Y0202227D02*
X0061643Y0202227D01*
X0061569Y0200629D02*
X0071669Y0200629D01*
X0070071Y0199030D02*
X0060907Y0199030D01*
X0059162Y0197432D02*
X0068472Y0197432D01*
X0073195Y0194235D02*
X0084000Y0194235D01*
X0084000Y0195833D02*
X0074793Y0195833D01*
X0076392Y0197432D02*
X0084031Y0197432D01*
X0085071Y0199030D02*
X0077990Y0199030D01*
X0079346Y0200629D02*
X0086669Y0200629D01*
X0088268Y0202227D02*
X0079600Y0202227D01*
X0080614Y0203826D02*
X0089866Y0203826D01*
X0091465Y0205424D02*
X0081600Y0205424D01*
X0081600Y0207023D02*
X0092000Y0207023D01*
X0092000Y0208621D02*
X0081600Y0208621D01*
X0080168Y0210220D02*
X0093432Y0210220D01*
X0100168Y0210220D02*
X0101260Y0210220D01*
X0084000Y0189439D02*
X0080949Y0189439D01*
X0081600Y0187841D02*
X0083881Y0187841D01*
X0082282Y0186242D02*
X0081600Y0186242D01*
X0042891Y0143082D02*
X0042042Y0143082D01*
X0040444Y0141484D02*
X0044553Y0141484D01*
X0059434Y0131893D02*
X0067933Y0131893D01*
X0066335Y0130294D02*
X0060938Y0130294D01*
X0029263Y0167060D02*
X0024000Y0167060D01*
X0024000Y0168659D02*
X0027375Y0168659D01*
X0026648Y0170257D02*
X0024000Y0170257D01*
X0024000Y0171856D02*
X0026450Y0171856D01*
X0026694Y0173454D02*
X0024000Y0173454D01*
X0024000Y0175053D02*
X0027487Y0175053D01*
X0029531Y0176651D02*
X0024000Y0176651D01*
X0046968Y0240592D02*
X0091632Y0240592D01*
X0093230Y0242190D02*
X0089756Y0242190D01*
X0091355Y0243789D02*
X0092257Y0243789D01*
X0086800Y0243789D02*
X0086800Y0243789D01*
X0086800Y0245387D02*
X0086800Y0245387D01*
X0086800Y0246800D02*
X0086800Y0241450D01*
X0084584Y0241450D01*
X0081450Y0244584D01*
X0081450Y0246800D01*
X0086800Y0246800D01*
X0086800Y0246800D01*
X0086800Y0246800D01*
X0086800Y0252150D01*
X0084584Y0252150D01*
X0081450Y0249016D01*
X0081450Y0246800D01*
X0086800Y0246800D01*
X0086800Y0246986D02*
X0086800Y0246986D01*
X0086800Y0248584D02*
X0086800Y0248584D01*
X0086800Y0250183D02*
X0086800Y0250183D01*
X0086800Y0251781D02*
X0086800Y0251781D01*
X0089385Y0251781D02*
X0094845Y0251781D01*
X0092617Y0250183D02*
X0090983Y0250183D01*
X0084215Y0251781D02*
X0057683Y0251781D01*
X0057637Y0251800D02*
X0055648Y0251800D01*
X0053810Y0251039D01*
X0052404Y0249632D01*
X0051643Y0247795D01*
X0051643Y0245805D01*
X0052404Y0243968D01*
X0053810Y0242561D01*
X0055648Y0241800D01*
X0057637Y0241800D01*
X0059475Y0242561D01*
X0060881Y0243968D01*
X0061643Y0245805D01*
X0061643Y0247795D01*
X0060881Y0249632D01*
X0059475Y0251039D01*
X0057637Y0251800D01*
X0055603Y0251781D02*
X0039757Y0251781D01*
X0040646Y0250183D02*
X0052954Y0250183D01*
X0051970Y0248584D02*
X0041630Y0248584D01*
X0041957Y0246986D02*
X0051643Y0246986D01*
X0051816Y0245387D02*
X0042173Y0245387D01*
X0043771Y0243789D02*
X0052583Y0243789D01*
X0054706Y0242190D02*
X0045370Y0242190D01*
X0058579Y0242190D02*
X0083844Y0242190D01*
X0082245Y0243789D02*
X0060702Y0243789D01*
X0061469Y0245387D02*
X0081450Y0245387D01*
X0081450Y0246986D02*
X0061643Y0246986D01*
X0061315Y0248584D02*
X0081450Y0248584D01*
X0082617Y0250183D02*
X0060331Y0250183D01*
X0086800Y0242190D02*
X0086800Y0242190D01*
X0165879Y0325313D02*
X0191100Y0325313D01*
X0191298Y0326911D02*
X0167150Y0326911D01*
X0167150Y0328510D02*
X0191960Y0328510D01*
X0193547Y0330108D02*
X0167150Y0330108D01*
X0157141Y0331707D02*
X0135917Y0331707D01*
X0134334Y0330108D02*
X0156450Y0330108D01*
X0239350Y0272562D02*
X0243602Y0272562D01*
X0245201Y0274160D02*
X0240949Y0274160D01*
X0242004Y0270963D02*
X0239425Y0270963D01*
X0387448Y0315722D02*
X0409521Y0315722D01*
X0409521Y0317320D02*
X0390047Y0317320D01*
X0391192Y0318919D02*
X0409521Y0318919D01*
X0409521Y0320517D02*
X0391800Y0320517D01*
X0391800Y0322116D02*
X0409521Y0322116D01*
X0409521Y0323714D02*
X0391427Y0323714D01*
X0390614Y0325313D02*
X0409521Y0325313D01*
X0409521Y0326911D02*
X0388818Y0326911D01*
X0372650Y0055164D02*
X0347824Y0055164D01*
D24*
X0311800Y0061800D02*
X0306800Y0061800D01*
X0296800Y0051800D01*
X0286800Y0041800D02*
X0296800Y0031800D01*
X0286800Y0041800D02*
X0251800Y0041800D01*
X0246800Y0046800D01*
X0244300Y0046800D01*
X0256800Y0051800D02*
X0256800Y0056800D01*
X0251800Y0061800D01*
X0236800Y0061800D01*
X0221800Y0041800D02*
X0231800Y0031800D01*
X0256800Y0031800D01*
X0221800Y0041800D02*
X0221800Y0086800D01*
X0216800Y0091800D01*
X0216800Y0121800D01*
X0211800Y0126800D01*
X0206800Y0126800D01*
X0206800Y0136800D02*
X0216800Y0136800D01*
X0221800Y0131800D01*
X0221800Y0096800D01*
X0231800Y0086800D01*
X0256800Y0086800D01*
X0251800Y0096800D02*
X0286800Y0096800D01*
X0296800Y0086800D01*
X0301800Y0071800D02*
X0311800Y0071800D01*
X0301800Y0071800D02*
X0296800Y0066800D01*
X0296800Y0106800D02*
X0301800Y0111800D01*
X0311800Y0111800D01*
X0311800Y0121800D02*
X0296800Y0121800D01*
X0296800Y0141800D02*
X0286800Y0151800D01*
X0244300Y0151800D01*
X0256800Y0161800D02*
X0251800Y0166800D01*
X0236800Y0166800D01*
X0226800Y0176800D02*
X0226800Y0181800D01*
X0231800Y0186800D01*
X0246800Y0186800D01*
X0256800Y0196800D01*
X0251800Y0206800D02*
X0286800Y0206800D01*
X0296800Y0196800D01*
X0301800Y0211800D02*
X0311800Y0211800D01*
X0311800Y0221800D02*
X0301800Y0231800D01*
X0296800Y0231800D01*
X0296800Y0216800D02*
X0301800Y0211800D01*
X0296800Y0176800D02*
X0306800Y0176800D01*
X0311800Y0171800D01*
X0311800Y0161800D02*
X0296800Y0161800D01*
X0256800Y0141800D02*
X0251800Y0136800D01*
X0231800Y0136800D01*
X0221800Y0146800D01*
X0206800Y0146800D01*
X0206800Y0156800D02*
X0226800Y0176800D01*
X0221800Y0181800D02*
X0221800Y0191800D01*
X0226800Y0196800D01*
X0226800Y0231800D01*
X0231800Y0236800D01*
X0246800Y0236800D01*
X0256800Y0246800D01*
X0256800Y0251800D01*
X0254300Y0261800D02*
X0244300Y0251800D01*
X0254300Y0261800D02*
X0291800Y0261800D01*
X0296800Y0256800D01*
X0296800Y0251800D01*
X0306800Y0266800D02*
X0311800Y0266800D01*
X0306800Y0266800D02*
X0301800Y0271800D01*
X0296800Y0271800D01*
X0301800Y0286800D02*
X0311800Y0276800D01*
X0301800Y0286800D02*
X0296800Y0286800D01*
X0296800Y0306800D02*
X0296800Y0311800D01*
X0291800Y0316800D01*
X0254300Y0316800D01*
X0244300Y0306800D01*
X0256800Y0306800D02*
X0256800Y0296800D01*
X0251800Y0291800D01*
X0226800Y0291800D01*
X0221800Y0286800D01*
X0221800Y0201800D01*
X0216800Y0196800D01*
X0216800Y0186800D01*
X0206800Y0176800D01*
X0206800Y0166800D02*
X0221800Y0181800D01*
X0244300Y0201800D02*
X0246800Y0201800D01*
X0251800Y0206800D01*
X0256800Y0216800D02*
X0236800Y0216800D01*
X0211800Y0221800D02*
X0196800Y0206800D01*
X0171800Y0206800D01*
X0172300Y0191300D02*
X0156800Y0191300D01*
X0156800Y0226800D01*
X0151800Y0231800D01*
X0141800Y0231800D01*
X0131800Y0216800D02*
X0131800Y0196800D01*
X0146800Y0181800D01*
X0147300Y0181800D01*
X0156800Y0172300D01*
X0172300Y0172300D01*
X0176800Y0176800D01*
X0176800Y0166800D02*
X0171800Y0161800D01*
X0151800Y0161800D01*
X0141800Y0171800D01*
X0121800Y0171800D01*
X0116800Y0166800D01*
X0116800Y0086800D01*
X0111800Y0091800D01*
X0096800Y0091800D01*
X0091800Y0096800D01*
X0091800Y0081800D02*
X0109300Y0081800D01*
X0091800Y0081800D02*
X0086800Y0076800D01*
X0086800Y0066800D01*
X0081800Y0051800D02*
X0076800Y0051800D01*
X0071800Y0056800D01*
X0056800Y0056800D01*
X0056800Y0066800D02*
X0041800Y0066800D01*
X0036800Y0061800D01*
X0037900Y0022900D02*
X0036800Y0021800D01*
X0037900Y0022900D02*
X0054000Y0022900D01*
X0079600Y0022900D01*
X0091800Y0036800D02*
X0101800Y0026800D01*
X0091800Y0036800D02*
X0091800Y0041800D01*
X0081800Y0051800D01*
X0131800Y0061800D02*
X0136800Y0066800D01*
X0156800Y0066800D01*
X0156800Y0056800D02*
X0171800Y0056800D01*
X0176800Y0051800D01*
X0181800Y0051800D01*
X0191800Y0041800D01*
X0191800Y0036800D01*
X0201800Y0026800D01*
X0179600Y0022900D02*
X0154000Y0022900D01*
X0152900Y0021800D01*
X0131800Y0021800D01*
X0186800Y0066800D02*
X0186800Y0076800D01*
X0191800Y0081800D01*
X0204300Y0081800D01*
X0211800Y0086800D02*
X0201800Y0096800D01*
X0191800Y0096800D01*
X0186800Y0101800D01*
X0186800Y0151800D01*
X0181800Y0156800D01*
X0176800Y0156800D01*
X0176800Y0146800D02*
X0156800Y0146800D01*
X0141800Y0161800D01*
X0136800Y0161800D01*
X0136800Y0131800D02*
X0146800Y0131800D01*
X0156800Y0121800D01*
X0161800Y0121800D01*
X0176800Y0136800D01*
X0156800Y0111800D02*
X0151800Y0111800D01*
X0141800Y0101800D01*
X0106800Y0141800D02*
X0101800Y0141800D01*
X0091800Y0131800D01*
X0091800Y0121800D01*
X0086800Y0116800D01*
X0041800Y0116800D01*
X0036800Y0121800D01*
X0036800Y0141800D01*
X0041700Y0146700D01*
X0051800Y0146700D01*
X0051800Y0127000D02*
X0052000Y0126800D01*
X0066800Y0126800D01*
X0091800Y0151800D01*
X0091800Y0161800D01*
X0101800Y0151800D01*
X0106800Y0151800D01*
X0086800Y0186800D02*
X0086800Y0196800D01*
X0096800Y0206800D01*
X0101800Y0206800D01*
X0111800Y0216800D01*
X0121800Y0236800D02*
X0091800Y0236800D01*
X0096800Y0241800D01*
X0096800Y0246800D01*
X0091800Y0236800D02*
X0046800Y0236800D01*
X0036957Y0246643D01*
X0036957Y0246800D01*
X0036957Y0281957D01*
X0051800Y0296800D01*
X0041800Y0306800D01*
X0041800Y0316800D01*
X0031800Y0326800D01*
X0031800Y0331800D01*
X0051800Y0331800D02*
X0051800Y0311800D01*
X0052800Y0311800D01*
X0062800Y0301800D01*
X0125800Y0246800D02*
X0125800Y0240800D01*
X0121800Y0236800D01*
X0151800Y0261800D02*
X0156800Y0266800D01*
X0161800Y0271800D02*
X0206800Y0271800D01*
X0216800Y0261800D01*
X0236800Y0266800D02*
X0241800Y0266800D01*
X0246800Y0271800D01*
X0256800Y0271800D01*
X0306800Y0316800D02*
X0311800Y0316800D01*
X0306800Y0316800D02*
X0296800Y0326800D01*
X0296800Y0341800D02*
X0311800Y0326800D01*
X0256800Y0326800D02*
X0246800Y0326800D01*
X0241800Y0321800D01*
X0236800Y0321800D01*
X0172300Y0191300D02*
X0176800Y0186800D01*
X0236800Y0116800D02*
X0246800Y0116800D01*
X0256800Y0106800D01*
X0246800Y0101800D02*
X0251800Y0096800D01*
X0246800Y0101800D02*
X0244300Y0101800D01*
X0086800Y0186800D02*
X0071800Y0171800D01*
X0066800Y0171800D01*
X0056800Y0171800D02*
X0056800Y0181800D01*
X0076800Y0201800D01*
X0076800Y0206800D01*
X0056800Y0181800D02*
X0036957Y0201643D01*
X0036957Y0201800D01*
D25*
X0141800Y0281800D02*
X0146800Y0281800D01*
X0141800Y0281800D02*
X0111700Y0311900D01*
X0111700Y0316800D01*
X0131800Y0306800D02*
X0156800Y0306800D01*
X0161800Y0311800D01*
X0161800Y0271800D01*
X0151800Y0261800D01*
X0146800Y0261800D01*
X0161800Y0311800D02*
X0163300Y0313300D01*
X0161800Y0314800D01*
X0163300Y0313300D02*
X0164800Y0311800D01*
X0176800Y0311800D01*
X0186800Y0321800D01*
X0196800Y0321800D01*
X0216800Y0321800D02*
X0216800Y0291800D01*
X0206800Y0281800D01*
X0341800Y0276800D02*
X0376600Y0276800D01*
X0381800Y0271600D01*
X0376900Y0256800D02*
X0381800Y0251900D01*
X0376900Y0256800D02*
X0341800Y0256800D01*
X0341800Y0221800D02*
X0381600Y0221800D01*
X0381800Y0221600D01*
X0381800Y0201900D02*
X0381700Y0201800D01*
X0341800Y0201800D01*
X0341800Y0171800D02*
X0381600Y0171800D01*
X0381800Y0171600D01*
X0381800Y0151900D02*
X0381700Y0151800D01*
X0341800Y0151800D01*
X0341800Y0121800D02*
X0381600Y0121800D01*
X0381800Y0121600D01*
X0381800Y0101900D02*
X0381700Y0101800D01*
X0341800Y0101800D01*
X0341800Y0071800D02*
X0381600Y0071800D01*
X0381800Y0071600D01*
X0381800Y0051900D02*
X0346900Y0051900D01*
X0346800Y0051800D01*
X0341800Y0051800D01*
X0381800Y0301900D02*
X0376900Y0306800D01*
X0341800Y0306800D01*
X0341800Y0326800D02*
X0376800Y0326800D01*
X0381800Y0321800D01*
X0381800Y0321600D01*
D26*
X0216800Y0261800D03*
M02*
